G04 #@! TF.GenerationSoftware,KiCad,Pcbnew,7.0.6*
G04 #@! TF.CreationDate,2023-11-12T09:36:54+05:30*
G04 #@! TF.ProjectId,ESP32-Miner,45535033-322d-44d6-996e-65722e6b6963,rev?*
G04 #@! TF.SameCoordinates,Original*
G04 #@! TF.FileFunction,Copper,L1,Top*
G04 #@! TF.FilePolarity,Positive*
%FSLAX46Y46*%
G04 Gerber Fmt 4.6, Leading zero omitted, Abs format (unit mm)*
G04 Created by KiCad (PCBNEW 7.0.6) date 2023-11-12 09:36:54*
%MOMM*%
%LPD*%
G01*
G04 APERTURE LIST*
G04 Aperture macros list*
%AMRoundRect*
0 Rectangle with rounded corners*
0 $1 Rounding radius*
0 $2 $3 $4 $5 $6 $7 $8 $9 X,Y pos of 4 corners*
0 Add a 4 corners polygon primitive as box body*
4,1,4,$2,$3,$4,$5,$6,$7,$8,$9,$2,$3,0*
0 Add four circle primitives for the rounded corners*
1,1,$1+$1,$2,$3*
1,1,$1+$1,$4,$5*
1,1,$1+$1,$6,$7*
1,1,$1+$1,$8,$9*
0 Add four rect primitives between the rounded corners*
20,1,$1+$1,$2,$3,$4,$5,0*
20,1,$1+$1,$4,$5,$6,$7,0*
20,1,$1+$1,$6,$7,$8,$9,0*
20,1,$1+$1,$8,$9,$2,$3,0*%
G04 Aperture macros list end*
G04 #@! TA.AperFunction,SMDPad,CuDef*
%ADD10RoundRect,0.243750X-0.456250X0.243750X-0.456250X-0.243750X0.456250X-0.243750X0.456250X0.243750X0*%
G04 #@! TD*
G04 #@! TA.AperFunction,SMDPad,CuDef*
%ADD11R,0.800000X0.900000*%
G04 #@! TD*
G04 #@! TA.AperFunction,SMDPad,CuDef*
%ADD12R,2.000000X1.500000*%
G04 #@! TD*
G04 #@! TA.AperFunction,SMDPad,CuDef*
%ADD13R,2.000000X3.800000*%
G04 #@! TD*
G04 #@! TA.AperFunction,SMDPad,CuDef*
%ADD14RoundRect,0.243750X0.243750X0.456250X-0.243750X0.456250X-0.243750X-0.456250X0.243750X-0.456250X0*%
G04 #@! TD*
G04 #@! TA.AperFunction,SMDPad,CuDef*
%ADD15RoundRect,0.243750X-0.243750X-0.456250X0.243750X-0.456250X0.243750X0.456250X-0.243750X0.456250X0*%
G04 #@! TD*
G04 #@! TA.AperFunction,SMDPad,CuDef*
%ADD16R,1.597660X2.298700*%
G04 #@! TD*
G04 #@! TA.AperFunction,ComponentPad*
%ADD17R,1.700000X1.700000*%
G04 #@! TD*
G04 #@! TA.AperFunction,ComponentPad*
%ADD18O,1.700000X1.700000*%
G04 #@! TD*
G04 #@! TA.AperFunction,SMDPad,CuDef*
%ADD19R,2.000000X0.900000*%
G04 #@! TD*
G04 #@! TA.AperFunction,SMDPad,CuDef*
%ADD20R,0.900000X2.000000*%
G04 #@! TD*
G04 #@! TA.AperFunction,SMDPad,CuDef*
%ADD21R,5.000000X5.000000*%
G04 #@! TD*
G04 #@! TA.AperFunction,SMDPad,CuDef*
%ADD22RoundRect,0.250000X1.075000X-0.375000X1.075000X0.375000X-1.075000X0.375000X-1.075000X-0.375000X0*%
G04 #@! TD*
G04 #@! TA.AperFunction,ViaPad*
%ADD23C,0.800000*%
G04 #@! TD*
G04 #@! TA.AperFunction,Conductor*
%ADD24C,0.600000*%
G04 #@! TD*
G04 #@! TA.AperFunction,Conductor*
%ADD25C,0.500000*%
G04 #@! TD*
G04 #@! TA.AperFunction,Conductor*
%ADD26C,0.800000*%
G04 #@! TD*
G04 #@! TA.AperFunction,Conductor*
%ADD27C,0.400000*%
G04 #@! TD*
G04 APERTURE END LIST*
D10*
G04 #@! TO.P,C2,1*
G04 #@! TO.N,+3V3*
X150000000Y-95982500D03*
G04 #@! TO.P,C2,2*
G04 #@! TO.N,GND*
X150000000Y-97857500D03*
G04 #@! TD*
D11*
G04 #@! TO.P,Q1,1*
G04 #@! TO.N,+3V3*
X130950000Y-99500000D03*
G04 #@! TO.P,Q1,2*
G04 #@! TO.N,SDA*
X129050000Y-99500000D03*
G04 #@! TO.P,Q1,3*
G04 #@! TO.N,H_SDA*
X130000000Y-101500000D03*
G04 #@! TD*
D12*
G04 #@! TO.P,U1,1*
G04 #@! TO.N,GND*
X140350000Y-92700000D03*
G04 #@! TO.P,U1,2*
G04 #@! TO.N,+3V3*
X140350000Y-95000000D03*
D13*
X146650000Y-95000000D03*
D12*
G04 #@! TO.P,U1,3*
G04 #@! TO.N,+5V*
X140350000Y-97300000D03*
G04 #@! TD*
D10*
G04 #@! TO.P,R6,1*
G04 #@! TO.N,+5V*
X133000000Y-99625000D03*
G04 #@! TO.P,R6,2*
G04 #@! TO.N,H_SDA*
X133000000Y-101500000D03*
G04 #@! TD*
G04 #@! TO.P,R5,1*
G04 #@! TO.N,SDA*
X133000000Y-96062500D03*
G04 #@! TO.P,R5,2*
G04 #@! TO.N,+3V3*
X133000000Y-97937500D03*
G04 #@! TD*
D14*
G04 #@! TO.P,D2,1*
G04 #@! TO.N,GND*
X154937500Y-74500000D03*
G04 #@! TO.P,D2,2*
G04 #@! TO.N,Net-(D2-Pad2)*
X153062500Y-74500000D03*
G04 #@! TD*
G04 #@! TO.P,R10,1*
G04 #@! TO.N,RESET*
X129875000Y-77500000D03*
G04 #@! TO.P,R10,2*
G04 #@! TO.N,+3V3*
X128000000Y-77500000D03*
G04 #@! TD*
D15*
G04 #@! TO.P,R2,1*
G04 #@! TO.N,Net-(D2-Pad2)*
X153062500Y-76500000D03*
G04 #@! TO.P,R2,2*
G04 #@! TO.N,ON_BOARD_LED*
X154937500Y-76500000D03*
G04 #@! TD*
D16*
G04 #@! TO.P,SW1,1*
G04 #@! TO.N,GND*
X129000000Y-87149600D03*
G04 #@! TO.P,SW1,2*
G04 #@! TO.N,RESET*
X129000000Y-80850400D03*
G04 #@! TD*
G04 #@! TO.P,SW2,1*
G04 #@! TO.N,GND*
X129000000Y-90350400D03*
G04 #@! TO.P,SW2,2*
G04 #@! TO.N,BOOT*
X129000000Y-96649600D03*
G04 #@! TD*
D14*
G04 #@! TO.P,C3,1*
G04 #@! TO.N,+3V3*
X129875000Y-73500000D03*
G04 #@! TO.P,C3,2*
G04 #@! TO.N,GND*
X128000000Y-73500000D03*
G04 #@! TD*
D15*
G04 #@! TO.P,C4,1*
G04 #@! TO.N,GND*
X128000000Y-75500000D03*
G04 #@! TO.P,C4,2*
G04 #@! TO.N,RESET*
X129875000Y-75500000D03*
G04 #@! TD*
D11*
G04 #@! TO.P,Q2,1*
G04 #@! TO.N,+3V3*
X154200000Y-99562500D03*
G04 #@! TO.P,Q2,2*
G04 #@! TO.N,SCL*
X152300000Y-99562500D03*
G04 #@! TO.P,Q2,3*
G04 #@! TO.N,H_SCL*
X153250000Y-101562500D03*
G04 #@! TD*
D15*
G04 #@! TO.P,R7,1*
G04 #@! TO.N,SCL*
X152312500Y-97650000D03*
G04 #@! TO.P,R7,2*
G04 #@! TO.N,+3V3*
X154187500Y-97650000D03*
G04 #@! TD*
D17*
G04 #@! TO.P,J1,1*
G04 #@! TO.N,EXT_LED*
X136425000Y-101000000D03*
D18*
G04 #@! TO.P,J1,2*
G04 #@! TO.N,+5V*
X138965000Y-101000000D03*
G04 #@! TO.P,J1,3*
G04 #@! TO.N,Net-(J1-Pad3)*
X141505000Y-101000000D03*
G04 #@! TO.P,J1,4*
G04 #@! TO.N,Net-(J1-Pad4)*
X144045000Y-101000000D03*
G04 #@! TO.P,J1,5*
G04 #@! TO.N,GND*
X146585000Y-101000000D03*
G04 #@! TD*
D10*
G04 #@! TO.P,R9,1*
G04 #@! TO.N,BOOT*
X150000000Y-92142500D03*
G04 #@! TO.P,R9,2*
G04 #@! TO.N,+3V3*
X150000000Y-94017500D03*
G04 #@! TD*
D19*
G04 #@! TO.P,U2,1*
G04 #@! TO.N,GND*
X133000000Y-72245000D03*
G04 #@! TO.P,U2,2*
G04 #@! TO.N,+3V3*
X133000000Y-73515000D03*
G04 #@! TO.P,U2,3*
G04 #@! TO.N,RESET*
X133000000Y-74785000D03*
G04 #@! TO.P,U2,4*
G04 #@! TO.N,Net-(U2-Pad4)*
X133000000Y-76055000D03*
G04 #@! TO.P,U2,5*
G04 #@! TO.N,Net-(U2-Pad5)*
X133000000Y-77325000D03*
G04 #@! TO.P,U2,6*
G04 #@! TO.N,Net-(U2-Pad6)*
X133000000Y-78595000D03*
G04 #@! TO.P,U2,7*
G04 #@! TO.N,Net-(U2-Pad7)*
X133000000Y-79865000D03*
G04 #@! TO.P,U2,8*
G04 #@! TO.N,Net-(U2-Pad8)*
X133000000Y-81135000D03*
G04 #@! TO.P,U2,9*
G04 #@! TO.N,Net-(U2-Pad9)*
X133000000Y-82405000D03*
G04 #@! TO.P,U2,10*
G04 #@! TO.N,Net-(U2-Pad10)*
X133000000Y-83675000D03*
G04 #@! TO.P,U2,11*
G04 #@! TO.N,Net-(U2-Pad11)*
X133000000Y-84945000D03*
G04 #@! TO.P,U2,12*
G04 #@! TO.N,Net-(U2-Pad12)*
X133000000Y-86215000D03*
G04 #@! TO.P,U2,13*
G04 #@! TO.N,Net-(U2-Pad13)*
X133000000Y-87485000D03*
G04 #@! TO.P,U2,14*
G04 #@! TO.N,Net-(U2-Pad14)*
X133000000Y-88755000D03*
D20*
G04 #@! TO.P,U2,15*
G04 #@! TO.N,GND*
X135785000Y-89755000D03*
G04 #@! TO.P,U2,16*
G04 #@! TO.N,Net-(U2-Pad16)*
X137055000Y-89755000D03*
G04 #@! TO.P,U2,17*
G04 #@! TO.N,Net-(U2-Pad17)*
X138325000Y-89755000D03*
G04 #@! TO.P,U2,18*
G04 #@! TO.N,Net-(U2-Pad18)*
X139595000Y-89755000D03*
G04 #@! TO.P,U2,19*
G04 #@! TO.N,Net-(U2-Pad19)*
X140865000Y-89755000D03*
G04 #@! TO.P,U2,20*
G04 #@! TO.N,Net-(U2-Pad20)*
X142135000Y-89755000D03*
G04 #@! TO.P,U2,21*
G04 #@! TO.N,Net-(U2-Pad21)*
X143405000Y-89755000D03*
G04 #@! TO.P,U2,22*
G04 #@! TO.N,Net-(U2-Pad22)*
X144675000Y-89755000D03*
G04 #@! TO.P,U2,23*
G04 #@! TO.N,Net-(U2-Pad23)*
X145945000Y-89755000D03*
G04 #@! TO.P,U2,24*
G04 #@! TO.N,LED*
X147215000Y-89755000D03*
D19*
G04 #@! TO.P,U2,25*
G04 #@! TO.N,BOOT*
X150000000Y-88755000D03*
G04 #@! TO.P,U2,26*
G04 #@! TO.N,Net-(U2-Pad26)*
X150000000Y-87485000D03*
G04 #@! TO.P,U2,27*
G04 #@! TO.N,Net-(U2-Pad27)*
X150000000Y-86215000D03*
G04 #@! TO.P,U2,28*
G04 #@! TO.N,Net-(U2-Pad28)*
X150000000Y-84945000D03*
G04 #@! TO.P,U2,29*
G04 #@! TO.N,Net-(U2-Pad29)*
X150000000Y-83675000D03*
G04 #@! TO.P,U2,30*
G04 #@! TO.N,Net-(U2-Pad30)*
X150000000Y-82405000D03*
G04 #@! TO.P,U2,31*
G04 #@! TO.N,Net-(U2-Pad31)*
X150000000Y-81135000D03*
G04 #@! TO.P,U2,32*
G04 #@! TO.N,Net-(U2-Pad32)*
X150000000Y-79865000D03*
G04 #@! TO.P,U2,33*
G04 #@! TO.N,SDA*
X150000000Y-78595000D03*
G04 #@! TO.P,U2,34*
G04 #@! TO.N,ESP32_RX*
X150000000Y-77325000D03*
G04 #@! TO.P,U2,35*
G04 #@! TO.N,ESP32_TX*
X150000000Y-76055000D03*
G04 #@! TO.P,U2,36*
G04 #@! TO.N,SCL*
X150000000Y-74785000D03*
G04 #@! TO.P,U2,37*
G04 #@! TO.N,Net-(U2-Pad37)*
X150000000Y-73515000D03*
G04 #@! TO.P,U2,38*
G04 #@! TO.N,GND*
X150000000Y-72245000D03*
D21*
G04 #@! TO.P,U2,39*
X140500000Y-79745000D03*
G04 #@! TD*
D10*
G04 #@! TO.P,R1,1*
G04 #@! TO.N,Net-(D1-Pad2)*
X133000000Y-92247500D03*
G04 #@! TO.P,R1,2*
G04 #@! TO.N,+3V3*
X133000000Y-94122500D03*
G04 #@! TD*
G04 #@! TO.P,R8,1*
G04 #@! TO.N,+5V*
X150000000Y-99625000D03*
G04 #@! TO.P,R8,2*
G04 #@! TO.N,H_SCL*
X150000000Y-101500000D03*
G04 #@! TD*
D17*
G04 #@! TO.P,J2,1*
G04 #@! TO.N,Net-(J2-Pad1)*
X155500000Y-81000000D03*
D18*
G04 #@! TO.P,J2,2*
G04 #@! TO.N,GND*
X155500000Y-83540000D03*
G04 #@! TO.P,J2,3*
G04 #@! TO.N,+5V*
X155500000Y-86080000D03*
G04 #@! TO.P,J2,4*
G04 #@! TO.N,ESP32_RX*
X155500000Y-88620000D03*
G04 #@! TO.P,J2,5*
G04 #@! TO.N,ESP32_TX*
X155500000Y-91160000D03*
G04 #@! TO.P,J2,6*
G04 #@! TO.N,Net-(J2-Pad6)*
X155500000Y-93700000D03*
G04 #@! TD*
D14*
G04 #@! TO.P,D1,1*
G04 #@! TO.N,GND*
X137297500Y-92500000D03*
G04 #@! TO.P,D1,2*
G04 #@! TO.N,Net-(D1-Pad2)*
X135422500Y-92500000D03*
G04 #@! TD*
D22*
G04 #@! TO.P,C1,1*
G04 #@! TO.N,+5V*
X136500000Y-97720000D03*
G04 #@! TO.P,C1,2*
G04 #@! TO.N,GND*
X136500000Y-94920000D03*
G04 #@! TD*
D23*
G04 #@! TO.N,GND*
X141500000Y-79000000D03*
X139500000Y-79000000D03*
X141500000Y-81000000D03*
X142100000Y-92800000D03*
X139500000Y-81000000D03*
G04 #@! TO.N,+5V*
X142100000Y-97400000D03*
G04 #@! TO.N,+3V3*
X142100000Y-95000000D03*
X126700000Y-77500000D03*
X134500000Y-94200000D03*
X131300000Y-98000000D03*
X154000000Y-96000000D03*
X148500000Y-95000000D03*
X134900000Y-73600000D03*
G04 #@! TO.N,Net-(J1-Pad3)*
X134750000Y-99250000D03*
G04 #@! TO.N,EXT_LED*
X138500000Y-96400000D03*
X138574011Y-91557663D03*
G04 #@! TO.N,ESP32_TX*
X148250000Y-76000000D03*
X152750000Y-83500000D03*
G04 #@! TO.N,ESP32_RX*
X152750000Y-82000000D03*
X148250000Y-77250000D03*
G04 #@! TO.N,LED*
X148500000Y-90250000D03*
G04 #@! TO.N,ON_BOARD_LED*
X156000000Y-76500000D03*
G04 #@! TO.N,H_SDA*
X131750000Y-101500000D03*
G04 #@! TO.N,SDA*
X127900000Y-99400000D03*
X137200000Y-87000000D03*
X131500000Y-96200000D03*
G04 #@! TO.N,H_SCL*
X151750000Y-101500000D03*
G04 #@! TO.N,BOOT*
X150000000Y-90250000D03*
X142700000Y-83500000D03*
X127250000Y-97500000D03*
X146900000Y-83500000D03*
G04 #@! TD*
D24*
G04 #@! TO.N,GND*
X140350000Y-92700000D02*
X142000000Y-92700000D01*
X142000000Y-92700000D02*
X142100000Y-92800000D01*
D25*
G04 #@! TO.N,+5V*
X148375000Y-99625000D02*
X150000000Y-99625000D01*
X133000000Y-99625000D02*
X134905000Y-97720000D01*
D24*
X139930000Y-97720000D02*
X140350000Y-97300000D01*
X142100000Y-97400000D02*
X140450000Y-97400000D01*
D25*
X147750000Y-99000000D02*
X148375000Y-99625000D01*
X143000000Y-99000000D02*
X147750000Y-99000000D01*
X142100000Y-97400000D02*
X142100000Y-98100000D01*
X134905000Y-97720000D02*
X136500000Y-97720000D01*
D24*
X140450000Y-97400000D02*
X140350000Y-97300000D01*
D25*
X142100000Y-98100000D02*
X143000000Y-99000000D01*
D24*
X136500000Y-97720000D02*
X139930000Y-97720000D01*
D26*
G04 #@! TO.N,+3V3*
X133085000Y-73600000D02*
X133000000Y-73515000D01*
D25*
X154200000Y-98700000D02*
X154200000Y-96200000D01*
X154200000Y-99562500D02*
X154200000Y-98700000D01*
X131300000Y-98000000D02*
X132937500Y-98000000D01*
X154200000Y-97662500D02*
X154187500Y-97650000D01*
X150000000Y-95000000D02*
X150000000Y-95982500D01*
X150000000Y-94017500D02*
X150000000Y-94750000D01*
X144750000Y-95000000D02*
X146650000Y-95000000D01*
D26*
X126700000Y-79200000D02*
X126700000Y-77500000D01*
D25*
X146650000Y-95000000D02*
X148300000Y-95000000D01*
X130950000Y-99500000D02*
X130950000Y-98350000D01*
X154200000Y-98700000D02*
X154200000Y-97662500D01*
D26*
X133077500Y-94200000D02*
X133000000Y-94122500D01*
D25*
X150000000Y-94750000D02*
X150000000Y-95000000D01*
D26*
X134900000Y-73600000D02*
X133085000Y-73600000D01*
D25*
X148300000Y-95000000D02*
X148500000Y-95000000D01*
D26*
X133000000Y-73515000D02*
X129890000Y-73515000D01*
X128000000Y-77500000D02*
X126700000Y-77500000D01*
X126700000Y-79200000D02*
X126700000Y-93000000D01*
X129890000Y-73515000D02*
X129875000Y-73500000D01*
D25*
X149750000Y-95000000D02*
X150000000Y-94750000D01*
X148300000Y-95000000D02*
X149750000Y-95000000D01*
D26*
X126700000Y-93000000D02*
X127822500Y-94122500D01*
X142100000Y-95000000D02*
X146650000Y-95000000D01*
D25*
X132937500Y-98000000D02*
X133000000Y-97937500D01*
D24*
X142300000Y-95000000D02*
X144750000Y-95000000D01*
D25*
X130950000Y-98350000D02*
X131300000Y-98000000D01*
X150000000Y-94750000D02*
X150000000Y-95982500D01*
D26*
X142100000Y-95000000D02*
X140350000Y-95000000D01*
D25*
X150000000Y-95000000D02*
X150000000Y-94017500D01*
X154200000Y-96200000D02*
X154000000Y-96000000D01*
D24*
X140350000Y-95000000D02*
X142300000Y-95000000D01*
X142300000Y-95000000D02*
X146650000Y-95000000D01*
D26*
X134500000Y-94200000D02*
X133077500Y-94200000D01*
X127822500Y-94122500D02*
X133000000Y-94122500D01*
D25*
G04 #@! TO.N,RESET*
X129000000Y-79700000D02*
X129875000Y-78825000D01*
X129000000Y-80850400D02*
X129000000Y-79700000D01*
X129875000Y-75500000D02*
X130500000Y-75500000D01*
X129875000Y-75500000D02*
X129875000Y-77500000D01*
X131215000Y-74785000D02*
X133000000Y-74785000D01*
X130500000Y-75500000D02*
X131215000Y-74785000D01*
X129875000Y-77500000D02*
X129875000Y-78825000D01*
G04 #@! TO.N,Net-(D1-Pad2)*
X133000000Y-92247500D02*
X135310000Y-92247500D01*
X135310000Y-92247500D02*
X135562500Y-92500000D01*
D27*
G04 #@! TO.N,Net-(D2-Pad2)*
X153062500Y-74500000D02*
X153062500Y-76500000D01*
D25*
G04 #@! TO.N,Net-(J1-Pad3)*
X141505000Y-99755000D02*
X141000000Y-99250000D01*
X141505000Y-101000000D02*
X141505000Y-99755000D01*
X134750000Y-99250000D02*
X141000000Y-99250000D01*
D24*
G04 #@! TO.N,EXT_LED*
X138500000Y-91631674D02*
X138574011Y-91557663D01*
X138500000Y-96400000D02*
X138500000Y-91631674D01*
D25*
G04 #@! TO.N,ESP32_TX*
X152650000Y-83600000D02*
X152750000Y-83500000D01*
X153660000Y-91160000D02*
X155500000Y-91160000D01*
X152650000Y-85850000D02*
X152650000Y-90150000D01*
D27*
X150000000Y-76055000D02*
X148305000Y-76055000D01*
D25*
X152650000Y-85850000D02*
X152650000Y-83600000D01*
X152650000Y-90150000D02*
X153660000Y-91160000D01*
D27*
X148305000Y-76055000D02*
X148250000Y-76000000D01*
G04 #@! TO.N,ESP32_RX*
X150000000Y-77325000D02*
X148325000Y-77325000D01*
X148325000Y-77325000D02*
X148250000Y-77250000D01*
D25*
X155500000Y-88620000D02*
X154120000Y-88620000D01*
X153750000Y-88250000D02*
X153750000Y-85000000D01*
X154120000Y-88620000D02*
X153750000Y-88250000D01*
X152750000Y-82000000D02*
X153750000Y-83000000D01*
X153750000Y-83000000D02*
X153750000Y-85000000D01*
D24*
G04 #@! TO.N,LED*
X148005000Y-89755000D02*
X148500000Y-90250000D01*
X147215000Y-89755000D02*
X148005000Y-89755000D01*
D25*
G04 #@! TO.N,ON_BOARD_LED*
X154937500Y-76500000D02*
X156000000Y-76500000D01*
G04 #@! TO.N,H_SDA*
X131750000Y-101500000D02*
X130000000Y-101500000D01*
X133000000Y-101500000D02*
X131750000Y-101500000D01*
G04 #@! TO.N,SDA*
X128000000Y-99500000D02*
X127900000Y-99400000D01*
X148505000Y-78595000D02*
X150000000Y-78595000D01*
X131500000Y-96200000D02*
X132862500Y-96200000D01*
X132862500Y-96200000D02*
X133000000Y-96062500D01*
X147000000Y-87000000D02*
X148100000Y-85900000D01*
X137200000Y-87000000D02*
X147000000Y-87000000D01*
X148100000Y-85900000D02*
X148100000Y-79000000D01*
X148100000Y-79000000D02*
X148505000Y-78595000D01*
X129050000Y-99500000D02*
X128000000Y-99500000D01*
G04 #@! TO.N,H_SCL*
X150062500Y-101562500D02*
X150000000Y-101500000D01*
D27*
X151687500Y-101562500D02*
X151750000Y-101500000D01*
X153250000Y-101562500D02*
X151687500Y-101562500D01*
D25*
X153250000Y-101562500D02*
X150062500Y-101562500D01*
D27*
X151687500Y-101562500D02*
X150062500Y-101562500D01*
D25*
G04 #@! TO.N,SCL*
X151285000Y-74785000D02*
X151750000Y-75250000D01*
X152300000Y-98137500D02*
X152500000Y-97937500D01*
X150000000Y-74785000D02*
X151285000Y-74785000D01*
X152312500Y-96312500D02*
X151750000Y-95750000D01*
X152300000Y-99562500D02*
X152300000Y-98137500D01*
X152312500Y-97650000D02*
X152312500Y-96312500D01*
X151750000Y-75250000D02*
X151750000Y-95750000D01*
G04 #@! TO.N,BOOT*
X127250000Y-97500000D02*
X128149600Y-97500000D01*
X150000000Y-88755000D02*
X150000000Y-90250000D01*
X150000000Y-90250000D02*
X150000000Y-92142500D01*
X142700000Y-83500000D02*
X146900000Y-83500000D01*
X128149600Y-97500000D02*
X129000000Y-96649600D01*
G04 #@! TD*
G04 #@! TA.AperFunction,Conductor*
G04 #@! TO.N,GND*
G36*
X149310989Y-90492920D02*
G01*
X149360916Y-90543396D01*
X149367808Y-90558486D01*
X149375182Y-90577930D01*
X149375183Y-90577931D01*
X149427196Y-90653285D01*
X149449432Y-90720710D01*
X149449500Y-90724861D01*
X149449500Y-91265122D01*
X149429498Y-91333243D01*
X149375842Y-91379736D01*
X149369724Y-91382337D01*
X149274500Y-91419888D01*
X149155288Y-91510288D01*
X149064889Y-91629499D01*
X149010002Y-91768679D01*
X148999500Y-91856137D01*
X148999500Y-92428862D01*
X149010002Y-92516320D01*
X149064889Y-92655500D01*
X149155288Y-92774711D01*
X149212377Y-92818002D01*
X149274500Y-92865111D01*
X149413679Y-92919997D01*
X149501140Y-92930500D01*
X149501143Y-92930500D01*
X150498857Y-92930500D01*
X150498860Y-92930500D01*
X150586321Y-92919997D01*
X150725500Y-92865111D01*
X150844711Y-92774711D01*
X150935111Y-92655500D01*
X150956285Y-92601806D01*
X150999883Y-92545774D01*
X151066854Y-92522206D01*
X151135935Y-92538588D01*
X151185193Y-92589716D01*
X151199500Y-92648031D01*
X151199500Y-93511968D01*
X151179498Y-93580089D01*
X151125842Y-93626582D01*
X151055568Y-93636686D01*
X150990988Y-93607192D01*
X150956285Y-93558193D01*
X150949193Y-93540210D01*
X150935111Y-93504500D01*
X150907376Y-93467926D01*
X150844711Y-93385288D01*
X150725500Y-93294889D01*
X150586320Y-93240002D01*
X150498862Y-93229500D01*
X150498860Y-93229500D01*
X149501140Y-93229500D01*
X149501137Y-93229500D01*
X149413679Y-93240002D01*
X149274499Y-93294889D01*
X149155288Y-93385288D01*
X149064889Y-93504499D01*
X149010002Y-93643679D01*
X148999500Y-93731137D01*
X148999500Y-94262610D01*
X148979498Y-94330731D01*
X148925842Y-94377224D01*
X148855568Y-94387328D01*
X148814945Y-94374178D01*
X148750223Y-94340209D01*
X148750221Y-94340208D01*
X148585059Y-94299500D01*
X148585056Y-94299500D01*
X148414944Y-94299500D01*
X148414940Y-94299500D01*
X148249778Y-94340208D01*
X148249770Y-94340212D01*
X148135054Y-94400420D01*
X148065441Y-94414367D01*
X147999338Y-94388463D01*
X147957734Y-94330935D01*
X147950499Y-94288853D01*
X147950499Y-93055140D01*
X147950499Y-93055136D01*
X147947585Y-93030009D01*
X147903648Y-92930500D01*
X147902206Y-92927234D01*
X147822767Y-92847795D01*
X147822765Y-92847794D01*
X147719989Y-92802414D01*
X147719990Y-92802414D01*
X147694868Y-92799500D01*
X145605140Y-92799500D01*
X145605133Y-92799501D01*
X145580009Y-92802414D01*
X145580005Y-92802416D01*
X145477234Y-92847793D01*
X145397795Y-92927232D01*
X145397794Y-92927234D01*
X145352414Y-93030009D01*
X145349500Y-93055129D01*
X145349500Y-94173500D01*
X145329498Y-94241621D01*
X145275842Y-94288114D01*
X145223500Y-94299500D01*
X141773674Y-94299500D01*
X141705553Y-94279498D01*
X141659060Y-94225842D01*
X141648513Y-94188018D01*
X141647585Y-94180009D01*
X141619936Y-94117389D01*
X141602206Y-94077234D01*
X141522767Y-93997795D01*
X141522765Y-93997794D01*
X141419989Y-93952414D01*
X141419990Y-93952414D01*
X141394868Y-93949500D01*
X139305140Y-93949500D01*
X139305133Y-93949501D01*
X139280009Y-93952414D01*
X139280005Y-93952416D01*
X139277392Y-93953570D01*
X139274253Y-93953980D01*
X139270860Y-93954904D01*
X139270734Y-93954441D01*
X139206996Y-93962786D01*
X139142793Y-93932481D01*
X139105166Y-93872275D01*
X139100500Y-93838305D01*
X139100500Y-92067309D01*
X139120502Y-91999188D01*
X139122776Y-91995773D01*
X139198829Y-91885593D01*
X139259151Y-91726535D01*
X139270933Y-91629500D01*
X139279656Y-91557665D01*
X139279656Y-91557660D01*
X139259151Y-91388791D01*
X139252901Y-91372310D01*
X139198829Y-91229733D01*
X139198828Y-91229732D01*
X139197481Y-91226179D01*
X139192027Y-91155392D01*
X139225710Y-91092894D01*
X139287834Y-91058527D01*
X139315285Y-91055499D01*
X140089864Y-91055499D01*
X140114991Y-91052585D01*
X140179108Y-91024274D01*
X140249500Y-91015057D01*
X140280890Y-91024273D01*
X140345009Y-91052585D01*
X140370135Y-91055500D01*
X141359864Y-91055499D01*
X141384991Y-91052585D01*
X141449108Y-91024274D01*
X141519500Y-91015057D01*
X141550890Y-91024273D01*
X141615009Y-91052585D01*
X141640135Y-91055500D01*
X142629864Y-91055499D01*
X142654991Y-91052585D01*
X142719108Y-91024274D01*
X142789500Y-91015057D01*
X142820890Y-91024273D01*
X142885009Y-91052585D01*
X142910135Y-91055500D01*
X143899864Y-91055499D01*
X143924991Y-91052585D01*
X143989108Y-91024274D01*
X144059500Y-91015057D01*
X144090890Y-91024273D01*
X144155009Y-91052585D01*
X144180135Y-91055500D01*
X145169864Y-91055499D01*
X145194991Y-91052585D01*
X145259108Y-91024274D01*
X145329500Y-91015057D01*
X145360890Y-91024273D01*
X145425009Y-91052585D01*
X145450135Y-91055500D01*
X146439864Y-91055499D01*
X146464991Y-91052585D01*
X146529108Y-91024274D01*
X146599500Y-91015057D01*
X146630890Y-91024273D01*
X146695009Y-91052585D01*
X146720135Y-91055500D01*
X147709864Y-91055499D01*
X147734991Y-91052585D01*
X147837765Y-91007206D01*
X147917206Y-90927765D01*
X147931767Y-90894786D01*
X147977579Y-90840550D01*
X148045442Y-90819690D01*
X148105585Y-90834112D01*
X148249775Y-90909790D01*
X148249776Y-90909790D01*
X148249778Y-90909791D01*
X148322703Y-90927765D01*
X148414944Y-90950500D01*
X148414947Y-90950500D01*
X148585053Y-90950500D01*
X148585056Y-90950500D01*
X148750225Y-90909790D01*
X148900852Y-90830734D01*
X149028183Y-90717929D01*
X149124818Y-90577930D01*
X149132187Y-90558498D01*
X149175043Y-90501897D01*
X149241698Y-90477450D01*
X149310989Y-90492920D01*
G37*
G04 #@! TD.AperFunction*
G04 #@! TA.AperFunction,Conductor*
G36*
X155502058Y-71025634D02*
G01*
X155753604Y-71042122D01*
X155761759Y-71043194D01*
X156006989Y-71091973D01*
X156014943Y-71094104D01*
X156251698Y-71174473D01*
X156259308Y-71177624D01*
X156483558Y-71288212D01*
X156490676Y-71292322D01*
X156698563Y-71431228D01*
X156705101Y-71436245D01*
X156748017Y-71473881D01*
X156893074Y-71601092D01*
X156898907Y-71606925D01*
X157063753Y-71794896D01*
X157068773Y-71801438D01*
X157207674Y-72009318D01*
X157211789Y-72016446D01*
X157254090Y-72102222D01*
X157322371Y-72240683D01*
X157325528Y-72248305D01*
X157405892Y-72485047D01*
X157408027Y-72493016D01*
X157456802Y-72738222D01*
X157457878Y-72746401D01*
X157467437Y-72892234D01*
X157472873Y-72975184D01*
X157474365Y-72997938D01*
X157474500Y-73002059D01*
X157474500Y-100997940D01*
X157474365Y-101002058D01*
X157471750Y-101041959D01*
X157457878Y-101253598D01*
X157456802Y-101261777D01*
X157408027Y-101506983D01*
X157405892Y-101514952D01*
X157325528Y-101751694D01*
X157322371Y-101759316D01*
X157309034Y-101786362D01*
X157243136Y-101919991D01*
X157211796Y-101983542D01*
X157207671Y-101990686D01*
X157068774Y-102198559D01*
X157063753Y-102205103D01*
X156898907Y-102393074D01*
X156893074Y-102398907D01*
X156705103Y-102563753D01*
X156698559Y-102568774D01*
X156490686Y-102707671D01*
X156483546Y-102711793D01*
X156371429Y-102767083D01*
X156259316Y-102822371D01*
X156251694Y-102825528D01*
X156014952Y-102905892D01*
X156006983Y-102908027D01*
X155821223Y-102944977D01*
X155761774Y-102956802D01*
X155753598Y-102957878D01*
X155543176Y-102971670D01*
X155502058Y-102974365D01*
X155497940Y-102974500D01*
X127502060Y-102974500D01*
X127497941Y-102974365D01*
X127450819Y-102971276D01*
X127246401Y-102957878D01*
X127238227Y-102956802D01*
X127115618Y-102932414D01*
X126993016Y-102908027D01*
X126985047Y-102905892D01*
X126748305Y-102825528D01*
X126740683Y-102822371D01*
X126516446Y-102711789D01*
X126509318Y-102707674D01*
X126301438Y-102568773D01*
X126294896Y-102563753D01*
X126106925Y-102398907D01*
X126101092Y-102393074D01*
X126030867Y-102312998D01*
X125936245Y-102205101D01*
X125931225Y-102198559D01*
X125922344Y-102185267D01*
X125795117Y-101994859D01*
X129299500Y-101994859D01*
X129299501Y-101994866D01*
X129302414Y-102019990D01*
X129302416Y-102019994D01*
X129347793Y-102122765D01*
X129427232Y-102202204D01*
X129427234Y-102202205D01*
X129427235Y-102202206D01*
X129530009Y-102247585D01*
X129555135Y-102250500D01*
X130444864Y-102250499D01*
X130469991Y-102247585D01*
X130572765Y-102202206D01*
X130652206Y-102122765D01*
X130652207Y-102122762D01*
X130658805Y-102113132D01*
X130660504Y-102114296D01*
X130696769Y-102071367D01*
X130764632Y-102050510D01*
X130766216Y-102050500D01*
X131267235Y-102050500D01*
X131335356Y-102070502D01*
X131345988Y-102078553D01*
X131349148Y-102080734D01*
X131499775Y-102159790D01*
X131499776Y-102159790D01*
X131499778Y-102159791D01*
X131656461Y-102198409D01*
X131664944Y-102200500D01*
X131664947Y-102200500D01*
X131835053Y-102200500D01*
X131835056Y-102200500D01*
X132000225Y-102159790D01*
X132042464Y-102137620D01*
X132112076Y-102123674D01*
X132177151Y-102148789D01*
X132274500Y-102222611D01*
X132413679Y-102277497D01*
X132501140Y-102288000D01*
X132501143Y-102288000D01*
X133498857Y-102288000D01*
X133498860Y-102288000D01*
X133586321Y-102277497D01*
X133725500Y-102222611D01*
X133844711Y-102132211D01*
X133935111Y-102013000D01*
X133989997Y-101873821D01*
X134000500Y-101786360D01*
X134000500Y-101213640D01*
X133989997Y-101126179D01*
X133935111Y-100987000D01*
X133905873Y-100948444D01*
X133844711Y-100867788D01*
X133725500Y-100777389D01*
X133586320Y-100722502D01*
X133498862Y-100712000D01*
X133498860Y-100712000D01*
X132501140Y-100712000D01*
X132501137Y-100712000D01*
X132413679Y-100722502D01*
X132274499Y-100777389D01*
X132177152Y-100851209D01*
X132110787Y-100876432D01*
X132042465Y-100862379D01*
X132021182Y-100851209D01*
X132000225Y-100840210D01*
X132000223Y-100840209D01*
X132000221Y-100840208D01*
X131835059Y-100799500D01*
X131835056Y-100799500D01*
X131664944Y-100799500D01*
X131664940Y-100799500D01*
X131499778Y-100840208D01*
X131499774Y-100840210D01*
X131349148Y-100919265D01*
X131342874Y-100923597D01*
X131341798Y-100922039D01*
X131286529Y-100948014D01*
X131267235Y-100949500D01*
X130766216Y-100949500D01*
X130698095Y-100929498D01*
X130660280Y-100885857D01*
X130658805Y-100886868D01*
X130652204Y-100877232D01*
X130572767Y-100797795D01*
X130572765Y-100797794D01*
X130469989Y-100752414D01*
X130469990Y-100752414D01*
X130444868Y-100749500D01*
X129555140Y-100749500D01*
X129555133Y-100749501D01*
X129530009Y-100752414D01*
X129530005Y-100752416D01*
X129427234Y-100797793D01*
X129347795Y-100877232D01*
X129347794Y-100877234D01*
X129302414Y-100980009D01*
X129299500Y-101005129D01*
X129299500Y-101994859D01*
X125795117Y-101994859D01*
X125792322Y-101990676D01*
X125788212Y-101983558D01*
X125677624Y-101759308D01*
X125674471Y-101751694D01*
X125640790Y-101652473D01*
X125594104Y-101514943D01*
X125591972Y-101506983D01*
X125543194Y-101261759D01*
X125542122Y-101253604D01*
X125525634Y-101002058D01*
X125525500Y-100997940D01*
X125525500Y-99400002D01*
X127194355Y-99400002D01*
X127214859Y-99568871D01*
X127275179Y-99727925D01*
X127275181Y-99727929D01*
X127371816Y-99867928D01*
X127371818Y-99867930D01*
X127482183Y-99965705D01*
X127499148Y-99980734D01*
X127649775Y-100059790D01*
X127649776Y-100059790D01*
X127649778Y-100059791D01*
X127742490Y-100082642D01*
X127814944Y-100100500D01*
X127814947Y-100100500D01*
X127985053Y-100100500D01*
X127985056Y-100100500D01*
X128150225Y-100059790D01*
X128150226Y-100059789D01*
X128153132Y-100058688D01*
X128197812Y-100050500D01*
X128283784Y-100050500D01*
X128351905Y-100070502D01*
X128389719Y-100114142D01*
X128391195Y-100113132D01*
X128397795Y-100122767D01*
X128477232Y-100202204D01*
X128477234Y-100202205D01*
X128477235Y-100202206D01*
X128580009Y-100247585D01*
X128605135Y-100250500D01*
X129494864Y-100250499D01*
X129519991Y-100247585D01*
X129622765Y-100202206D01*
X129702206Y-100122765D01*
X129747585Y-100019991D01*
X129750500Y-99994865D01*
X129750500Y-99994859D01*
X130249500Y-99994859D01*
X130249501Y-99994866D01*
X130252414Y-100019990D01*
X130252416Y-100019994D01*
X130297793Y-100122765D01*
X130377232Y-100202204D01*
X130377234Y-100202205D01*
X130377235Y-100202206D01*
X130480009Y-100247585D01*
X130505135Y-100250500D01*
X131394864Y-100250499D01*
X131419991Y-100247585D01*
X131522765Y-100202206D01*
X131602206Y-100122765D01*
X131647585Y-100019991D01*
X131650500Y-99994865D01*
X131650499Y-99005136D01*
X131647585Y-98980009D01*
X131626418Y-98932071D01*
X131602206Y-98877234D01*
X131562797Y-98837825D01*
X131528771Y-98775513D01*
X131533836Y-98704698D01*
X131576383Y-98647862D01*
X131593332Y-98637165D01*
X131700852Y-98580734D01*
X131700855Y-98580730D01*
X131707126Y-98576403D01*
X131708201Y-98577960D01*
X131763471Y-98551986D01*
X131782765Y-98550500D01*
X132087584Y-98550500D01*
X132155705Y-98570502D01*
X132163715Y-98576100D01*
X132274500Y-98660111D01*
X132274501Y-98660111D01*
X132274502Y-98660112D01*
X132284452Y-98664036D01*
X132340484Y-98707634D01*
X132364051Y-98774606D01*
X132347669Y-98843686D01*
X132296539Y-98892944D01*
X132284452Y-98898464D01*
X132274502Y-98902387D01*
X132274501Y-98902388D01*
X132155288Y-98992788D01*
X132064889Y-99111999D01*
X132010002Y-99251179D01*
X131999500Y-99338637D01*
X131999500Y-99911362D01*
X132010002Y-99998820D01*
X132064889Y-100138000D01*
X132155288Y-100257211D01*
X132228857Y-100312999D01*
X132274500Y-100347611D01*
X132413679Y-100402497D01*
X132501140Y-100413000D01*
X132501143Y-100413000D01*
X133498857Y-100413000D01*
X133498860Y-100413000D01*
X133586321Y-100402497D01*
X133725500Y-100347611D01*
X133844711Y-100257211D01*
X133935111Y-100138000D01*
X133989997Y-99998821D01*
X134000500Y-99911360D01*
X134000500Y-99800345D01*
X134020500Y-99732228D01*
X134074156Y-99685735D01*
X134144430Y-99675630D01*
X134209011Y-99705123D01*
X134220803Y-99716785D01*
X134221816Y-99717928D01*
X134320287Y-99805166D01*
X134349148Y-99830734D01*
X134499775Y-99909790D01*
X134499776Y-99909790D01*
X134499778Y-99909791D01*
X134640325Y-99944432D01*
X134664944Y-99950500D01*
X134664947Y-99950500D01*
X134835053Y-99950500D01*
X134835056Y-99950500D01*
X135000225Y-99909790D01*
X135139239Y-99836828D01*
X135208847Y-99822883D01*
X135274949Y-99848786D01*
X135316555Y-99906314D01*
X135320453Y-99977204D01*
X135313055Y-99999289D01*
X135277414Y-100080009D01*
X135274500Y-100105129D01*
X135274500Y-101894859D01*
X135274501Y-101894866D01*
X135277414Y-101919990D01*
X135277416Y-101919994D01*
X135322793Y-102022765D01*
X135402232Y-102102204D01*
X135402234Y-102102205D01*
X135402235Y-102102206D01*
X135505009Y-102147585D01*
X135530135Y-102150500D01*
X137319864Y-102150499D01*
X137344991Y-102147585D01*
X137447765Y-102102206D01*
X137527206Y-102022765D01*
X137572585Y-101919991D01*
X137575500Y-101894865D01*
X137575499Y-101199306D01*
X137595501Y-101131188D01*
X137649157Y-101084695D01*
X137719430Y-101074591D01*
X137784011Y-101104084D01*
X137822395Y-101163811D01*
X137826961Y-101187681D01*
X137829243Y-101212307D01*
X137887593Y-101417384D01*
X137887594Y-101417386D01*
X137887595Y-101417389D01*
X137982634Y-101608255D01*
X138090955Y-101751694D01*
X138111129Y-101778408D01*
X138268699Y-101922053D01*
X138268701Y-101922054D01*
X138449974Y-102034294D01*
X138449975Y-102034294D01*
X138449981Y-102034298D01*
X138648802Y-102111321D01*
X138858390Y-102150500D01*
X138858393Y-102150500D01*
X139071607Y-102150500D01*
X139071610Y-102150500D01*
X139281198Y-102111321D01*
X139480019Y-102034298D01*
X139661302Y-101922052D01*
X139818872Y-101778407D01*
X139947366Y-101608255D01*
X140042405Y-101417389D01*
X140100756Y-101212310D01*
X140109537Y-101117536D01*
X140135738Y-101051556D01*
X140193454Y-101010211D01*
X140264360Y-101006634D01*
X140325945Y-101041959D01*
X140358654Y-101104971D01*
X140360461Y-101117538D01*
X140369243Y-101212306D01*
X140369243Y-101212309D01*
X140369244Y-101212310D01*
X140369623Y-101213642D01*
X140427593Y-101417384D01*
X140427594Y-101417386D01*
X140427595Y-101417389D01*
X140522634Y-101608255D01*
X140630955Y-101751694D01*
X140651129Y-101778408D01*
X140808699Y-101922053D01*
X140808701Y-101922054D01*
X140989974Y-102034294D01*
X140989975Y-102034294D01*
X140989981Y-102034298D01*
X141188802Y-102111321D01*
X141398390Y-102150500D01*
X141398393Y-102150500D01*
X141611607Y-102150500D01*
X141611610Y-102150500D01*
X141821198Y-102111321D01*
X142020019Y-102034298D01*
X142201302Y-101922052D01*
X142358872Y-101778407D01*
X142487366Y-101608255D01*
X142582405Y-101417389D01*
X142640756Y-101212310D01*
X142649537Y-101117538D01*
X142675739Y-101051555D01*
X142733456Y-101010211D01*
X142804362Y-101006634D01*
X142865946Y-101041960D01*
X142898656Y-101104973D01*
X142900461Y-101117529D01*
X142901873Y-101132758D01*
X142909244Y-101212311D01*
X142967593Y-101417384D01*
X142967594Y-101417386D01*
X142967595Y-101417389D01*
X143062634Y-101608255D01*
X143170955Y-101751694D01*
X143191129Y-101778408D01*
X143348699Y-101922053D01*
X143348701Y-101922054D01*
X143529974Y-102034294D01*
X143529975Y-102034294D01*
X143529981Y-102034298D01*
X143728802Y-102111321D01*
X143938390Y-102150500D01*
X143938393Y-102150500D01*
X144151607Y-102150500D01*
X144151610Y-102150500D01*
X144361198Y-102111321D01*
X144560019Y-102034298D01*
X144741302Y-101922052D01*
X144890146Y-101786362D01*
X148999500Y-101786362D01*
X149010002Y-101873820D01*
X149064889Y-102013000D01*
X149155288Y-102132211D01*
X149225254Y-102185267D01*
X149274500Y-102222611D01*
X149413679Y-102277497D01*
X149501140Y-102288000D01*
X149501143Y-102288000D01*
X150498857Y-102288000D01*
X150498860Y-102288000D01*
X150586321Y-102277497D01*
X150725500Y-102222611D01*
X150836283Y-102138601D01*
X150902648Y-102113379D01*
X150912416Y-102113000D01*
X151379569Y-102113000D01*
X151438124Y-102127432D01*
X151499775Y-102159790D01*
X151499776Y-102159790D01*
X151499778Y-102159791D01*
X151656461Y-102198409D01*
X151664944Y-102200500D01*
X151664947Y-102200500D01*
X151835053Y-102200500D01*
X151835056Y-102200500D01*
X152000225Y-102159790D01*
X152061875Y-102127432D01*
X152120431Y-102113000D01*
X152483784Y-102113000D01*
X152551905Y-102133002D01*
X152589719Y-102176642D01*
X152591195Y-102175632D01*
X152597795Y-102185267D01*
X152677232Y-102264704D01*
X152677234Y-102264705D01*
X152677235Y-102264706D01*
X152780009Y-102310085D01*
X152805135Y-102313000D01*
X153694864Y-102312999D01*
X153719991Y-102310085D01*
X153822765Y-102264706D01*
X153902206Y-102185265D01*
X153947585Y-102082491D01*
X153950500Y-102057365D01*
X153950499Y-101067636D01*
X153947585Y-101042509D01*
X153924307Y-100989789D01*
X153902206Y-100939734D01*
X153822767Y-100860295D01*
X153822765Y-100860294D01*
X153719989Y-100814914D01*
X153719990Y-100814914D01*
X153694868Y-100812000D01*
X152805140Y-100812000D01*
X152805133Y-100812001D01*
X152780009Y-100814914D01*
X152780005Y-100814916D01*
X152677234Y-100860293D01*
X152597795Y-100939732D01*
X152591195Y-100949368D01*
X152589495Y-100948203D01*
X152553231Y-100991133D01*
X152485368Y-101011990D01*
X152483784Y-101012000D01*
X152303312Y-101012000D01*
X152235191Y-100991998D01*
X152219762Y-100980315D01*
X152150852Y-100919266D01*
X152150851Y-100919265D01*
X152000225Y-100840210D01*
X152000221Y-100840208D01*
X151835059Y-100799500D01*
X151835056Y-100799500D01*
X151664944Y-100799500D01*
X151664940Y-100799500D01*
X151499778Y-100840208D01*
X151499774Y-100840210D01*
X151349148Y-100919265D01*
X151349146Y-100919267D01*
X151326044Y-100939734D01*
X151280240Y-100980312D01*
X151215989Y-101010513D01*
X151196688Y-101012000D01*
X151016652Y-101012000D01*
X150948531Y-100991998D01*
X150916254Y-100962133D01*
X150844711Y-100867788D01*
X150725500Y-100777389D01*
X150586320Y-100722502D01*
X150498862Y-100712000D01*
X150498860Y-100712000D01*
X149501140Y-100712000D01*
X149501137Y-100712000D01*
X149413679Y-100722502D01*
X149274499Y-100777389D01*
X149155288Y-100867788D01*
X149064889Y-100986999D01*
X149010002Y-101126179D01*
X148999500Y-101213637D01*
X148999500Y-101786362D01*
X144890146Y-101786362D01*
X144898872Y-101778407D01*
X145027366Y-101608255D01*
X145122405Y-101417389D01*
X145180756Y-101212310D01*
X145200429Y-101000000D01*
X145180756Y-100787690D01*
X145122405Y-100582611D01*
X145027366Y-100391745D01*
X144898872Y-100221593D01*
X144877604Y-100202204D01*
X144741300Y-100077946D01*
X144741298Y-100077945D01*
X144560025Y-99965705D01*
X144560021Y-99965703D01*
X144560019Y-99965702D01*
X144419737Y-99911357D01*
X144361199Y-99888679D01*
X144308801Y-99878884D01*
X144151610Y-99849500D01*
X143938390Y-99849500D01*
X143839799Y-99867930D01*
X143728800Y-99888679D01*
X143607361Y-99935725D01*
X143529981Y-99965702D01*
X143529980Y-99965702D01*
X143529979Y-99965703D01*
X143529974Y-99965705D01*
X143348701Y-100077945D01*
X143348699Y-100077946D01*
X143191129Y-100221591D01*
X143122101Y-100312999D01*
X143062634Y-100391745D01*
X142969130Y-100579526D01*
X142967593Y-100582615D01*
X142909244Y-100787688D01*
X142909243Y-100787690D01*
X142909244Y-100787690D01*
X142900462Y-100882461D01*
X142874261Y-100948444D01*
X142816544Y-100989788D01*
X142745638Y-100993365D01*
X142684053Y-100958039D01*
X142651344Y-100895026D01*
X142649538Y-100882470D01*
X142640756Y-100787690D01*
X142582405Y-100582611D01*
X142487366Y-100391745D01*
X142358872Y-100221593D01*
X142201302Y-100077948D01*
X142115168Y-100024615D01*
X142067781Y-99971748D01*
X142055500Y-99917489D01*
X142055500Y-99764397D01*
X142057762Y-99698174D01*
X142047295Y-99655225D01*
X142046090Y-99648885D01*
X142040070Y-99605080D01*
X142032988Y-99588778D01*
X142026137Y-99568403D01*
X142021934Y-99551153D01*
X142021933Y-99551148D01*
X142000257Y-99512597D01*
X141997397Y-99506838D01*
X141987633Y-99484359D01*
X141979782Y-99466283D01*
X141979778Y-99466277D01*
X141968564Y-99452493D01*
X141956475Y-99434731D01*
X141954402Y-99431044D01*
X141947766Y-99419241D01*
X141947765Y-99419240D01*
X141947761Y-99419235D01*
X141916507Y-99387981D01*
X141912182Y-99383190D01*
X141884281Y-99348895D01*
X141884273Y-99348888D01*
X141869751Y-99338637D01*
X141853326Y-99324801D01*
X141395906Y-98867381D01*
X141380106Y-98850463D01*
X141350683Y-98818958D01*
X141350682Y-98818957D01*
X141340263Y-98812621D01*
X141312899Y-98795980D01*
X141307575Y-98792356D01*
X141272339Y-98765637D01*
X141255806Y-98759117D01*
X141236568Y-98749562D01*
X141221383Y-98740328D01*
X141221380Y-98740327D01*
X141200412Y-98734452D01*
X141178802Y-98728397D01*
X141172695Y-98726343D01*
X141131566Y-98710124D01*
X141119456Y-98708878D01*
X141113873Y-98708304D01*
X141092784Y-98704296D01*
X141075665Y-98699500D01*
X141075662Y-98699500D01*
X141031453Y-98699500D01*
X141025005Y-98699169D01*
X140981029Y-98694647D01*
X140963511Y-98697668D01*
X140942104Y-98699500D01*
X138060535Y-98699500D01*
X137992414Y-98679498D01*
X137945921Y-98625842D01*
X137935817Y-98555568D01*
X137963353Y-98495273D01*
X137962715Y-98494789D01*
X137964877Y-98491937D01*
X137965311Y-98490988D01*
X137966854Y-98489329D01*
X137967919Y-98487923D01*
X137967922Y-98487922D01*
X138057067Y-98370366D01*
X138114166Y-98328173D01*
X138157465Y-98320500D01*
X139192088Y-98320500D01*
X139242981Y-98331235D01*
X139280009Y-98347585D01*
X139305135Y-98350500D01*
X141394864Y-98350499D01*
X141419991Y-98347585D01*
X141461240Y-98329371D01*
X141531633Y-98320153D01*
X141595838Y-98350456D01*
X141619000Y-98382415D01*
X141620742Y-98381356D01*
X141625218Y-98388715D01*
X141625220Y-98388720D01*
X141625222Y-98388722D01*
X141636432Y-98402502D01*
X141648519Y-98420260D01*
X141657234Y-98435759D01*
X141688500Y-98467025D01*
X141692817Y-98471808D01*
X141720718Y-98506105D01*
X141720721Y-98506107D01*
X141720722Y-98506108D01*
X141735241Y-98516357D01*
X141751672Y-98530197D01*
X142604079Y-99382603D01*
X142649320Y-99431044D01*
X142687103Y-99454019D01*
X142692424Y-99457641D01*
X142727658Y-99484361D01*
X142744198Y-99490883D01*
X142763429Y-99500435D01*
X142778618Y-99509672D01*
X142821203Y-99521603D01*
X142827300Y-99523654D01*
X142868436Y-99539876D01*
X142886117Y-99541693D01*
X142907217Y-99545704D01*
X142924335Y-99550500D01*
X142968547Y-99550500D01*
X142974995Y-99550831D01*
X143018970Y-99555352D01*
X143018970Y-99555351D01*
X143018972Y-99555352D01*
X143029356Y-99553561D01*
X143036489Y-99552332D01*
X143057896Y-99550500D01*
X147469784Y-99550500D01*
X147537905Y-99570502D01*
X147558879Y-99587404D01*
X147979079Y-100007603D01*
X148024320Y-100056044D01*
X148062089Y-100079012D01*
X148067422Y-100082642D01*
X148088036Y-100098273D01*
X148102657Y-100109361D01*
X148119186Y-100115879D01*
X148138434Y-100125439D01*
X148153616Y-100134671D01*
X148153618Y-100134672D01*
X148196199Y-100146602D01*
X148202302Y-100148655D01*
X148243435Y-100164876D01*
X148261106Y-100166692D01*
X148282216Y-100170703D01*
X148299335Y-100175500D01*
X148343554Y-100175500D01*
X148350001Y-100175831D01*
X148393969Y-100180351D01*
X148393969Y-100180350D01*
X148393971Y-100180351D01*
X148405441Y-100178373D01*
X148411483Y-100177332D01*
X148432889Y-100175500D01*
X149030743Y-100175500D01*
X149098864Y-100195502D01*
X149131141Y-100225367D01*
X149155288Y-100257211D01*
X149228857Y-100312999D01*
X149274500Y-100347611D01*
X149413679Y-100402497D01*
X149501140Y-100413000D01*
X149501143Y-100413000D01*
X150498857Y-100413000D01*
X150498860Y-100413000D01*
X150586321Y-100402497D01*
X150725500Y-100347611D01*
X150844711Y-100257211D01*
X150935111Y-100138000D01*
X150989997Y-99998821D01*
X151000500Y-99911360D01*
X151000500Y-99338640D01*
X150989997Y-99251179D01*
X150935111Y-99112000D01*
X150901464Y-99067629D01*
X150844711Y-98992788D01*
X150725500Y-98902389D01*
X150586320Y-98847502D01*
X150498862Y-98837000D01*
X150498860Y-98837000D01*
X149501140Y-98837000D01*
X149501137Y-98837000D01*
X149413679Y-98847502D01*
X149274499Y-98902389D01*
X149155288Y-98992788D01*
X149131141Y-99024633D01*
X149074042Y-99066827D01*
X149030743Y-99074500D01*
X148655215Y-99074500D01*
X148587094Y-99054498D01*
X148566119Y-99037595D01*
X148372210Y-98843686D01*
X148145907Y-98617382D01*
X148138805Y-98609778D01*
X148100683Y-98568958D01*
X148100682Y-98568957D01*
X148086962Y-98560614D01*
X148062899Y-98545980D01*
X148057575Y-98542356D01*
X148022339Y-98515637D01*
X148005806Y-98509117D01*
X147986568Y-98499562D01*
X147971383Y-98490328D01*
X147971380Y-98490327D01*
X147950412Y-98484452D01*
X147928802Y-98478397D01*
X147922695Y-98476343D01*
X147881566Y-98460124D01*
X147869456Y-98458878D01*
X147863873Y-98458304D01*
X147842784Y-98454296D01*
X147825665Y-98449500D01*
X147825662Y-98449500D01*
X147781453Y-98449500D01*
X147775005Y-98449169D01*
X147731029Y-98444647D01*
X147713511Y-98447668D01*
X147692104Y-98449500D01*
X143280215Y-98449500D01*
X143212094Y-98429498D01*
X143191119Y-98412595D01*
X142709895Y-97931370D01*
X142675870Y-97869058D01*
X142680935Y-97798242D01*
X142695290Y-97770707D01*
X142724818Y-97727930D01*
X142785140Y-97568872D01*
X142805645Y-97400000D01*
X142805600Y-97399633D01*
X142785140Y-97231128D01*
X142724820Y-97072074D01*
X142724818Y-97072070D01*
X142628183Y-96932071D01*
X142628181Y-96932069D01*
X142500857Y-96819270D01*
X142500851Y-96819265D01*
X142350225Y-96740210D01*
X142350221Y-96740208D01*
X142185059Y-96699500D01*
X142185056Y-96699500D01*
X142014944Y-96699500D01*
X142014940Y-96699500D01*
X141849778Y-96740208D01*
X141849771Y-96740211D01*
X141835051Y-96747937D01*
X141765437Y-96761881D01*
X141699335Y-96735976D01*
X141657733Y-96678446D01*
X141650499Y-96636368D01*
X141650499Y-96505140D01*
X141650499Y-96505136D01*
X141647585Y-96480009D01*
X141628295Y-96436321D01*
X141602206Y-96377234D01*
X141522767Y-96297795D01*
X141522765Y-96297794D01*
X141457240Y-96268862D01*
X141449090Y-96265263D01*
X141394854Y-96219451D01*
X141373995Y-96151588D01*
X141393137Y-96083221D01*
X141446202Y-96036055D01*
X141449091Y-96034736D01*
X141451247Y-96033784D01*
X141522765Y-96002206D01*
X141602206Y-95922765D01*
X141647585Y-95819991D01*
X141648514Y-95811977D01*
X141676235Y-95746616D01*
X141734892Y-95706617D01*
X141773675Y-95700500D01*
X142014944Y-95700500D01*
X142057628Y-95700500D01*
X145223501Y-95700500D01*
X145291622Y-95720502D01*
X145338115Y-95774158D01*
X145349501Y-95826500D01*
X145349501Y-96944866D01*
X145352414Y-96969990D01*
X145352416Y-96969994D01*
X145397793Y-97072765D01*
X145477232Y-97152204D01*
X145477234Y-97152205D01*
X145477235Y-97152206D01*
X145580009Y-97197585D01*
X145605135Y-97200500D01*
X147694864Y-97200499D01*
X147719991Y-97197585D01*
X147822765Y-97152206D01*
X147902206Y-97072765D01*
X147947585Y-96969991D01*
X147950500Y-96944865D01*
X147950500Y-95711146D01*
X147970502Y-95643025D01*
X148024158Y-95596532D01*
X148094432Y-95586428D01*
X148135050Y-95599577D01*
X148249775Y-95659790D01*
X148249776Y-95659790D01*
X148249778Y-95659791D01*
X148393875Y-95695307D01*
X148414944Y-95700500D01*
X148414947Y-95700500D01*
X148585053Y-95700500D01*
X148585056Y-95700500D01*
X148750225Y-95659790D01*
X148814945Y-95625821D01*
X148884557Y-95611875D01*
X148950660Y-95637778D01*
X148992265Y-95695307D01*
X148999500Y-95737389D01*
X148999500Y-96268862D01*
X149010002Y-96356320D01*
X149064889Y-96495500D01*
X149155288Y-96614711D01*
X149225468Y-96667929D01*
X149274500Y-96705111D01*
X149413679Y-96759997D01*
X149501140Y-96770500D01*
X149501143Y-96770500D01*
X150498857Y-96770500D01*
X150498860Y-96770500D01*
X150586321Y-96759997D01*
X150725500Y-96705111D01*
X150844711Y-96614711D01*
X150935111Y-96495500D01*
X150989997Y-96356321D01*
X151000500Y-96268860D01*
X151000500Y-96021408D01*
X151020502Y-95953287D01*
X151074158Y-95906794D01*
X151144432Y-95896690D01*
X151209012Y-95926184D01*
X151236331Y-95959658D01*
X151254735Y-95992391D01*
X151257605Y-95998169D01*
X151275219Y-96038718D01*
X151275222Y-96038723D01*
X151286430Y-96052499D01*
X151298522Y-96070264D01*
X151307234Y-96085759D01*
X151307237Y-96085763D01*
X151338495Y-96117020D01*
X151342819Y-96121811D01*
X151367045Y-96151588D01*
X151370722Y-96156108D01*
X151385241Y-96166357D01*
X151401672Y-96180197D01*
X151577796Y-96356321D01*
X151725095Y-96503619D01*
X151759120Y-96565932D01*
X151762000Y-96592715D01*
X151762000Y-96680742D01*
X151741998Y-96748863D01*
X151712135Y-96781138D01*
X151680289Y-96805287D01*
X151589889Y-96924499D01*
X151535002Y-97063679D01*
X151524500Y-97151137D01*
X151524500Y-98148862D01*
X151535002Y-98236320D01*
X151589889Y-98375500D01*
X151680288Y-98494711D01*
X151699633Y-98509380D01*
X151741827Y-98566479D01*
X151749500Y-98609778D01*
X151749500Y-98785837D01*
X151729498Y-98853958D01*
X151712596Y-98874932D01*
X151647793Y-98939734D01*
X151602414Y-99042509D01*
X151599500Y-99067629D01*
X151599500Y-100057359D01*
X151599501Y-100057366D01*
X151602414Y-100082490D01*
X151602416Y-100082494D01*
X151647793Y-100185265D01*
X151727232Y-100264704D01*
X151727234Y-100264705D01*
X151727235Y-100264706D01*
X151830009Y-100310085D01*
X151855135Y-100313000D01*
X152744864Y-100312999D01*
X152769991Y-100310085D01*
X152872765Y-100264706D01*
X152952206Y-100185265D01*
X152997585Y-100082491D01*
X153000500Y-100057365D01*
X153000499Y-99067636D01*
X152997585Y-99042509D01*
X152952206Y-98939735D01*
X152952206Y-98939734D01*
X152887405Y-98874933D01*
X152853379Y-98812621D01*
X152850500Y-98785838D01*
X152850500Y-98628735D01*
X152870502Y-98560614D01*
X152900364Y-98528339D01*
X152944711Y-98494711D01*
X153035111Y-98375500D01*
X153089997Y-98236321D01*
X153100500Y-98148860D01*
X153100500Y-97151140D01*
X153089997Y-97063679D01*
X153035111Y-96924500D01*
X152992212Y-96867929D01*
X152944710Y-96805287D01*
X152912865Y-96781138D01*
X152870673Y-96724039D01*
X152863000Y-96680742D01*
X152863000Y-96321897D01*
X152864052Y-96291088D01*
X152865262Y-96255674D01*
X152854795Y-96212725D01*
X152853590Y-96206385D01*
X152852713Y-96200002D01*
X152847570Y-96162580D01*
X152840488Y-96146278D01*
X152833637Y-96125903D01*
X152829434Y-96108653D01*
X152829433Y-96108648D01*
X152807758Y-96070098D01*
X152804901Y-96064348D01*
X152787280Y-96023780D01*
X152776061Y-96009991D01*
X152769263Y-96000002D01*
X153294355Y-96000002D01*
X153314859Y-96168871D01*
X153375179Y-96327925D01*
X153375181Y-96327929D01*
X153471816Y-96467928D01*
X153471818Y-96467930D01*
X153600493Y-96581926D01*
X153638219Y-96642070D01*
X153637439Y-96713062D01*
X153598402Y-96772363D01*
X153593076Y-96776633D01*
X153555289Y-96805289D01*
X153555287Y-96805291D01*
X153555286Y-96805291D01*
X153464889Y-96924499D01*
X153410002Y-97063679D01*
X153399500Y-97151137D01*
X153399500Y-98148862D01*
X153410002Y-98236320D01*
X153464889Y-98375500D01*
X153551964Y-98490327D01*
X153555289Y-98494711D01*
X153599633Y-98528338D01*
X153641826Y-98585434D01*
X153649500Y-98628735D01*
X153649500Y-98785837D01*
X153629498Y-98853958D01*
X153612596Y-98874932D01*
X153547793Y-98939734D01*
X153502414Y-99042509D01*
X153499500Y-99067629D01*
X153499500Y-100057359D01*
X153499501Y-100057366D01*
X153502414Y-100082490D01*
X153502416Y-100082494D01*
X153547793Y-100185265D01*
X153627232Y-100264704D01*
X153627234Y-100264705D01*
X153627235Y-100264706D01*
X153730009Y-100310085D01*
X153755135Y-100313000D01*
X154644864Y-100312999D01*
X154669991Y-100310085D01*
X154772765Y-100264706D01*
X154852206Y-100185265D01*
X154897585Y-100082491D01*
X154900500Y-100057365D01*
X154900499Y-99067636D01*
X154897585Y-99042509D01*
X154852206Y-98939735D01*
X154852206Y-98939734D01*
X154787405Y-98874933D01*
X154753379Y-98812621D01*
X154750500Y-98785838D01*
X154750500Y-98609778D01*
X154770502Y-98541657D01*
X154800367Y-98509380D01*
X154819711Y-98494711D01*
X154837079Y-98471808D01*
X154910111Y-98375500D01*
X154964997Y-98236321D01*
X154975500Y-98148860D01*
X154975500Y-97151140D01*
X154964997Y-97063679D01*
X154910111Y-96924500D01*
X154819711Y-96805289D01*
X154819709Y-96805288D01*
X154819709Y-96805287D01*
X154800364Y-96790616D01*
X154758172Y-96733517D01*
X154750500Y-96690221D01*
X154750500Y-96209413D01*
X154750603Y-96206385D01*
X154752763Y-96143174D01*
X154742292Y-96100211D01*
X154741089Y-96093885D01*
X154735070Y-96050080D01*
X154727989Y-96033778D01*
X154721140Y-96013413D01*
X154720306Y-96009992D01*
X154716933Y-95996148D01*
X154714179Y-95991251D01*
X154698928Y-95944685D01*
X154685141Y-95831132D01*
X154685139Y-95831125D01*
X154624820Y-95672074D01*
X154624818Y-95672070D01*
X154528183Y-95532071D01*
X154528181Y-95532069D01*
X154400857Y-95419270D01*
X154400851Y-95419265D01*
X154250225Y-95340210D01*
X154250221Y-95340208D01*
X154085059Y-95299500D01*
X154085056Y-95299500D01*
X153914944Y-95299500D01*
X153914940Y-95299500D01*
X153749778Y-95340208D01*
X153749774Y-95340210D01*
X153599148Y-95419265D01*
X153599142Y-95419270D01*
X153471818Y-95532069D01*
X153471816Y-95532071D01*
X153375181Y-95672070D01*
X153375179Y-95672074D01*
X153314859Y-95831128D01*
X153294355Y-95999997D01*
X153294355Y-96000002D01*
X152769263Y-96000002D01*
X152763974Y-95992231D01*
X152763425Y-95991255D01*
X152755265Y-95976741D01*
X152724001Y-95945477D01*
X152719686Y-95940695D01*
X152691777Y-95906391D01*
X152677256Y-95896141D01*
X152660822Y-95882298D01*
X152337404Y-95558879D01*
X152303379Y-95496567D01*
X152300500Y-95469784D01*
X152300500Y-90883215D01*
X152320502Y-90815094D01*
X152374158Y-90768601D01*
X152444432Y-90758497D01*
X152509012Y-90787991D01*
X152515581Y-90794106D01*
X153264093Y-91542618D01*
X153309320Y-91591044D01*
X153340437Y-91609966D01*
X153347089Y-91614012D01*
X153352423Y-91617641D01*
X153387658Y-91644361D01*
X153404203Y-91650885D01*
X153423429Y-91660435D01*
X153438618Y-91669672D01*
X153481203Y-91681603D01*
X153487300Y-91683654D01*
X153528436Y-91699876D01*
X153546117Y-91701693D01*
X153567217Y-91705704D01*
X153584335Y-91710500D01*
X153628547Y-91710500D01*
X153634995Y-91710831D01*
X153678970Y-91715352D01*
X153678970Y-91715351D01*
X153678972Y-91715352D01*
X153689356Y-91713561D01*
X153696489Y-91712332D01*
X153717896Y-91710500D01*
X154411692Y-91710500D01*
X154479813Y-91730502D01*
X154513113Y-91764367D01*
X154514123Y-91763605D01*
X154517632Y-91768252D01*
X154517634Y-91768255D01*
X154627454Y-91913679D01*
X154646129Y-91938408D01*
X154803699Y-92082053D01*
X154803701Y-92082054D01*
X154984974Y-92194294D01*
X154984975Y-92194294D01*
X154984981Y-92194298D01*
X155183802Y-92271321D01*
X155370097Y-92306145D01*
X155433381Y-92338324D01*
X155469223Y-92399609D01*
X155466242Y-92470543D01*
X155425384Y-92528605D01*
X155370098Y-92553854D01*
X155257350Y-92574930D01*
X155183800Y-92588679D01*
X155029753Y-92648356D01*
X154984981Y-92665702D01*
X154984980Y-92665702D01*
X154984979Y-92665703D01*
X154984974Y-92665705D01*
X154803701Y-92777945D01*
X154803699Y-92777946D01*
X154646129Y-92921591D01*
X154568040Y-93024997D01*
X154517634Y-93091745D01*
X154458784Y-93209933D01*
X154422593Y-93282615D01*
X154364244Y-93487688D01*
X154348596Y-93656560D01*
X154344571Y-93700000D01*
X154347543Y-93732069D01*
X154364244Y-93912311D01*
X154422593Y-94117384D01*
X154422594Y-94117386D01*
X154422595Y-94117389D01*
X154517634Y-94308255D01*
X154624846Y-94450225D01*
X154646129Y-94478408D01*
X154803699Y-94622053D01*
X154803701Y-94622054D01*
X154984974Y-94734294D01*
X154984975Y-94734294D01*
X154984981Y-94734298D01*
X155183802Y-94811321D01*
X155393390Y-94850500D01*
X155393393Y-94850500D01*
X155606607Y-94850500D01*
X155606610Y-94850500D01*
X155816198Y-94811321D01*
X156015019Y-94734298D01*
X156196302Y-94622052D01*
X156353872Y-94478407D01*
X156482366Y-94308255D01*
X156577405Y-94117389D01*
X156635756Y-93912310D01*
X156655429Y-93700000D01*
X156635756Y-93487690D01*
X156577405Y-93282611D01*
X156482366Y-93091745D01*
X156353872Y-92921593D01*
X156219945Y-92799501D01*
X156196300Y-92777946D01*
X156196298Y-92777945D01*
X156015025Y-92665705D01*
X156015021Y-92665703D01*
X156015019Y-92665702D01*
X155816198Y-92588679D01*
X155629902Y-92553854D01*
X155566618Y-92521676D01*
X155530776Y-92460391D01*
X155533757Y-92389457D01*
X155574615Y-92331395D01*
X155629901Y-92306145D01*
X155816198Y-92271321D01*
X156015019Y-92194298D01*
X156196302Y-92082052D01*
X156353872Y-91938407D01*
X156482366Y-91768255D01*
X156577405Y-91577389D01*
X156635756Y-91372310D01*
X156655429Y-91160000D01*
X156635756Y-90947690D01*
X156577405Y-90742611D01*
X156482366Y-90551745D01*
X156353872Y-90381593D01*
X156209523Y-90250000D01*
X156196300Y-90237946D01*
X156196298Y-90237945D01*
X156015025Y-90125705D01*
X156015021Y-90125703D01*
X156015019Y-90125702D01*
X155816198Y-90048679D01*
X155629902Y-90013854D01*
X155566618Y-89981676D01*
X155530776Y-89920391D01*
X155533757Y-89849457D01*
X155574615Y-89791395D01*
X155629901Y-89766145D01*
X155816198Y-89731321D01*
X156015019Y-89654298D01*
X156196302Y-89542052D01*
X156353872Y-89398407D01*
X156482366Y-89228255D01*
X156577405Y-89037389D01*
X156635756Y-88832310D01*
X156655429Y-88620000D01*
X156635756Y-88407690D01*
X156577405Y-88202611D01*
X156482366Y-88011745D01*
X156353872Y-87841593D01*
X156199102Y-87700500D01*
X156196300Y-87697946D01*
X156196298Y-87697945D01*
X156015025Y-87585705D01*
X156015021Y-87585703D01*
X156015019Y-87585702D01*
X155816198Y-87508679D01*
X155629902Y-87473854D01*
X155566618Y-87441676D01*
X155530776Y-87380391D01*
X155533757Y-87309457D01*
X155574615Y-87251395D01*
X155629901Y-87226145D01*
X155816198Y-87191321D01*
X156015019Y-87114298D01*
X156196302Y-87002052D01*
X156353872Y-86858407D01*
X156482366Y-86688255D01*
X156577405Y-86497389D01*
X156635756Y-86292310D01*
X156655429Y-86080000D01*
X156635756Y-85867690D01*
X156577405Y-85662611D01*
X156482366Y-85471745D01*
X156353872Y-85301593D01*
X156196302Y-85157948D01*
X156196300Y-85157946D01*
X156196298Y-85157945D01*
X156015025Y-85045705D01*
X156015021Y-85045703D01*
X156015019Y-85045702D01*
X155893222Y-84998517D01*
X155816199Y-84968679D01*
X155763801Y-84958884D01*
X155606610Y-84929500D01*
X155393390Y-84929500D01*
X155267637Y-84953007D01*
X155183800Y-84968679D01*
X155029753Y-85028356D01*
X154984981Y-85045702D01*
X154984980Y-85045702D01*
X154984979Y-85045703D01*
X154984974Y-85045705D01*
X154803701Y-85157945D01*
X154803699Y-85157946D01*
X154646129Y-85301591D01*
X154586999Y-85379891D01*
X154527048Y-85459277D01*
X154470036Y-85501584D01*
X154399199Y-85506351D01*
X154337031Y-85472064D01*
X154303268Y-85409609D01*
X154300500Y-85383344D01*
X154300500Y-83009425D01*
X154301703Y-82974202D01*
X154302763Y-82943174D01*
X154292291Y-82900206D01*
X154291089Y-82893879D01*
X154285070Y-82850080D01*
X154277990Y-82833780D01*
X154271140Y-82813409D01*
X154266935Y-82796151D01*
X154266932Y-82796144D01*
X154245261Y-82757603D01*
X154242389Y-82751821D01*
X154224780Y-82711280D01*
X154224778Y-82711277D01*
X154224777Y-82711275D01*
X154213569Y-82697500D01*
X154201477Y-82679734D01*
X154192764Y-82664238D01*
X154161507Y-82632981D01*
X154157182Y-82628190D01*
X154129281Y-82593895D01*
X154129273Y-82593888D01*
X154114751Y-82583637D01*
X154098321Y-82569796D01*
X153476317Y-81947792D01*
X153447412Y-81894859D01*
X154349500Y-81894859D01*
X154349501Y-81894866D01*
X154352414Y-81919990D01*
X154352416Y-81919994D01*
X154397793Y-82022765D01*
X154477232Y-82102204D01*
X154477234Y-82102205D01*
X154477235Y-82102206D01*
X154580009Y-82147585D01*
X154605135Y-82150500D01*
X156394864Y-82150499D01*
X156419991Y-82147585D01*
X156522765Y-82102206D01*
X156602206Y-82022765D01*
X156647585Y-81919991D01*
X156650500Y-81894865D01*
X156650499Y-80105136D01*
X156647585Y-80080009D01*
X156602206Y-79977235D01*
X156602206Y-79977234D01*
X156522767Y-79897795D01*
X156522765Y-79897794D01*
X156419989Y-79852414D01*
X156419990Y-79852414D01*
X156394868Y-79849500D01*
X154605140Y-79849500D01*
X154605133Y-79849501D01*
X154580009Y-79852414D01*
X154580005Y-79852416D01*
X154477234Y-79897793D01*
X154397795Y-79977232D01*
X154397794Y-79977234D01*
X154352414Y-80080009D01*
X154349500Y-80105129D01*
X154349500Y-81894859D01*
X153447412Y-81894859D01*
X153442291Y-81885480D01*
X153440333Y-81873904D01*
X153435140Y-81831128D01*
X153415032Y-81778108D01*
X153374820Y-81672074D01*
X153374818Y-81672070D01*
X153278183Y-81532071D01*
X153278181Y-81532069D01*
X153150857Y-81419270D01*
X153150851Y-81419265D01*
X153000225Y-81340210D01*
X153000221Y-81340208D01*
X152835059Y-81299500D01*
X152835056Y-81299500D01*
X152664944Y-81299500D01*
X152664940Y-81299500D01*
X152499778Y-81340208D01*
X152499772Y-81340211D01*
X152485054Y-81347936D01*
X152415441Y-81361882D01*
X152349338Y-81335978D01*
X152307734Y-81278448D01*
X152300500Y-81236368D01*
X152300500Y-77499968D01*
X152320502Y-77431847D01*
X152374158Y-77385354D01*
X152444432Y-77375250D01*
X152502632Y-77399570D01*
X152549500Y-77435111D01*
X152688679Y-77489997D01*
X152776140Y-77500500D01*
X152776143Y-77500500D01*
X153348857Y-77500500D01*
X153348860Y-77500500D01*
X153436321Y-77489997D01*
X153575500Y-77435111D01*
X153694711Y-77344711D01*
X153785111Y-77225500D01*
X153839997Y-77086321D01*
X153850500Y-76998862D01*
X154149500Y-76998862D01*
X154160002Y-77086320D01*
X154214889Y-77225500D01*
X154305288Y-77344711D01*
X154348132Y-77377200D01*
X154424500Y-77435111D01*
X154563679Y-77489997D01*
X154651140Y-77500500D01*
X154651143Y-77500500D01*
X155223857Y-77500500D01*
X155223860Y-77500500D01*
X155311321Y-77489997D01*
X155450500Y-77435111D01*
X155569711Y-77344711D01*
X155660111Y-77225500D01*
X155660111Y-77225499D01*
X155665318Y-77218633D01*
X155668016Y-77220679D01*
X155707315Y-77182328D01*
X155776868Y-77168085D01*
X155796493Y-77171304D01*
X155914944Y-77200500D01*
X155914947Y-77200500D01*
X156085053Y-77200500D01*
X156085056Y-77200500D01*
X156250225Y-77159790D01*
X156400852Y-77080734D01*
X156528183Y-76967929D01*
X156624818Y-76827930D01*
X156629776Y-76814858D01*
X156657826Y-76740893D01*
X156685140Y-76668872D01*
X156696539Y-76574991D01*
X156705645Y-76500002D01*
X156705645Y-76499997D01*
X156685140Y-76331128D01*
X156624820Y-76172074D01*
X156624818Y-76172070D01*
X156528183Y-76032071D01*
X156528181Y-76032069D01*
X156400857Y-75919270D01*
X156400851Y-75919265D01*
X156250225Y-75840210D01*
X156250221Y-75840208D01*
X156085059Y-75799500D01*
X156085056Y-75799500D01*
X155914944Y-75799500D01*
X155914940Y-75799500D01*
X155796499Y-75828693D01*
X155725571Y-75825574D01*
X155667589Y-75784603D01*
X155665383Y-75781317D01*
X155665318Y-75781367D01*
X155569711Y-75655288D01*
X155450500Y-75564889D01*
X155311320Y-75510002D01*
X155223862Y-75499500D01*
X155223860Y-75499500D01*
X154651140Y-75499500D01*
X154651137Y-75499500D01*
X154563679Y-75510002D01*
X154424499Y-75564889D01*
X154305288Y-75655288D01*
X154214889Y-75774499D01*
X154160002Y-75913679D01*
X154149500Y-76001137D01*
X154149500Y-76998862D01*
X153850500Y-76998862D01*
X153850500Y-76998860D01*
X153850500Y-76001140D01*
X153839997Y-75913679D01*
X153785111Y-75774500D01*
X153694711Y-75655289D01*
X153622323Y-75600396D01*
X153580132Y-75543300D01*
X153575506Y-75472454D01*
X153609917Y-75410354D01*
X153622318Y-75399607D01*
X153694711Y-75344711D01*
X153785111Y-75225500D01*
X153839997Y-75086321D01*
X153850500Y-74998860D01*
X153850500Y-74001140D01*
X153839997Y-73913679D01*
X153785111Y-73774500D01*
X153751581Y-73730284D01*
X153694711Y-73655288D01*
X153575500Y-73564889D01*
X153436320Y-73510002D01*
X153348862Y-73499500D01*
X153348860Y-73499500D01*
X152776140Y-73499500D01*
X152776137Y-73499500D01*
X152688679Y-73510002D01*
X152549499Y-73564889D01*
X152430288Y-73655288D01*
X152339889Y-73774499D01*
X152285002Y-73913679D01*
X152274500Y-74001137D01*
X152274500Y-74691784D01*
X152254498Y-74759905D01*
X152200842Y-74806398D01*
X152130568Y-74816502D01*
X152065988Y-74787008D01*
X152059405Y-74780879D01*
X151680907Y-74402382D01*
X151635683Y-74353958D01*
X151635682Y-74353957D01*
X151616404Y-74342234D01*
X151597899Y-74330980D01*
X151592575Y-74327356D01*
X151557339Y-74300637D01*
X151540806Y-74294117D01*
X151521568Y-74284562D01*
X151506383Y-74275328D01*
X151506380Y-74275327D01*
X151480468Y-74268067D01*
X151463802Y-74263397D01*
X151457695Y-74261343D01*
X151416566Y-74245124D01*
X151400480Y-74243470D01*
X151398873Y-74243304D01*
X151377775Y-74239293D01*
X151371208Y-74237453D01*
X151366127Y-74236030D01*
X151305930Y-74198390D01*
X151275638Y-74134180D01*
X151284859Y-74063811D01*
X151297585Y-74034991D01*
X151300500Y-74009865D01*
X151300499Y-73020136D01*
X151297585Y-72995009D01*
X151262195Y-72914858D01*
X151252206Y-72892234D01*
X151172767Y-72812795D01*
X151172765Y-72812794D01*
X151069989Y-72767414D01*
X151069990Y-72767414D01*
X151044868Y-72764500D01*
X148955140Y-72764500D01*
X148955133Y-72764501D01*
X148930009Y-72767414D01*
X148930005Y-72767416D01*
X148827234Y-72812793D01*
X148747795Y-72892232D01*
X148747794Y-72892234D01*
X148702414Y-72995009D01*
X148699500Y-73020129D01*
X148699500Y-74009859D01*
X148699501Y-74009866D01*
X148702414Y-74034990D01*
X148702416Y-74034994D01*
X148730724Y-74099106D01*
X148739942Y-74169502D01*
X148730724Y-74200893D01*
X148702415Y-74265007D01*
X148702414Y-74265009D01*
X148699500Y-74290129D01*
X148699500Y-75236368D01*
X148679498Y-75304489D01*
X148625842Y-75350982D01*
X148555568Y-75361086D01*
X148514946Y-75347936D01*
X148500227Y-75340211D01*
X148500221Y-75340208D01*
X148335059Y-75299500D01*
X148335056Y-75299500D01*
X148164944Y-75299500D01*
X148164940Y-75299500D01*
X147999778Y-75340208D01*
X147999774Y-75340210D01*
X147849148Y-75419265D01*
X147849142Y-75419270D01*
X147721818Y-75532069D01*
X147721816Y-75532071D01*
X147625181Y-75672070D01*
X147625179Y-75672074D01*
X147564859Y-75831128D01*
X147544355Y-75999997D01*
X147544355Y-76000002D01*
X147564859Y-76168871D01*
X147625179Y-76327925D01*
X147625181Y-76327929D01*
X147721816Y-76467928D01*
X147721818Y-76467930D01*
X147792657Y-76530688D01*
X147830383Y-76590832D01*
X147829603Y-76661824D01*
X147792657Y-76719312D01*
X147721818Y-76782069D01*
X147721816Y-76782071D01*
X147625181Y-76922070D01*
X147625179Y-76922074D01*
X147564859Y-77081128D01*
X147544355Y-77249997D01*
X147544355Y-77250002D01*
X147564859Y-77418871D01*
X147625179Y-77577925D01*
X147625181Y-77577929D01*
X147721816Y-77717928D01*
X147721818Y-77717930D01*
X147836880Y-77819866D01*
X147849148Y-77830734D01*
X147999775Y-77909790D01*
X148113323Y-77937776D01*
X148174677Y-77973499D01*
X148206978Y-78036722D01*
X148199971Y-78107372D01*
X148172263Y-78149212D01*
X148137981Y-78183493D01*
X148133191Y-78187816D01*
X148098893Y-78215720D01*
X148098890Y-78215723D01*
X148088640Y-78230244D01*
X148074800Y-78246673D01*
X147717382Y-78604092D01*
X147668959Y-78649317D01*
X147668953Y-78649323D01*
X147645985Y-78687091D01*
X147642356Y-78692424D01*
X147615639Y-78727656D01*
X147609115Y-78744199D01*
X147599564Y-78763428D01*
X147590328Y-78778617D01*
X147578397Y-78821194D01*
X147576341Y-78827309D01*
X147560124Y-78868435D01*
X147560123Y-78868441D01*
X147558304Y-78886122D01*
X147554296Y-78907212D01*
X147549500Y-78924333D01*
X147549500Y-78968547D01*
X147549169Y-78974995D01*
X147544647Y-79018969D01*
X147547668Y-79036487D01*
X147549500Y-79057895D01*
X147549500Y-82859588D01*
X147529498Y-82927709D01*
X147475842Y-82974202D01*
X147405568Y-82984306D01*
X147340988Y-82954812D01*
X147339947Y-82953901D01*
X147327835Y-82943171D01*
X147300852Y-82919266D01*
X147300851Y-82919265D01*
X147150225Y-82840210D01*
X147150221Y-82840208D01*
X146985059Y-82799500D01*
X146985056Y-82799500D01*
X146814944Y-82799500D01*
X146814940Y-82799500D01*
X146649778Y-82840208D01*
X146649774Y-82840210D01*
X146499148Y-82919265D01*
X146492874Y-82923597D01*
X146491798Y-82922039D01*
X146436529Y-82948014D01*
X146417235Y-82949500D01*
X143182765Y-82949500D01*
X143114644Y-82929498D01*
X143104011Y-82921446D01*
X143100851Y-82919265D01*
X142950225Y-82840210D01*
X142950221Y-82840208D01*
X142785059Y-82799500D01*
X142785056Y-82799500D01*
X142614944Y-82799500D01*
X142614940Y-82799500D01*
X142449778Y-82840208D01*
X142449774Y-82840210D01*
X142299148Y-82919265D01*
X142299142Y-82919270D01*
X142171818Y-83032069D01*
X142171816Y-83032071D01*
X142075181Y-83172070D01*
X142075179Y-83172074D01*
X142014859Y-83331128D01*
X141994355Y-83499997D01*
X141994355Y-83500002D01*
X142014859Y-83668871D01*
X142075179Y-83827925D01*
X142075181Y-83827929D01*
X142171816Y-83967928D01*
X142171818Y-83967930D01*
X142296016Y-84077960D01*
X142299148Y-84080734D01*
X142449775Y-84159790D01*
X142449776Y-84159790D01*
X142449778Y-84159791D01*
X142592581Y-84194988D01*
X142614944Y-84200500D01*
X142614947Y-84200500D01*
X142785053Y-84200500D01*
X142785056Y-84200500D01*
X142950225Y-84159790D01*
X143100852Y-84080734D01*
X143100858Y-84080729D01*
X143107126Y-84076403D01*
X143108201Y-84077960D01*
X143163471Y-84051986D01*
X143182765Y-84050500D01*
X146417235Y-84050500D01*
X146485356Y-84070502D01*
X146495988Y-84078553D01*
X146499148Y-84080734D01*
X146649775Y-84159790D01*
X146649776Y-84159790D01*
X146649778Y-84159791D01*
X146792581Y-84194988D01*
X146814944Y-84200500D01*
X146814947Y-84200500D01*
X146985053Y-84200500D01*
X146985056Y-84200500D01*
X147150225Y-84159790D01*
X147300852Y-84080734D01*
X147339948Y-84046098D01*
X147404199Y-84015898D01*
X147474579Y-84025229D01*
X147528743Y-84071129D01*
X147549492Y-84139026D01*
X147549500Y-84140411D01*
X147549500Y-85619785D01*
X147529498Y-85687906D01*
X147512595Y-85708880D01*
X146808880Y-86412595D01*
X146746568Y-86446621D01*
X146719785Y-86449500D01*
X137682765Y-86449500D01*
X137614644Y-86429498D01*
X137604011Y-86421446D01*
X137600851Y-86419265D01*
X137450225Y-86340210D01*
X137450221Y-86340208D01*
X137285059Y-86299500D01*
X137285056Y-86299500D01*
X137114944Y-86299500D01*
X137114940Y-86299500D01*
X136949778Y-86340208D01*
X136949774Y-86340210D01*
X136799148Y-86419265D01*
X136799142Y-86419270D01*
X136671818Y-86532069D01*
X136671816Y-86532071D01*
X136575181Y-86672070D01*
X136575179Y-86672074D01*
X136514859Y-86831128D01*
X136494355Y-86999997D01*
X136494355Y-87000002D01*
X136514859Y-87168871D01*
X136575179Y-87327925D01*
X136575181Y-87327929D01*
X136671816Y-87467928D01*
X136671818Y-87467930D01*
X136796016Y-87577960D01*
X136799148Y-87580734D01*
X136949775Y-87659790D01*
X136949776Y-87659790D01*
X136949778Y-87659791D01*
X137104578Y-87697945D01*
X137114944Y-87700500D01*
X137114947Y-87700500D01*
X137285053Y-87700500D01*
X137285056Y-87700500D01*
X137450225Y-87659790D01*
X137600852Y-87580734D01*
X137600858Y-87580729D01*
X137607126Y-87576403D01*
X137608201Y-87577960D01*
X137663471Y-87551986D01*
X137682765Y-87550500D01*
X146990603Y-87550500D01*
X147056826Y-87552762D01*
X147082730Y-87546448D01*
X147099772Y-87542296D01*
X147106116Y-87541090D01*
X147111444Y-87540357D01*
X147149920Y-87535070D01*
X147166225Y-87527986D01*
X147186590Y-87521138D01*
X147203852Y-87516933D01*
X147242402Y-87495256D01*
X147248167Y-87492394D01*
X147288720Y-87474780D01*
X147302506Y-87463563D01*
X147320264Y-87451477D01*
X147335759Y-87442766D01*
X147367033Y-87411490D01*
X147371805Y-87407184D01*
X147406108Y-87379278D01*
X147416360Y-87364752D01*
X147430192Y-87348331D01*
X148482606Y-86295917D01*
X148483928Y-86294682D01*
X148487479Y-86291365D01*
X148550905Y-86259474D01*
X148621508Y-86266937D01*
X148676869Y-86311385D01*
X148699411Y-86378708D01*
X148699500Y-86383432D01*
X148699500Y-86709859D01*
X148699501Y-86709866D01*
X148702414Y-86734990D01*
X148702416Y-86734994D01*
X148730724Y-86799106D01*
X148739942Y-86869502D01*
X148730724Y-86900893D01*
X148702415Y-86965007D01*
X148702414Y-86965009D01*
X148699500Y-86990129D01*
X148699500Y-87979859D01*
X148699501Y-87979866D01*
X148702414Y-88004990D01*
X148702416Y-88004994D01*
X148730724Y-88069106D01*
X148739942Y-88139502D01*
X148730724Y-88170893D01*
X148702415Y-88235007D01*
X148702414Y-88235009D01*
X148699500Y-88260129D01*
X148699500Y-89249859D01*
X148699501Y-89249866D01*
X148703507Y-89284407D01*
X148700355Y-89284772D01*
X148699245Y-89339605D01*
X148659660Y-89398542D01*
X148594496Y-89426722D01*
X148524441Y-89415198D01*
X148489997Y-89390762D01*
X148477000Y-89377765D01*
X148460367Y-89361132D01*
X148454940Y-89354944D01*
X148433282Y-89326718D01*
X148433280Y-89326717D01*
X148433280Y-89326716D01*
X148307842Y-89230465D01*
X148307841Y-89230464D01*
X148211365Y-89190502D01*
X148161760Y-89169955D01*
X148075052Y-89158540D01*
X148010125Y-89129817D01*
X147971034Y-89070552D01*
X147965499Y-89033618D01*
X147965499Y-88710140D01*
X147965499Y-88710136D01*
X147962585Y-88685009D01*
X147933881Y-88620000D01*
X147917206Y-88582234D01*
X147837767Y-88502795D01*
X147837765Y-88502794D01*
X147734989Y-88457414D01*
X147734990Y-88457414D01*
X147709868Y-88454500D01*
X146720140Y-88454500D01*
X146720133Y-88454501D01*
X146695009Y-88457414D01*
X146695002Y-88457416D01*
X146630892Y-88485724D01*
X146560496Y-88494942D01*
X146529105Y-88485724D01*
X146464989Y-88457414D01*
X146464990Y-88457414D01*
X146439868Y-88454500D01*
X145450140Y-88454500D01*
X145450133Y-88454501D01*
X145425009Y-88457414D01*
X145425002Y-88457416D01*
X145360892Y-88485724D01*
X145290496Y-88494942D01*
X145259105Y-88485724D01*
X145194989Y-88457414D01*
X145194990Y-88457414D01*
X145169868Y-88454500D01*
X144180140Y-88454500D01*
X144180133Y-88454501D01*
X144155009Y-88457414D01*
X144155002Y-88457416D01*
X144090892Y-88485724D01*
X144020496Y-88494942D01*
X143989105Y-88485724D01*
X143924989Y-88457414D01*
X143924990Y-88457414D01*
X143899868Y-88454500D01*
X142910140Y-88454500D01*
X142910133Y-88454501D01*
X142885009Y-88457414D01*
X142885002Y-88457416D01*
X142820892Y-88485724D01*
X142750496Y-88494942D01*
X142719105Y-88485724D01*
X142654989Y-88457414D01*
X142654990Y-88457414D01*
X142629868Y-88454500D01*
X141640140Y-88454500D01*
X141640133Y-88454501D01*
X141615009Y-88457414D01*
X141615002Y-88457416D01*
X141550892Y-88485724D01*
X141480496Y-88494942D01*
X141449105Y-88485724D01*
X141384989Y-88457414D01*
X141384990Y-88457414D01*
X141359868Y-88454500D01*
X140370140Y-88454500D01*
X140370133Y-88454501D01*
X140345009Y-88457414D01*
X140345002Y-88457416D01*
X140280892Y-88485724D01*
X140210496Y-88494942D01*
X140179105Y-88485724D01*
X140114989Y-88457414D01*
X140114990Y-88457414D01*
X140089868Y-88454500D01*
X139100140Y-88454500D01*
X139100133Y-88454501D01*
X139075009Y-88457414D01*
X139075002Y-88457416D01*
X139010892Y-88485724D01*
X138940496Y-88494942D01*
X138909105Y-88485724D01*
X138844989Y-88457414D01*
X138844990Y-88457414D01*
X138819868Y-88454500D01*
X137830140Y-88454500D01*
X137830133Y-88454501D01*
X137805009Y-88457414D01*
X137805002Y-88457416D01*
X137740892Y-88485724D01*
X137670496Y-88494942D01*
X137639105Y-88485724D01*
X137574989Y-88457414D01*
X137574990Y-88457414D01*
X137549868Y-88454500D01*
X136560140Y-88454500D01*
X136560133Y-88454501D01*
X136535009Y-88457414D01*
X136535005Y-88457416D01*
X136432234Y-88502793D01*
X136352795Y-88582232D01*
X136352794Y-88582234D01*
X136307414Y-88685009D01*
X136304500Y-88710129D01*
X136304500Y-90799859D01*
X136304501Y-90799866D01*
X136307414Y-90824990D01*
X136307416Y-90824994D01*
X136352793Y-90927765D01*
X136432232Y-91007204D01*
X136432234Y-91007205D01*
X136432235Y-91007206D01*
X136535009Y-91052585D01*
X136560135Y-91055500D01*
X137549864Y-91055499D01*
X137574991Y-91052585D01*
X137639108Y-91024274D01*
X137709500Y-91015057D01*
X137740890Y-91024273D01*
X137805009Y-91052585D01*
X137805008Y-91052585D01*
X137810446Y-91053215D01*
X137830135Y-91055500D01*
X137832710Y-91055499D01*
X137833342Y-91055685D01*
X137833767Y-91055710D01*
X137833761Y-91055808D01*
X137900831Y-91075490D01*
X137947332Y-91129138D01*
X137957447Y-91199411D01*
X137950540Y-91226178D01*
X137888869Y-91388793D01*
X137868366Y-91557660D01*
X137868366Y-91557665D01*
X137888870Y-91726534D01*
X137891311Y-91732970D01*
X137899500Y-91777652D01*
X137899500Y-95997576D01*
X137879498Y-96065697D01*
X137877196Y-96069151D01*
X137875185Y-96072063D01*
X137875179Y-96072075D01*
X137814859Y-96231128D01*
X137794355Y-96399997D01*
X137794355Y-96400002D01*
X137814859Y-96568872D01*
X137814859Y-96568873D01*
X137840099Y-96635426D01*
X137845553Y-96706213D01*
X137811870Y-96768711D01*
X137749745Y-96803077D01*
X137707266Y-96805206D01*
X137618109Y-96794500D01*
X137618102Y-96794500D01*
X135381898Y-96794500D01*
X135381894Y-96794500D01*
X135293435Y-96805122D01*
X135152658Y-96860638D01*
X135152654Y-96860641D01*
X135032077Y-96952077D01*
X134940641Y-97072654D01*
X134940638Y-97072658D01*
X134933156Y-97091632D01*
X134889556Y-97147664D01*
X134845773Y-97167823D01*
X134805219Y-97177705D01*
X134798878Y-97178910D01*
X134755087Y-97184928D01*
X134755075Y-97184931D01*
X134738768Y-97192014D01*
X134718413Y-97198858D01*
X134701154Y-97203064D01*
X134701146Y-97203067D01*
X134662603Y-97224737D01*
X134656826Y-97227607D01*
X134616278Y-97245220D01*
X134602492Y-97256436D01*
X134584739Y-97268518D01*
X134569245Y-97277230D01*
X134569243Y-97277232D01*
X134537974Y-97308499D01*
X134533185Y-97312821D01*
X134498893Y-97340720D01*
X134498892Y-97340721D01*
X134488640Y-97355244D01*
X134474801Y-97371671D01*
X134204678Y-97641794D01*
X134142366Y-97675820D01*
X134071551Y-97670755D01*
X134014715Y-97628208D01*
X133991998Y-97571502D01*
X133991976Y-97571508D01*
X133991934Y-97571342D01*
X133990481Y-97567717D01*
X133989997Y-97563679D01*
X133935111Y-97424500D01*
X133871579Y-97340720D01*
X133844711Y-97305288D01*
X133725500Y-97214889D01*
X133586320Y-97160002D01*
X133498862Y-97149500D01*
X133498860Y-97149500D01*
X132501140Y-97149500D01*
X132501137Y-97149500D01*
X132413679Y-97160002D01*
X132274499Y-97214889D01*
X132155288Y-97305288D01*
X132083746Y-97399633D01*
X132026647Y-97441827D01*
X131983348Y-97449500D01*
X131782765Y-97449500D01*
X131714644Y-97429498D01*
X131704011Y-97421446D01*
X131700851Y-97419265D01*
X131550225Y-97340210D01*
X131550221Y-97340208D01*
X131385059Y-97299500D01*
X131385056Y-97299500D01*
X131214944Y-97299500D01*
X131214940Y-97299500D01*
X131049778Y-97340208D01*
X131049774Y-97340210D01*
X130899148Y-97419265D01*
X130899142Y-97419270D01*
X130771818Y-97532069D01*
X130771816Y-97532071D01*
X130675181Y-97672070D01*
X130675179Y-97672074D01*
X130614859Y-97831128D01*
X130609667Y-97873886D01*
X130581599Y-97939098D01*
X130573691Y-97947782D01*
X130570538Y-97950935D01*
X130567381Y-97954093D01*
X130552568Y-97967928D01*
X130518958Y-97999317D01*
X130518953Y-97999323D01*
X130495985Y-98037091D01*
X130492356Y-98042424D01*
X130465639Y-98077656D01*
X130459115Y-98094199D01*
X130449564Y-98113428D01*
X130440328Y-98128617D01*
X130428397Y-98171194D01*
X130426341Y-98177309D01*
X130410124Y-98218435D01*
X130410123Y-98218441D01*
X130408304Y-98236122D01*
X130404296Y-98257211D01*
X130399500Y-98274332D01*
X130399499Y-98274336D01*
X130399499Y-98318542D01*
X130399169Y-98324986D01*
X130394647Y-98368972D01*
X130397668Y-98386493D01*
X130399499Y-98407896D01*
X130399499Y-98723338D01*
X130379497Y-98791459D01*
X130362595Y-98812433D01*
X130297793Y-98877234D01*
X130252414Y-98980009D01*
X130249500Y-99005129D01*
X130249500Y-99994859D01*
X129750500Y-99994859D01*
X129750499Y-99005136D01*
X129747585Y-98980009D01*
X129726418Y-98932071D01*
X129702206Y-98877234D01*
X129622767Y-98797795D01*
X129622765Y-98797794D01*
X129519989Y-98752414D01*
X129519990Y-98752414D01*
X129494868Y-98749500D01*
X128605140Y-98749500D01*
X128605133Y-98749501D01*
X128580009Y-98752414D01*
X128580005Y-98752416D01*
X128477234Y-98797793D01*
X128477234Y-98797794D01*
X128466751Y-98808277D01*
X128404438Y-98842300D01*
X128333622Y-98837233D01*
X128306090Y-98822880D01*
X128300859Y-98819270D01*
X128300852Y-98819266D01*
X128150225Y-98740210D01*
X128150221Y-98740208D01*
X127985059Y-98699500D01*
X127985056Y-98699500D01*
X127814944Y-98699500D01*
X127814940Y-98699500D01*
X127649778Y-98740208D01*
X127649774Y-98740210D01*
X127499148Y-98819265D01*
X127499142Y-98819270D01*
X127371818Y-98932069D01*
X127371816Y-98932071D01*
X127275181Y-99072070D01*
X127275179Y-99072074D01*
X127214859Y-99231128D01*
X127194355Y-99399997D01*
X127194355Y-99400002D01*
X125525500Y-99400002D01*
X125525500Y-97500002D01*
X126544355Y-97500002D01*
X126564859Y-97668871D01*
X126625179Y-97827925D01*
X126625181Y-97827929D01*
X126721816Y-97967928D01*
X126721818Y-97967930D01*
X126846016Y-98077960D01*
X126849148Y-98080734D01*
X126999775Y-98159790D01*
X126999776Y-98159790D01*
X126999778Y-98159791D01*
X127046043Y-98171194D01*
X127164944Y-98200500D01*
X127164947Y-98200500D01*
X127335053Y-98200500D01*
X127335056Y-98200500D01*
X127500225Y-98159790D01*
X127650852Y-98080734D01*
X127650858Y-98080729D01*
X127657126Y-98076403D01*
X127658201Y-98077960D01*
X127713471Y-98051986D01*
X127732765Y-98050500D01*
X128000340Y-98050500D01*
X128051234Y-98061236D01*
X128131179Y-98096535D01*
X128156305Y-98099450D01*
X129843694Y-98099449D01*
X129868821Y-98096535D01*
X129971595Y-98051156D01*
X130051036Y-97971715D01*
X130096415Y-97868941D01*
X130099330Y-97843815D01*
X130099329Y-96200002D01*
X130794355Y-96200002D01*
X130814859Y-96368871D01*
X130875179Y-96527925D01*
X130875181Y-96527929D01*
X130971816Y-96667928D01*
X130971818Y-96667930D01*
X131096016Y-96777960D01*
X131099148Y-96780734D01*
X131249775Y-96859790D01*
X131249776Y-96859790D01*
X131249778Y-96859791D01*
X131378920Y-96891621D01*
X131414944Y-96900500D01*
X131414947Y-96900500D01*
X131585053Y-96900500D01*
X131585056Y-96900500D01*
X131746780Y-96860639D01*
X131750221Y-96859791D01*
X131750221Y-96859790D01*
X131750225Y-96859790D01*
X131900852Y-96780734D01*
X131900858Y-96780729D01*
X131907126Y-96776403D01*
X131908201Y-96777960D01*
X131963471Y-96751986D01*
X131982765Y-96750500D01*
X132186487Y-96750500D01*
X132254608Y-96770502D01*
X132262616Y-96776099D01*
X132274500Y-96785111D01*
X132413679Y-96839997D01*
X132501140Y-96850500D01*
X132501143Y-96850500D01*
X133498857Y-96850500D01*
X133498860Y-96850500D01*
X133586321Y-96839997D01*
X133725500Y-96785111D01*
X133844711Y-96694711D01*
X133935111Y-96575500D01*
X133989997Y-96436321D01*
X134000500Y-96348860D01*
X134000500Y-95776140D01*
X133989997Y-95688679D01*
X133935111Y-95549500D01*
X133874661Y-95469784D01*
X133844711Y-95430288D01*
X133725500Y-95339889D01*
X133586320Y-95285002D01*
X133498862Y-95274500D01*
X133498860Y-95274500D01*
X132501140Y-95274500D01*
X132501137Y-95274500D01*
X132413679Y-95285002D01*
X132274499Y-95339889D01*
X132155288Y-95430288D01*
X132064888Y-95549501D01*
X132060664Y-95557014D01*
X132059154Y-95556165D01*
X132021841Y-95604107D01*
X131954867Y-95627664D01*
X131889685Y-95613405D01*
X131750225Y-95540210D01*
X131750221Y-95540208D01*
X131585059Y-95499500D01*
X131585056Y-95499500D01*
X131414944Y-95499500D01*
X131414940Y-95499500D01*
X131249778Y-95540208D01*
X131249774Y-95540210D01*
X131099148Y-95619265D01*
X131099142Y-95619270D01*
X130971818Y-95732069D01*
X130971816Y-95732071D01*
X130875181Y-95872070D01*
X130875179Y-95872074D01*
X130814859Y-96031128D01*
X130794355Y-96199997D01*
X130794355Y-96200002D01*
X130099329Y-96200002D01*
X130099329Y-95455386D01*
X130096415Y-95430259D01*
X130061105Y-95350289D01*
X130051036Y-95327484D01*
X129971597Y-95248045D01*
X129971595Y-95248044D01*
X129868819Y-95202664D01*
X129868820Y-95202664D01*
X129843698Y-95199750D01*
X128156310Y-95199750D01*
X128156303Y-95199751D01*
X128131179Y-95202664D01*
X128131175Y-95202666D01*
X128028404Y-95248043D01*
X127948965Y-95327482D01*
X127948964Y-95327484D01*
X127903584Y-95430259D01*
X127900670Y-95455379D01*
X127900670Y-95455382D01*
X127900670Y-95455385D01*
X127900670Y-96200002D01*
X127900671Y-96823500D01*
X127880669Y-96891621D01*
X127827013Y-96938114D01*
X127774671Y-96949500D01*
X127732765Y-96949500D01*
X127664644Y-96929498D01*
X127654011Y-96921446D01*
X127650851Y-96919265D01*
X127500225Y-96840210D01*
X127500221Y-96840208D01*
X127335059Y-96799500D01*
X127335056Y-96799500D01*
X127164944Y-96799500D01*
X127164940Y-96799500D01*
X126999778Y-96840208D01*
X126999774Y-96840210D01*
X126849148Y-96919265D01*
X126849142Y-96919270D01*
X126721818Y-97032069D01*
X126721816Y-97032071D01*
X126625181Y-97172070D01*
X126625179Y-97172074D01*
X126564859Y-97331128D01*
X126544355Y-97499997D01*
X126544355Y-97500002D01*
X125525500Y-97500002D01*
X125525500Y-77500000D01*
X125994355Y-77500000D01*
X125999040Y-77538582D01*
X125999500Y-77546183D01*
X125999500Y-79157628D01*
X125999499Y-92976928D01*
X125999384Y-92980732D01*
X125995642Y-93042605D01*
X126006816Y-93103586D01*
X126007389Y-93107348D01*
X126014858Y-93168868D01*
X126018388Y-93178176D01*
X126024508Y-93200130D01*
X126026304Y-93209929D01*
X126026305Y-93209933D01*
X126051749Y-93266469D01*
X126053205Y-93269983D01*
X126075182Y-93327930D01*
X126080835Y-93336120D01*
X126092037Y-93355981D01*
X126096122Y-93365057D01*
X126096123Y-93365059D01*
X126134347Y-93413848D01*
X126136603Y-93416914D01*
X126171814Y-93467926D01*
X126171817Y-93467929D01*
X126218227Y-93509045D01*
X126220972Y-93511629D01*
X127310876Y-94601533D01*
X127313463Y-94604281D01*
X127354571Y-94650683D01*
X127405578Y-94685891D01*
X127408643Y-94688146D01*
X127457443Y-94726377D01*
X127457446Y-94726379D01*
X127466515Y-94730461D01*
X127486378Y-94741663D01*
X127494570Y-94747318D01*
X127552548Y-94769305D01*
X127556012Y-94770740D01*
X127612569Y-94796195D01*
X127622354Y-94797988D01*
X127644322Y-94804110D01*
X127653628Y-94807640D01*
X127715157Y-94815110D01*
X127718905Y-94815681D01*
X127779894Y-94826858D01*
X127841768Y-94823114D01*
X127845572Y-94823000D01*
X132202971Y-94823000D01*
X132266551Y-94841668D01*
X132266990Y-94840888D01*
X132270375Y-94842791D01*
X132271092Y-94843002D01*
X132272500Y-94843986D01*
X132274495Y-94845107D01*
X132274500Y-94845111D01*
X132413679Y-94899997D01*
X132501140Y-94910500D01*
X132501143Y-94910500D01*
X133498857Y-94910500D01*
X133498860Y-94910500D01*
X133578384Y-94900950D01*
X133585903Y-94900500D01*
X134585053Y-94900500D01*
X134585056Y-94900500D01*
X134622814Y-94891192D01*
X134630272Y-94889826D01*
X134668872Y-94885140D01*
X134705214Y-94871356D01*
X134712480Y-94869092D01*
X134750225Y-94859790D01*
X134784639Y-94841727D01*
X134791585Y-94838602D01*
X134809394Y-94831847D01*
X134827930Y-94824818D01*
X134859937Y-94802724D01*
X134866425Y-94798801D01*
X134900852Y-94780734D01*
X134929953Y-94754951D01*
X134935928Y-94750270D01*
X134967929Y-94728183D01*
X134993702Y-94699089D01*
X134999090Y-94693702D01*
X135007907Y-94685891D01*
X135028183Y-94667929D01*
X135050270Y-94635928D01*
X135054951Y-94629953D01*
X135080734Y-94600852D01*
X135098801Y-94566425D01*
X135102724Y-94559937D01*
X135124818Y-94527930D01*
X135131847Y-94509394D01*
X135138602Y-94491585D01*
X135141727Y-94484640D01*
X135159789Y-94450226D01*
X135159790Y-94450225D01*
X135169092Y-94412480D01*
X135171357Y-94405214D01*
X135176626Y-94391321D01*
X135185140Y-94368872D01*
X135189826Y-94330272D01*
X135191192Y-94322814D01*
X135200500Y-94285056D01*
X135200500Y-94246183D01*
X135200960Y-94238582D01*
X135205645Y-94200000D01*
X135205645Y-94199998D01*
X135200960Y-94161415D01*
X135200500Y-94153814D01*
X135200500Y-94114947D01*
X135200500Y-94114944D01*
X135191192Y-94077181D01*
X135189826Y-94069729D01*
X135185140Y-94031128D01*
X135171357Y-93994785D01*
X135169094Y-93987526D01*
X135159790Y-93949775D01*
X135141723Y-93915352D01*
X135138605Y-93908425D01*
X135124818Y-93872070D01*
X135115322Y-93858313D01*
X135102737Y-93840080D01*
X135098797Y-93833564D01*
X135092670Y-93821891D01*
X135080734Y-93799148D01*
X135078445Y-93796564D01*
X135054958Y-93770051D01*
X135050263Y-93764059D01*
X135028184Y-93732073D01*
X135028183Y-93732071D01*
X135010836Y-93716703D01*
X134973112Y-93656560D01*
X134973891Y-93585568D01*
X135012928Y-93526267D01*
X135077828Y-93497484D01*
X135109409Y-93497290D01*
X135136140Y-93500500D01*
X135136143Y-93500500D01*
X135708857Y-93500500D01*
X135708860Y-93500500D01*
X135796321Y-93489997D01*
X135935500Y-93435111D01*
X136054711Y-93344711D01*
X136145111Y-93225500D01*
X136199997Y-93086321D01*
X136210500Y-92998860D01*
X136210500Y-92001140D01*
X136199997Y-91913679D01*
X136145111Y-91774500D01*
X136114778Y-91734500D01*
X136054711Y-91655288D01*
X135935500Y-91564889D01*
X135796320Y-91510002D01*
X135708862Y-91499500D01*
X135708860Y-91499500D01*
X135136140Y-91499500D01*
X135136137Y-91499500D01*
X135048679Y-91510002D01*
X134909499Y-91564889D01*
X134790285Y-91655291D01*
X134785482Y-91660095D01*
X134723170Y-91694121D01*
X134696387Y-91697000D01*
X133969257Y-91697000D01*
X133901136Y-91676998D01*
X133868859Y-91647133D01*
X133844711Y-91615288D01*
X133725500Y-91524889D01*
X133586320Y-91470002D01*
X133498862Y-91459500D01*
X133498860Y-91459500D01*
X132501140Y-91459500D01*
X132501137Y-91459500D01*
X132413679Y-91470002D01*
X132274499Y-91524889D01*
X132155288Y-91615288D01*
X132064889Y-91734499D01*
X132010002Y-91873679D01*
X131999500Y-91961137D01*
X131999500Y-92533862D01*
X132010002Y-92621320D01*
X132064889Y-92760500D01*
X132155288Y-92879711D01*
X132245688Y-92948262D01*
X132274500Y-92970111D01*
X132413679Y-93024997D01*
X132501140Y-93035500D01*
X132501143Y-93035500D01*
X133498857Y-93035500D01*
X133498860Y-93035500D01*
X133586321Y-93024997D01*
X133725500Y-92970111D01*
X133844711Y-92879711D01*
X133868858Y-92847867D01*
X133925958Y-92805673D01*
X133969257Y-92798000D01*
X134508500Y-92798000D01*
X134576621Y-92818002D01*
X134623114Y-92871658D01*
X134634500Y-92924000D01*
X134634500Y-92998862D01*
X134645002Y-93086320D01*
X134699889Y-93225500D01*
X134764933Y-93311274D01*
X134790156Y-93377639D01*
X134775495Y-93447105D01*
X134725605Y-93497618D01*
X134656326Y-93513139D01*
X134649348Y-93512488D01*
X134630291Y-93510175D01*
X134622802Y-93508802D01*
X134585063Y-93499501D01*
X134585057Y-93499500D01*
X134585056Y-93499500D01*
X134585054Y-93499500D01*
X133899229Y-93499500D01*
X133831108Y-93479498D01*
X133823096Y-93473898D01*
X133725500Y-93399889D01*
X133586320Y-93345002D01*
X133498862Y-93334500D01*
X133498860Y-93334500D01*
X132501140Y-93334500D01*
X132501137Y-93334500D01*
X132413679Y-93345002D01*
X132312012Y-93385096D01*
X132274500Y-93399889D01*
X132274499Y-93399889D01*
X132274498Y-93399890D01*
X132266990Y-93404112D01*
X132265549Y-93401549D01*
X132212737Y-93421621D01*
X132202971Y-93422000D01*
X128164847Y-93422000D01*
X128096726Y-93401998D01*
X128075757Y-93385100D01*
X127437401Y-92746744D01*
X127403379Y-92684436D01*
X127400500Y-92657662D01*
X127400500Y-82044609D01*
X127900670Y-82044609D01*
X127900671Y-82044616D01*
X127903584Y-82069740D01*
X127903586Y-82069744D01*
X127948963Y-82172515D01*
X128028402Y-82251954D01*
X128028404Y-82251955D01*
X128028405Y-82251956D01*
X128131179Y-82297335D01*
X128156305Y-82300250D01*
X129843694Y-82300249D01*
X129868821Y-82297335D01*
X129971595Y-82251956D01*
X130051036Y-82172515D01*
X130096415Y-82069741D01*
X130099330Y-82044615D01*
X130099329Y-79656186D01*
X130096415Y-79631059D01*
X130055024Y-79537318D01*
X130045807Y-79466925D01*
X130076111Y-79402721D01*
X130081194Y-79397331D01*
X130257618Y-79220906D01*
X130268762Y-79210498D01*
X130306044Y-79175680D01*
X130329021Y-79137894D01*
X130332637Y-79132581D01*
X130359361Y-79097342D01*
X130365880Y-79080809D01*
X130375441Y-79061561D01*
X130384672Y-79046382D01*
X130396603Y-79003795D01*
X130398649Y-78997710D01*
X130414876Y-78956564D01*
X130416694Y-78938879D01*
X130420704Y-78917779D01*
X130425500Y-78900665D01*
X130425500Y-78856452D01*
X130425831Y-78850004D01*
X130430352Y-78806029D01*
X130427332Y-78788511D01*
X130425500Y-78767104D01*
X130425500Y-78469256D01*
X130445502Y-78401135D01*
X130475364Y-78368860D01*
X130507211Y-78344711D01*
X130597611Y-78225500D01*
X130652497Y-78086321D01*
X130663000Y-77998860D01*
X130663000Y-77001140D01*
X130652497Y-76913679D01*
X130597611Y-76774500D01*
X130533533Y-76690000D01*
X130507210Y-76655287D01*
X130475365Y-76631138D01*
X130433173Y-76574039D01*
X130425500Y-76530742D01*
X130425500Y-76469256D01*
X130445502Y-76401135D01*
X130475364Y-76368860D01*
X130507211Y-76344711D01*
X130597611Y-76225500D01*
X130652497Y-76086321D01*
X130652497Y-76086320D01*
X130655461Y-76078805D01*
X130658089Y-76079841D01*
X130687231Y-76030426D01*
X130711577Y-76012589D01*
X130742394Y-75995261D01*
X130748173Y-75992392D01*
X130762661Y-75986098D01*
X130788720Y-75974780D01*
X130802506Y-75963563D01*
X130820264Y-75951477D01*
X130835759Y-75942766D01*
X130867033Y-75911490D01*
X130871805Y-75907184D01*
X130906108Y-75879278D01*
X130916358Y-75864756D01*
X130930195Y-75848328D01*
X131406120Y-75372404D01*
X131468433Y-75338379D01*
X131495216Y-75335500D01*
X131597136Y-75335500D01*
X131665257Y-75355502D01*
X131711750Y-75409158D01*
X131721854Y-75479432D01*
X131712401Y-75512392D01*
X131702414Y-75535009D01*
X131699500Y-75560129D01*
X131699500Y-76549859D01*
X131699501Y-76549866D01*
X131702414Y-76574990D01*
X131702416Y-76574994D01*
X131730724Y-76639106D01*
X131739942Y-76709502D01*
X131730724Y-76740893D01*
X131702415Y-76805007D01*
X131702414Y-76805009D01*
X131699500Y-76830129D01*
X131699500Y-77819859D01*
X131699501Y-77819866D01*
X131702414Y-77844990D01*
X131702416Y-77844994D01*
X131730724Y-77909106D01*
X131739942Y-77979502D01*
X131730724Y-78010893D01*
X131702415Y-78075007D01*
X131702414Y-78075009D01*
X131699500Y-78100129D01*
X131699500Y-79089859D01*
X131699501Y-79089866D01*
X131702414Y-79114990D01*
X131702416Y-79114994D01*
X131730724Y-79179106D01*
X131739942Y-79249502D01*
X131730724Y-79280893D01*
X131702415Y-79345007D01*
X131702414Y-79345009D01*
X131699500Y-79370129D01*
X131699500Y-80359859D01*
X131699501Y-80359866D01*
X131702414Y-80384990D01*
X131702416Y-80384994D01*
X131730724Y-80449106D01*
X131739942Y-80519502D01*
X131730724Y-80550893D01*
X131702415Y-80615007D01*
X131702414Y-80615009D01*
X131699500Y-80640129D01*
X131699500Y-81629859D01*
X131699501Y-81629866D01*
X131702414Y-81654990D01*
X131702416Y-81654994D01*
X131730724Y-81719106D01*
X131739942Y-81789502D01*
X131730724Y-81820893D01*
X131702415Y-81885007D01*
X131702414Y-81885009D01*
X131699500Y-81910129D01*
X131699500Y-82899859D01*
X131699501Y-82899866D01*
X131702414Y-82924990D01*
X131702416Y-82924994D01*
X131730724Y-82989106D01*
X131739942Y-83059502D01*
X131730724Y-83090893D01*
X131702415Y-83155007D01*
X131702414Y-83155009D01*
X131699500Y-83180129D01*
X131699500Y-84169859D01*
X131699501Y-84169866D01*
X131702414Y-84194990D01*
X131702416Y-84194994D01*
X131730724Y-84259106D01*
X131739942Y-84329502D01*
X131730724Y-84360893D01*
X131702415Y-84425007D01*
X131702414Y-84425009D01*
X131699500Y-84450129D01*
X131699500Y-85439859D01*
X131699501Y-85439866D01*
X131702414Y-85464990D01*
X131702416Y-85464994D01*
X131730724Y-85529106D01*
X131739942Y-85599502D01*
X131730724Y-85630893D01*
X131702415Y-85695007D01*
X131702414Y-85695009D01*
X131699500Y-85720129D01*
X131699500Y-86709859D01*
X131699501Y-86709866D01*
X131702414Y-86734990D01*
X131702416Y-86734994D01*
X131730724Y-86799106D01*
X131739942Y-86869502D01*
X131730724Y-86900893D01*
X131702415Y-86965007D01*
X131702414Y-86965009D01*
X131699500Y-86990129D01*
X131699500Y-87979859D01*
X131699501Y-87979866D01*
X131702414Y-88004990D01*
X131702416Y-88004994D01*
X131730724Y-88069106D01*
X131739942Y-88139502D01*
X131730724Y-88170893D01*
X131702415Y-88235007D01*
X131702414Y-88235009D01*
X131699500Y-88260129D01*
X131699500Y-89249859D01*
X131699501Y-89249866D01*
X131702414Y-89274990D01*
X131702416Y-89274994D01*
X131747793Y-89377765D01*
X131827232Y-89457204D01*
X131827234Y-89457205D01*
X131827235Y-89457206D01*
X131930009Y-89502585D01*
X131955135Y-89505500D01*
X134044864Y-89505499D01*
X134069991Y-89502585D01*
X134172765Y-89457206D01*
X134252206Y-89377765D01*
X134297585Y-89274991D01*
X134300500Y-89249865D01*
X134300499Y-88260136D01*
X134297585Y-88235009D01*
X134269274Y-88170892D01*
X134260057Y-88100498D01*
X134269272Y-88069113D01*
X134297585Y-88004991D01*
X134300500Y-87979865D01*
X134300499Y-86990136D01*
X134297585Y-86965009D01*
X134269274Y-86900892D01*
X134260057Y-86830498D01*
X134269272Y-86799113D01*
X134297585Y-86734991D01*
X134300500Y-86709865D01*
X134300499Y-85720136D01*
X134297585Y-85695009D01*
X134269274Y-85630892D01*
X134260057Y-85560498D01*
X134269272Y-85529113D01*
X134297585Y-85464991D01*
X134300500Y-85439865D01*
X134300499Y-84450136D01*
X134297585Y-84425009D01*
X134269274Y-84360892D01*
X134260057Y-84290498D01*
X134269272Y-84259113D01*
X134297585Y-84194991D01*
X134300500Y-84169865D01*
X134300499Y-83180136D01*
X134297585Y-83155009D01*
X134269274Y-83090892D01*
X134260057Y-83020498D01*
X134269272Y-82989113D01*
X134297585Y-82924991D01*
X134300500Y-82899865D01*
X134300499Y-81910136D01*
X134297585Y-81885009D01*
X134269274Y-81820892D01*
X134260057Y-81750498D01*
X134269272Y-81719113D01*
X134297585Y-81654991D01*
X134300500Y-81629865D01*
X134300499Y-80640136D01*
X134297585Y-80615009D01*
X134269274Y-80550892D01*
X134260057Y-80480498D01*
X134269272Y-80449113D01*
X134297585Y-80384991D01*
X134300500Y-80359865D01*
X134300499Y-79370136D01*
X134297585Y-79345009D01*
X134269274Y-79280892D01*
X134260057Y-79210498D01*
X134269272Y-79179113D01*
X134297585Y-79114991D01*
X134300500Y-79089865D01*
X134300499Y-78100136D01*
X134297585Y-78075009D01*
X134269274Y-78010892D01*
X134260057Y-77940498D01*
X134269272Y-77909113D01*
X134297585Y-77844991D01*
X134300500Y-77819865D01*
X134300499Y-76830136D01*
X134297585Y-76805009D01*
X134269274Y-76740892D01*
X134260057Y-76670498D01*
X134269272Y-76639113D01*
X134297585Y-76574991D01*
X134300500Y-76549865D01*
X134300499Y-75560136D01*
X134297585Y-75535009D01*
X134269274Y-75470892D01*
X134260057Y-75400498D01*
X134269272Y-75369113D01*
X134297585Y-75304991D01*
X134300500Y-75279865D01*
X134300499Y-74426499D01*
X134320501Y-74358379D01*
X134374157Y-74311886D01*
X134426499Y-74300500D01*
X134985053Y-74300500D01*
X134985056Y-74300500D01*
X135022814Y-74291192D01*
X135030272Y-74289826D01*
X135068872Y-74285140D01*
X135105214Y-74271356D01*
X135112480Y-74269092D01*
X135150225Y-74259790D01*
X135184639Y-74241727D01*
X135191585Y-74238602D01*
X135210666Y-74231365D01*
X135227930Y-74224818D01*
X135259937Y-74202724D01*
X135266425Y-74198801D01*
X135300852Y-74180734D01*
X135329953Y-74154951D01*
X135335928Y-74150270D01*
X135367929Y-74128183D01*
X135393702Y-74099089D01*
X135399090Y-74093702D01*
X135407423Y-74086320D01*
X135428183Y-74067929D01*
X135450270Y-74035928D01*
X135454951Y-74029953D01*
X135480734Y-74000852D01*
X135498801Y-73966425D01*
X135502724Y-73959937D01*
X135524818Y-73927930D01*
X135531847Y-73909394D01*
X135538602Y-73891585D01*
X135541727Y-73884640D01*
X135559789Y-73850226D01*
X135559790Y-73850225D01*
X135569092Y-73812480D01*
X135571357Y-73805214D01*
X135585140Y-73768872D01*
X135589826Y-73730272D01*
X135591192Y-73722814D01*
X135600500Y-73685056D01*
X135600500Y-73646183D01*
X135600960Y-73638582D01*
X135605645Y-73600000D01*
X135605645Y-73599998D01*
X135600960Y-73561415D01*
X135600500Y-73553814D01*
X135600500Y-73514947D01*
X135600500Y-73514944D01*
X135591192Y-73477181D01*
X135589826Y-73469729D01*
X135585140Y-73431128D01*
X135571357Y-73394785D01*
X135569094Y-73387526D01*
X135559790Y-73349775D01*
X135541723Y-73315352D01*
X135538605Y-73308425D01*
X135524818Y-73272070D01*
X135515322Y-73258313D01*
X135502737Y-73240080D01*
X135498797Y-73233564D01*
X135492670Y-73221891D01*
X135480734Y-73199148D01*
X135478445Y-73196564D01*
X135454958Y-73170051D01*
X135450263Y-73164059D01*
X135428184Y-73132073D01*
X135428183Y-73132071D01*
X135399088Y-73106295D01*
X135393703Y-73100910D01*
X135367930Y-73071818D01*
X135367929Y-73071817D01*
X135335926Y-73049726D01*
X135329952Y-73045045D01*
X135300852Y-73019266D01*
X135281306Y-73009007D01*
X135266437Y-73001203D01*
X135259926Y-72997267D01*
X135227930Y-72975182D01*
X135227926Y-72975180D01*
X135227924Y-72975179D01*
X135191580Y-72961395D01*
X135184640Y-72958271D01*
X135161236Y-72945989D01*
X135150225Y-72940210D01*
X135131229Y-72935527D01*
X135112484Y-72930907D01*
X135105217Y-72928643D01*
X135068873Y-72914860D01*
X135068867Y-72914858D01*
X135030290Y-72910174D01*
X135022802Y-72908802D01*
X134985063Y-72899501D01*
X134985057Y-72899500D01*
X134985056Y-72899500D01*
X134985054Y-72899500D01*
X134311662Y-72899500D01*
X134243541Y-72879498D01*
X134222567Y-72862595D01*
X134172767Y-72812795D01*
X134172765Y-72812794D01*
X134069989Y-72767414D01*
X134069990Y-72767414D01*
X134044868Y-72764500D01*
X131955140Y-72764500D01*
X131955133Y-72764501D01*
X131930009Y-72767414D01*
X131930005Y-72767416D01*
X131847686Y-72803764D01*
X131796792Y-72814500D01*
X130690526Y-72814500D01*
X130622405Y-72794498D01*
X130590130Y-72764635D01*
X130551430Y-72713600D01*
X130507211Y-72655288D01*
X130388000Y-72564889D01*
X130248820Y-72510002D01*
X130161362Y-72499500D01*
X130161360Y-72499500D01*
X129588640Y-72499500D01*
X129588637Y-72499500D01*
X129501179Y-72510002D01*
X129361999Y-72564889D01*
X129242788Y-72655288D01*
X129152389Y-72774499D01*
X129097502Y-72913679D01*
X129087000Y-73001137D01*
X129087000Y-73998862D01*
X129097502Y-74086320D01*
X129152389Y-74225500D01*
X129242788Y-74344711D01*
X129315174Y-74399602D01*
X129357368Y-74456701D01*
X129361993Y-74527547D01*
X129327582Y-74589647D01*
X129315174Y-74600398D01*
X129242788Y-74655288D01*
X129152389Y-74774499D01*
X129097502Y-74913679D01*
X129087000Y-75001137D01*
X129087000Y-75998862D01*
X129097502Y-76086320D01*
X129152389Y-76225500D01*
X129230063Y-76327930D01*
X129242789Y-76344711D01*
X129274633Y-76368859D01*
X129316826Y-76425955D01*
X129324500Y-76469256D01*
X129324500Y-76530742D01*
X129304498Y-76598863D01*
X129274635Y-76631138D01*
X129242789Y-76655287D01*
X129152389Y-76774499D01*
X129097502Y-76913679D01*
X129087000Y-77001137D01*
X129087000Y-77998862D01*
X129097502Y-78086320D01*
X129152389Y-78225500D01*
X129242788Y-78344711D01*
X129262839Y-78359916D01*
X129274632Y-78368859D01*
X129316825Y-78425956D01*
X129324499Y-78469256D01*
X129324499Y-78544784D01*
X129304497Y-78612905D01*
X129287594Y-78633879D01*
X128617381Y-79304093D01*
X128568955Y-79349320D01*
X128565092Y-79354069D01*
X128506585Y-79394287D01*
X128467354Y-79400550D01*
X128156309Y-79400550D01*
X128156303Y-79400551D01*
X128131180Y-79403464D01*
X128131175Y-79403466D01*
X128028404Y-79448843D01*
X127948965Y-79528282D01*
X127948964Y-79528284D01*
X127903584Y-79631059D01*
X127900670Y-79656179D01*
X127900670Y-82044609D01*
X127400500Y-82044609D01*
X127400500Y-79157628D01*
X127400499Y-78586131D01*
X127420502Y-78518010D01*
X127474158Y-78471517D01*
X127544432Y-78461413D01*
X127572721Y-78468915D01*
X127603049Y-78480875D01*
X127626178Y-78489997D01*
X127626177Y-78489997D01*
X127650049Y-78492863D01*
X127713640Y-78500500D01*
X127713643Y-78500500D01*
X128286357Y-78500500D01*
X128286360Y-78500500D01*
X128373821Y-78489997D01*
X128513000Y-78435111D01*
X128632211Y-78344711D01*
X128722611Y-78225500D01*
X128777497Y-78086321D01*
X128788000Y-77998860D01*
X128788000Y-77001140D01*
X128777497Y-76913679D01*
X128722611Y-76774500D01*
X128658533Y-76690000D01*
X128632211Y-76655288D01*
X128513000Y-76564889D01*
X128373820Y-76510002D01*
X128286362Y-76499500D01*
X128286360Y-76499500D01*
X127713640Y-76499500D01*
X127713637Y-76499500D01*
X127626179Y-76510002D01*
X127486999Y-76564889D01*
X127367788Y-76655288D01*
X127296246Y-76749633D01*
X127239147Y-76791827D01*
X127195848Y-76799500D01*
X126614938Y-76799500D01*
X126577200Y-76808802D01*
X126569711Y-76810174D01*
X126531132Y-76814858D01*
X126494785Y-76828642D01*
X126487519Y-76830906D01*
X126467988Y-76835720D01*
X126449775Y-76840210D01*
X126449774Y-76840210D01*
X126449772Y-76840211D01*
X126449768Y-76840212D01*
X126415358Y-76858272D01*
X126408417Y-76861396D01*
X126372074Y-76875179D01*
X126372064Y-76875185D01*
X126340071Y-76897268D01*
X126333561Y-76901203D01*
X126316964Y-76909914D01*
X126299149Y-76919265D01*
X126299143Y-76919269D01*
X126270050Y-76945041D01*
X126264061Y-76949733D01*
X126232073Y-76971815D01*
X126232072Y-76971815D01*
X126206293Y-77000912D01*
X126200912Y-77006293D01*
X126171815Y-77032072D01*
X126171815Y-77032073D01*
X126149733Y-77064061D01*
X126145041Y-77070050D01*
X126119269Y-77099143D01*
X126119265Y-77099149D01*
X126101207Y-77133556D01*
X126097268Y-77140071D01*
X126075185Y-77172064D01*
X126075179Y-77172074D01*
X126061396Y-77208417D01*
X126058272Y-77215358D01*
X126040212Y-77249768D01*
X126040211Y-77249772D01*
X126040210Y-77249774D01*
X126040210Y-77249775D01*
X126040155Y-77250000D01*
X126030906Y-77287519D01*
X126028642Y-77294785D01*
X126014858Y-77331132D01*
X126010174Y-77369711D01*
X126008802Y-77377200D01*
X125999500Y-77414938D01*
X125999500Y-77453814D01*
X125999040Y-77461415D01*
X125994355Y-77499998D01*
X125994355Y-77500000D01*
X125525500Y-77500000D01*
X125525500Y-73002059D01*
X125525635Y-72997938D01*
X125525832Y-72994927D01*
X125542122Y-72746393D01*
X125543194Y-72738242D01*
X125591974Y-72493007D01*
X125594103Y-72485060D01*
X125674474Y-72248295D01*
X125677622Y-72240696D01*
X125788216Y-72016434D01*
X125792318Y-72009329D01*
X125931233Y-71801428D01*
X125936238Y-71794905D01*
X126101102Y-71606914D01*
X126106914Y-71601102D01*
X126294905Y-71436238D01*
X126301428Y-71431233D01*
X126509329Y-71292318D01*
X126516434Y-71288216D01*
X126740696Y-71177622D01*
X126748295Y-71174474D01*
X126985060Y-71094103D01*
X126993007Y-71091974D01*
X127238242Y-71043194D01*
X127246393Y-71042122D01*
X127497941Y-71025634D01*
X127502060Y-71025500D01*
X127508285Y-71025500D01*
X155491715Y-71025500D01*
X155497940Y-71025500D01*
X155502058Y-71025634D01*
G37*
G04 #@! TD.AperFunction*
G04 #@! TD*
M02*
