G04 #@! TF.GenerationSoftware,KiCad,Pcbnew,7.0.6*
G04 #@! TF.CreationDate,2023-11-12T09:36:55+05:30*
G04 #@! TF.ProjectId,ESP32-Miner,45535033-322d-44d6-996e-65722e6b6963,rev?*
G04 #@! TF.SameCoordinates,Original*
G04 #@! TF.FileFunction,Legend,Bot*
G04 #@! TF.FilePolarity,Positive*
%FSLAX46Y46*%
G04 Gerber Fmt 4.6, Leading zero omitted, Abs format (unit mm)*
G04 Created by KiCad (PCBNEW 7.0.6) date 2023-11-12 09:36:55*
%MOMM*%
%LPD*%
G01*
G04 APERTURE LIST*
%ADD10C,0.150000*%
%ADD11C,0.120000*%
%ADD12C,0.010000*%
G04 APERTURE END LIST*
D10*
X134183966Y-100679166D02*
X134517300Y-100912499D01*
X134183966Y-101079166D02*
X134883966Y-101079166D01*
X134883966Y-101079166D02*
X134883966Y-100812499D01*
X134883966Y-100812499D02*
X134850633Y-100745833D01*
X134850633Y-100745833D02*
X134817300Y-100712499D01*
X134817300Y-100712499D02*
X134750633Y-100679166D01*
X134750633Y-100679166D02*
X134650633Y-100679166D01*
X134650633Y-100679166D02*
X134583966Y-100712499D01*
X134583966Y-100712499D02*
X134550633Y-100745833D01*
X134550633Y-100745833D02*
X134517300Y-100812499D01*
X134517300Y-100812499D02*
X134517300Y-101079166D01*
X134650633Y-100079166D02*
X134183966Y-100079166D01*
X134917300Y-100245833D02*
X134417300Y-100412499D01*
X134417300Y-100412499D02*
X134417300Y-99979166D01*
X142083333Y-87366033D02*
X142083333Y-87866033D01*
X142083333Y-87866033D02*
X142116666Y-87966033D01*
X142116666Y-87966033D02*
X142183333Y-88032700D01*
X142183333Y-88032700D02*
X142283333Y-88066033D01*
X142283333Y-88066033D02*
X142350000Y-88066033D01*
X141750000Y-88066033D02*
X141750000Y-87366033D01*
X141750000Y-87366033D02*
X141483333Y-87366033D01*
X141483333Y-87366033D02*
X141416667Y-87399366D01*
X141416667Y-87399366D02*
X141383333Y-87432700D01*
X141383333Y-87432700D02*
X141350000Y-87499366D01*
X141350000Y-87499366D02*
X141350000Y-87599366D01*
X141350000Y-87599366D02*
X141383333Y-87666033D01*
X141383333Y-87666033D02*
X141416667Y-87699366D01*
X141416667Y-87699366D02*
X141483333Y-87732700D01*
X141483333Y-87732700D02*
X141750000Y-87732700D01*
X140683333Y-88066033D02*
X141083333Y-88066033D01*
X140883333Y-88066033D02*
X140883333Y-87366033D01*
X140883333Y-87366033D02*
X140950000Y-87466033D01*
X140950000Y-87466033D02*
X141016667Y-87532700D01*
X141016667Y-87532700D02*
X141083333Y-87566033D01*
X139133333Y-85616033D02*
X138699999Y-85616033D01*
X138699999Y-85616033D02*
X138933333Y-85882700D01*
X138933333Y-85882700D02*
X138833333Y-85882700D01*
X138833333Y-85882700D02*
X138766666Y-85916033D01*
X138766666Y-85916033D02*
X138733333Y-85949366D01*
X138733333Y-85949366D02*
X138699999Y-86016033D01*
X138699999Y-86016033D02*
X138699999Y-86182700D01*
X138699999Y-86182700D02*
X138733333Y-86249366D01*
X138733333Y-86249366D02*
X138766666Y-86282700D01*
X138766666Y-86282700D02*
X138833333Y-86316033D01*
X138833333Y-86316033D02*
X139033333Y-86316033D01*
X139033333Y-86316033D02*
X139099999Y-86282700D01*
X139099999Y-86282700D02*
X139133333Y-86249366D01*
X143899999Y-86316033D02*
X144299999Y-86316033D01*
X144099999Y-86316033D02*
X144099999Y-85616033D01*
X144099999Y-85616033D02*
X144166666Y-85716033D01*
X144166666Y-85716033D02*
X144233333Y-85782700D01*
X144233333Y-85782700D02*
X144299999Y-85816033D01*
X148816033Y-100445833D02*
X148482700Y-100212500D01*
X148816033Y-100045833D02*
X148116033Y-100045833D01*
X148116033Y-100045833D02*
X148116033Y-100312500D01*
X148116033Y-100312500D02*
X148149366Y-100379167D01*
X148149366Y-100379167D02*
X148182700Y-100412500D01*
X148182700Y-100412500D02*
X148249366Y-100445833D01*
X148249366Y-100445833D02*
X148349366Y-100445833D01*
X148349366Y-100445833D02*
X148416033Y-100412500D01*
X148416033Y-100412500D02*
X148449366Y-100379167D01*
X148449366Y-100379167D02*
X148482700Y-100312500D01*
X148482700Y-100312500D02*
X148482700Y-100045833D01*
X148116033Y-100679167D02*
X148116033Y-101112500D01*
X148116033Y-101112500D02*
X148382700Y-100879167D01*
X148382700Y-100879167D02*
X148382700Y-100979167D01*
X148382700Y-100979167D02*
X148416033Y-101045833D01*
X148416033Y-101045833D02*
X148449366Y-101079167D01*
X148449366Y-101079167D02*
X148516033Y-101112500D01*
X148516033Y-101112500D02*
X148682700Y-101112500D01*
X148682700Y-101112500D02*
X148749366Y-101079167D01*
X148749366Y-101079167D02*
X148782700Y-101045833D01*
X148782700Y-101045833D02*
X148816033Y-100979167D01*
X148816033Y-100979167D02*
X148816033Y-100779167D01*
X148816033Y-100779167D02*
X148782700Y-100712500D01*
X148782700Y-100712500D02*
X148749366Y-100679167D01*
D11*
G04 #@! TO.C,R4*
X132290000Y-100821078D02*
X132290000Y-100303922D01*
X133710000Y-100821078D02*
X133710000Y-100303922D01*
G04 #@! TO.C,JP1*
X143550000Y-86300000D02*
X143550000Y-85700000D01*
X142900000Y-85000000D02*
X140100000Y-85000000D01*
X140100000Y-87000000D02*
X142900000Y-87000000D01*
X139450000Y-85700000D02*
X139450000Y-86300000D01*
X142850000Y-87000000D02*
G75*
G03*
X143550000Y-86300000I1J699999D01*
G01*
X143550000Y-85700000D02*
G75*
G03*
X142850000Y-85000000I-699999J1D01*
G01*
X139450000Y-86300000D02*
G75*
G03*
X140150000Y-87000000I700000J0D01*
G01*
X140150000Y-85000000D02*
G75*
G03*
X139450000Y-85700000I0J-700000D01*
G01*
G04 #@! TO.C,R3*
X149290000Y-100821078D02*
X149290000Y-100303922D01*
X150710000Y-100821078D02*
X150710000Y-100303922D01*
G04 #@! TO.C,G\u002A\u002A\u002A*
D12*
X147481889Y-73855556D02*
X147284333Y-73855556D01*
X147284333Y-72853667D01*
X147481889Y-72853667D01*
X147481889Y-73855556D01*
G36*
X147481889Y-73855556D02*
G01*
X147284333Y-73855556D01*
X147284333Y-72853667D01*
X147481889Y-72853667D01*
X147481889Y-73855556D01*
G37*
X155821555Y-73855556D02*
X154918444Y-73855556D01*
X154918444Y-73658000D01*
X155609889Y-73658000D01*
X155609889Y-73234667D01*
X154989000Y-73234667D01*
X154989000Y-73037112D01*
X155609889Y-73037112D01*
X155609889Y-72627889D01*
X154932555Y-72627889D01*
X154932555Y-72430334D01*
X155821555Y-72430334D01*
X155821555Y-73855556D01*
G36*
X155821555Y-73855556D02*
G01*
X154918444Y-73855556D01*
X154918444Y-73658000D01*
X155609889Y-73658000D01*
X155609889Y-73234667D01*
X154989000Y-73234667D01*
X154989000Y-73037112D01*
X155609889Y-73037112D01*
X155609889Y-72627889D01*
X154932555Y-72627889D01*
X154932555Y-72430334D01*
X155821555Y-72430334D01*
X155821555Y-73855556D01*
G37*
X147446887Y-72454342D02*
X147490838Y-72488757D01*
X147516598Y-72538926D01*
X147519141Y-72555802D01*
X147513491Y-72606806D01*
X147493439Y-72656368D01*
X147463558Y-72691346D01*
X147457728Y-72694862D01*
X147419998Y-72707462D01*
X147374840Y-72712556D01*
X147339965Y-72708969D01*
X147287879Y-72685146D01*
X147254054Y-72641915D01*
X147242000Y-72582704D01*
X147242030Y-72577903D01*
X147250186Y-72518749D01*
X147275267Y-72478150D01*
X147320866Y-72450067D01*
X147332790Y-72445660D01*
X147391839Y-72438903D01*
X147446887Y-72454342D01*
G36*
X147446887Y-72454342D02*
G01*
X147490838Y-72488757D01*
X147516598Y-72538926D01*
X147519141Y-72555802D01*
X147513491Y-72606806D01*
X147493439Y-72656368D01*
X147463558Y-72691346D01*
X147457728Y-72694862D01*
X147419998Y-72707462D01*
X147374840Y-72712556D01*
X147339965Y-72708969D01*
X147287879Y-72685146D01*
X147254054Y-72641915D01*
X147242000Y-72582704D01*
X147242030Y-72577903D01*
X147250186Y-72518749D01*
X147275267Y-72478150D01*
X147320866Y-72450067D01*
X147332790Y-72445660D01*
X147391839Y-72438903D01*
X147446887Y-72454342D01*
G37*
X141155835Y-73562443D02*
X141189519Y-73576395D01*
X141225022Y-73607200D01*
X141244648Y-73628449D01*
X141266863Y-73665393D01*
X141273000Y-73706679D01*
X141272994Y-73708314D01*
X141261477Y-73774482D01*
X141230520Y-73828290D01*
X141183892Y-73863124D01*
X141137924Y-73879139D01*
X141093532Y-73880588D01*
X141042598Y-73864537D01*
X140994487Y-73833345D01*
X140960222Y-73781231D01*
X140948444Y-73713530D01*
X140950925Y-73679524D01*
X140964834Y-73644265D01*
X140996422Y-73607200D01*
X141031179Y-73576895D01*
X141064740Y-73562621D01*
X141110722Y-73559223D01*
X141155835Y-73562443D01*
G36*
X141155835Y-73562443D02*
G01*
X141189519Y-73576395D01*
X141225022Y-73607200D01*
X141244648Y-73628449D01*
X141266863Y-73665393D01*
X141273000Y-73706679D01*
X141272994Y-73708314D01*
X141261477Y-73774482D01*
X141230520Y-73828290D01*
X141183892Y-73863124D01*
X141137924Y-73879139D01*
X141093532Y-73880588D01*
X141042598Y-73864537D01*
X140994487Y-73833345D01*
X140960222Y-73781231D01*
X140948444Y-73713530D01*
X140950925Y-73679524D01*
X140964834Y-73644265D01*
X140996422Y-73607200D01*
X141031179Y-73576895D01*
X141064740Y-73562621D01*
X141110722Y-73559223D01*
X141155835Y-73562443D01*
G37*
X144077097Y-72854367D02*
X144158433Y-72865998D01*
X144220063Y-72893068D01*
X144265828Y-72937036D01*
X144271733Y-72944778D01*
X144294536Y-72970349D01*
X144309542Y-72980667D01*
X144312964Y-72977758D01*
X144318723Y-72955044D01*
X144321000Y-72917167D01*
X144321000Y-72853667D01*
X144518555Y-72853667D01*
X144518555Y-73855556D01*
X144321000Y-73855556D01*
X144320978Y-73527473D01*
X144320977Y-73522014D01*
X144320704Y-73415702D01*
X144319768Y-73333563D01*
X144317916Y-73271727D01*
X144314894Y-73226323D01*
X144310451Y-73193481D01*
X144304331Y-73169330D01*
X144296283Y-73150000D01*
X144273442Y-73115985D01*
X144218202Y-73072942D01*
X144142841Y-73046263D01*
X144049899Y-73037112D01*
X143954111Y-73037112D01*
X143954111Y-72853667D01*
X144046286Y-72853667D01*
X144077097Y-72854367D01*
G36*
X144077097Y-72854367D02*
G01*
X144158433Y-72865998D01*
X144220063Y-72893068D01*
X144265828Y-72937036D01*
X144271733Y-72944778D01*
X144294536Y-72970349D01*
X144309542Y-72980667D01*
X144312964Y-72977758D01*
X144318723Y-72955044D01*
X144321000Y-72917167D01*
X144321000Y-72853667D01*
X144518555Y-72853667D01*
X144518555Y-73855556D01*
X144321000Y-73855556D01*
X144320978Y-73527473D01*
X144320977Y-73522014D01*
X144320704Y-73415702D01*
X144319768Y-73333563D01*
X144317916Y-73271727D01*
X144314894Y-73226323D01*
X144310451Y-73193481D01*
X144304331Y-73169330D01*
X144296283Y-73150000D01*
X144273442Y-73115985D01*
X144218202Y-73072942D01*
X144142841Y-73046263D01*
X144049899Y-73037112D01*
X143954111Y-73037112D01*
X143954111Y-72853667D01*
X144046286Y-72853667D01*
X144077097Y-72854367D01*
G37*
X142077272Y-72740655D02*
X142109775Y-72805769D01*
X142149401Y-72885627D01*
X142183208Y-72954302D01*
X142209480Y-73008287D01*
X142226501Y-73044074D01*
X142232555Y-73058155D01*
X142232004Y-73058884D01*
X142214236Y-73062160D01*
X142176475Y-73064464D01*
X142125583Y-73065334D01*
X142018611Y-73065334D01*
X141903910Y-72825445D01*
X141902882Y-72823297D01*
X141866043Y-72748283D01*
X141832238Y-72683037D01*
X141803663Y-72631524D01*
X141782516Y-72597709D01*
X141770993Y-72585556D01*
X141770842Y-72585560D01*
X141766408Y-72590855D01*
X141762721Y-72607563D01*
X141759721Y-72637784D01*
X141757349Y-72683620D01*
X141755542Y-72747172D01*
X141754242Y-72830540D01*
X141753388Y-72935826D01*
X141752920Y-73065131D01*
X141752778Y-73220556D01*
X141752778Y-73855556D01*
X141541111Y-73855556D01*
X141541111Y-72430334D01*
X141921988Y-72430334D01*
X142077272Y-72740655D01*
G36*
X142077272Y-72740655D02*
G01*
X142109775Y-72805769D01*
X142149401Y-72885627D01*
X142183208Y-72954302D01*
X142209480Y-73008287D01*
X142226501Y-73044074D01*
X142232555Y-73058155D01*
X142232004Y-73058884D01*
X142214236Y-73062160D01*
X142176475Y-73064464D01*
X142125583Y-73065334D01*
X142018611Y-73065334D01*
X141903910Y-72825445D01*
X141902882Y-72823297D01*
X141866043Y-72748283D01*
X141832238Y-72683037D01*
X141803663Y-72631524D01*
X141782516Y-72597709D01*
X141770993Y-72585556D01*
X141770842Y-72585560D01*
X141766408Y-72590855D01*
X141762721Y-72607563D01*
X141759721Y-72637784D01*
X141757349Y-72683620D01*
X141755542Y-72747172D01*
X141754242Y-72830540D01*
X141753388Y-72935826D01*
X141752920Y-73065131D01*
X141752778Y-73220556D01*
X141752778Y-73855556D01*
X141541111Y-73855556D01*
X141541111Y-72430334D01*
X141921988Y-72430334D01*
X142077272Y-72740655D01*
G37*
X153450889Y-73855556D02*
X153239222Y-73855556D01*
X153239222Y-73308015D01*
X152995805Y-73302706D01*
X152909308Y-73300470D01*
X152838484Y-73297478D01*
X152786105Y-73293331D01*
X152747097Y-73287460D01*
X152716383Y-73279294D01*
X152688889Y-73268264D01*
X152662453Y-73255184D01*
X152574021Y-73193438D01*
X152507706Y-73114954D01*
X152464310Y-73021317D01*
X152444634Y-72914112D01*
X152446116Y-72877661D01*
X152660719Y-72877661D01*
X152661885Y-72908640D01*
X152677876Y-72981658D01*
X152714101Y-73037274D01*
X152772440Y-73078876D01*
X152786780Y-73085729D01*
X152813536Y-73095276D01*
X152846019Y-73101625D01*
X152889852Y-73105394D01*
X152950655Y-73107202D01*
X153034049Y-73107667D01*
X153239222Y-73107667D01*
X153239222Y-72627889D01*
X153050828Y-72627889D01*
X153016261Y-72628035D01*
X152926113Y-72630607D01*
X152857620Y-72637122D01*
X152805917Y-72648529D01*
X152766135Y-72665777D01*
X152733409Y-72689816D01*
X152692353Y-72738108D01*
X152668145Y-72799166D01*
X152660719Y-72877661D01*
X152446116Y-72877661D01*
X152449481Y-72794925D01*
X152451213Y-72783419D01*
X152480818Y-72678683D01*
X152532638Y-72591111D01*
X152606078Y-72521471D01*
X152700541Y-72470534D01*
X152716790Y-72464359D01*
X152744191Y-72455591D01*
X152774395Y-72448902D01*
X152811641Y-72443911D01*
X152860163Y-72440239D01*
X152924197Y-72437506D01*
X153007981Y-72435334D01*
X153115750Y-72433342D01*
X153450889Y-72427732D01*
X153450889Y-72627889D01*
X153450889Y-73855556D01*
G36*
X153450889Y-73855556D02*
G01*
X153239222Y-73855556D01*
X153239222Y-73308015D01*
X152995805Y-73302706D01*
X152909308Y-73300470D01*
X152838484Y-73297478D01*
X152786105Y-73293331D01*
X152747097Y-73287460D01*
X152716383Y-73279294D01*
X152688889Y-73268264D01*
X152662453Y-73255184D01*
X152574021Y-73193438D01*
X152507706Y-73114954D01*
X152464310Y-73021317D01*
X152444634Y-72914112D01*
X152446116Y-72877661D01*
X152660719Y-72877661D01*
X152661885Y-72908640D01*
X152677876Y-72981658D01*
X152714101Y-73037274D01*
X152772440Y-73078876D01*
X152786780Y-73085729D01*
X152813536Y-73095276D01*
X152846019Y-73101625D01*
X152889852Y-73105394D01*
X152950655Y-73107202D01*
X153034049Y-73107667D01*
X153239222Y-73107667D01*
X153239222Y-72627889D01*
X153050828Y-72627889D01*
X153016261Y-72628035D01*
X152926113Y-72630607D01*
X152857620Y-72637122D01*
X152805917Y-72648529D01*
X152766135Y-72665777D01*
X152733409Y-72689816D01*
X152692353Y-72738108D01*
X152668145Y-72799166D01*
X152660719Y-72877661D01*
X152446116Y-72877661D01*
X152449481Y-72794925D01*
X152451213Y-72783419D01*
X152480818Y-72678683D01*
X152532638Y-72591111D01*
X152606078Y-72521471D01*
X152700541Y-72470534D01*
X152716790Y-72464359D01*
X152744191Y-72455591D01*
X152774395Y-72448902D01*
X152811641Y-72443911D01*
X152860163Y-72440239D01*
X152924197Y-72437506D01*
X153007981Y-72435334D01*
X153115750Y-72433342D01*
X153450889Y-72427732D01*
X153450889Y-72627889D01*
X153450889Y-73855556D01*
G37*
X142581439Y-72984195D02*
X142583332Y-72990265D01*
X142601248Y-73047782D01*
X142625220Y-73124793D01*
X142653210Y-73214751D01*
X142683181Y-73311106D01*
X142713095Y-73407312D01*
X142723982Y-73442140D01*
X142755418Y-73539821D01*
X142780558Y-73612605D01*
X142800104Y-73662324D01*
X142814758Y-73690812D01*
X142825222Y-73699901D01*
X142827996Y-73699084D01*
X142839657Y-73684305D01*
X142855720Y-73649570D01*
X142876889Y-73593048D01*
X142903864Y-73512906D01*
X142937349Y-73407312D01*
X142941420Y-73394217D01*
X142971463Y-73297600D01*
X143001281Y-73201741D01*
X143028836Y-73113188D01*
X143052090Y-73038490D01*
X143069005Y-72984195D01*
X143109701Y-72853667D01*
X143214406Y-72853667D01*
X143223316Y-72853705D01*
X143271936Y-72855418D01*
X143306233Y-72859167D01*
X143319261Y-72864250D01*
X143319260Y-72864302D01*
X143314797Y-72880131D01*
X143302342Y-72919606D01*
X143282892Y-72979686D01*
X143257444Y-73057327D01*
X143226994Y-73149487D01*
X143192542Y-73253123D01*
X143155082Y-73365195D01*
X142990753Y-73855556D01*
X142662451Y-73855556D01*
X142496571Y-73365195D01*
X142495702Y-73362624D01*
X142457968Y-73250761D01*
X142423297Y-73147390D01*
X142392691Y-73055550D01*
X142367156Y-72978278D01*
X142347696Y-72918612D01*
X142335313Y-72879591D01*
X142331013Y-72864250D01*
X142331416Y-72863353D01*
X142348500Y-72858439D01*
X142385695Y-72854977D01*
X142436038Y-72853667D01*
X142540743Y-72853667D01*
X142581439Y-72984195D01*
G36*
X142581439Y-72984195D02*
G01*
X142583332Y-72990265D01*
X142601248Y-73047782D01*
X142625220Y-73124793D01*
X142653210Y-73214751D01*
X142683181Y-73311106D01*
X142713095Y-73407312D01*
X142723982Y-73442140D01*
X142755418Y-73539821D01*
X142780558Y-73612605D01*
X142800104Y-73662324D01*
X142814758Y-73690812D01*
X142825222Y-73699901D01*
X142827996Y-73699084D01*
X142839657Y-73684305D01*
X142855720Y-73649570D01*
X142876889Y-73593048D01*
X142903864Y-73512906D01*
X142937349Y-73407312D01*
X142941420Y-73394217D01*
X142971463Y-73297600D01*
X143001281Y-73201741D01*
X143028836Y-73113188D01*
X143052090Y-73038490D01*
X143069005Y-72984195D01*
X143109701Y-72853667D01*
X143214406Y-72853667D01*
X143223316Y-72853705D01*
X143271936Y-72855418D01*
X143306233Y-72859167D01*
X143319261Y-72864250D01*
X143319260Y-72864302D01*
X143314797Y-72880131D01*
X143302342Y-72919606D01*
X143282892Y-72979686D01*
X143257444Y-73057327D01*
X143226994Y-73149487D01*
X143192542Y-73253123D01*
X143155082Y-73365195D01*
X142990753Y-73855556D01*
X142662451Y-73855556D01*
X142496571Y-73365195D01*
X142495702Y-73362624D01*
X142457968Y-73250761D01*
X142423297Y-73147390D01*
X142392691Y-73055550D01*
X142367156Y-72978278D01*
X142347696Y-72918612D01*
X142335313Y-72879591D01*
X142331013Y-72864250D01*
X142331416Y-72863353D01*
X142348500Y-72858439D01*
X142385695Y-72854977D01*
X142436038Y-72853667D01*
X142540743Y-72853667D01*
X142581439Y-72984195D01*
G37*
X146479573Y-72848849D02*
X146542719Y-72856979D01*
X146592163Y-72874696D01*
X146635945Y-72905160D01*
X146682107Y-72951531D01*
X146703716Y-72974171D01*
X146731438Y-72999170D01*
X146748074Y-73008889D01*
X146753897Y-73001971D01*
X146759896Y-72973781D01*
X146762222Y-72931278D01*
X146762222Y-72853667D01*
X146959778Y-72853667D01*
X146959778Y-73855556D01*
X146764608Y-73855556D01*
X146759523Y-73548639D01*
X146757558Y-73451306D01*
X146754246Y-73357793D01*
X146749107Y-73285034D01*
X146741327Y-73228968D01*
X146730089Y-73185534D01*
X146714578Y-73150670D01*
X146693978Y-73120314D01*
X146667473Y-73090405D01*
X146621674Y-73054390D01*
X146549779Y-73024853D01*
X146470514Y-73014690D01*
X146391982Y-73024715D01*
X146322284Y-73055741D01*
X146305805Y-73067164D01*
X146281048Y-73087797D01*
X146262000Y-73111553D01*
X146247920Y-73142015D01*
X146238063Y-73182771D01*
X146231687Y-73237403D01*
X146228050Y-73309499D01*
X146226409Y-73402642D01*
X146226022Y-73520417D01*
X146226000Y-73855556D01*
X146011877Y-73855556D01*
X146017042Y-73492195D01*
X146017240Y-73478385D01*
X146019181Y-73361289D01*
X146021757Y-73268189D01*
X146025726Y-73195261D01*
X146031848Y-73138678D01*
X146040884Y-73094617D01*
X146053594Y-73059253D01*
X146070736Y-73028761D01*
X146093072Y-72999315D01*
X146121361Y-72967092D01*
X146145823Y-72941250D01*
X146200831Y-72894869D01*
X146258927Y-72865898D01*
X146328141Y-72851074D01*
X146416500Y-72847132D01*
X146479573Y-72848849D01*
G36*
X146479573Y-72848849D02*
G01*
X146542719Y-72856979D01*
X146592163Y-72874696D01*
X146635945Y-72905160D01*
X146682107Y-72951531D01*
X146703716Y-72974171D01*
X146731438Y-72999170D01*
X146748074Y-73008889D01*
X146753897Y-73001971D01*
X146759896Y-72973781D01*
X146762222Y-72931278D01*
X146762222Y-72853667D01*
X146959778Y-72853667D01*
X146959778Y-73855556D01*
X146764608Y-73855556D01*
X146759523Y-73548639D01*
X146757558Y-73451306D01*
X146754246Y-73357793D01*
X146749107Y-73285034D01*
X146741327Y-73228968D01*
X146730089Y-73185534D01*
X146714578Y-73150670D01*
X146693978Y-73120314D01*
X146667473Y-73090405D01*
X146621674Y-73054390D01*
X146549779Y-73024853D01*
X146470514Y-73014690D01*
X146391982Y-73024715D01*
X146322284Y-73055741D01*
X146305805Y-73067164D01*
X146281048Y-73087797D01*
X146262000Y-73111553D01*
X146247920Y-73142015D01*
X146238063Y-73182771D01*
X146231687Y-73237403D01*
X146228050Y-73309499D01*
X146226409Y-73402642D01*
X146226022Y-73520417D01*
X146226000Y-73855556D01*
X146011877Y-73855556D01*
X146017042Y-73492195D01*
X146017240Y-73478385D01*
X146019181Y-73361289D01*
X146021757Y-73268189D01*
X146025726Y-73195261D01*
X146031848Y-73138678D01*
X146040884Y-73094617D01*
X146053594Y-73059253D01*
X146070736Y-73028761D01*
X146093072Y-72999315D01*
X146121361Y-72967092D01*
X146145823Y-72941250D01*
X146200831Y-72894869D01*
X146258927Y-72865898D01*
X146328141Y-72851074D01*
X146416500Y-72847132D01*
X146479573Y-72848849D01*
G37*
X145759545Y-73350953D02*
X145750443Y-73468039D01*
X145721152Y-73578602D01*
X145671627Y-73676088D01*
X145656694Y-73696621D01*
X145586999Y-73766973D01*
X145500956Y-73824286D01*
X145407555Y-73862224D01*
X145385222Y-73867612D01*
X145299865Y-73877769D01*
X145206887Y-73876308D01*
X145117670Y-73863887D01*
X145043596Y-73841165D01*
X145038492Y-73838838D01*
X144980749Y-73804236D01*
X144921459Y-73756601D01*
X144869744Y-73704075D01*
X144834729Y-73654797D01*
X144830112Y-73645896D01*
X144823555Y-73627571D01*
X144829267Y-73613554D01*
X144851558Y-73598171D01*
X144894734Y-73575745D01*
X144974968Y-73535174D01*
X145018400Y-73591620D01*
X145034028Y-73610777D01*
X145092647Y-73662662D01*
X145160822Y-73691374D01*
X145245057Y-73700024D01*
X145334001Y-73689795D01*
X145413000Y-73660307D01*
X145473910Y-73613808D01*
X145484958Y-73600564D01*
X145516605Y-73548632D01*
X145539714Y-73490659D01*
X145548666Y-73439731D01*
X145548666Y-73404000D01*
X144783127Y-73404000D01*
X144789318Y-73286056D01*
X144793104Y-73248778D01*
X144986497Y-73248778D01*
X145551726Y-73248778D01*
X145542282Y-73209973D01*
X145532299Y-73178255D01*
X145491230Y-73108783D01*
X145430410Y-73055343D01*
X145354072Y-73021017D01*
X145266444Y-73008889D01*
X145250396Y-73009213D01*
X145162087Y-73024523D01*
X145089721Y-73061704D01*
X145035361Y-73119302D01*
X145001072Y-73195862D01*
X144986497Y-73248778D01*
X144793104Y-73248778D01*
X144796529Y-73215049D01*
X144823681Y-73112984D01*
X144871770Y-73025286D01*
X144943019Y-72947053D01*
X144992251Y-72907781D01*
X145072990Y-72864405D01*
X145164574Y-72840579D01*
X145273500Y-72834082D01*
X145298403Y-72834761D01*
X145414857Y-72850387D01*
X145513763Y-72887096D01*
X145597236Y-72945927D01*
X145667388Y-73027921D01*
X145717347Y-73123428D01*
X145748498Y-73233898D01*
X145749903Y-73248778D01*
X145759545Y-73350953D01*
G36*
X145759545Y-73350953D02*
G01*
X145750443Y-73468039D01*
X145721152Y-73578602D01*
X145671627Y-73676088D01*
X145656694Y-73696621D01*
X145586999Y-73766973D01*
X145500956Y-73824286D01*
X145407555Y-73862224D01*
X145385222Y-73867612D01*
X145299865Y-73877769D01*
X145206887Y-73876308D01*
X145117670Y-73863887D01*
X145043596Y-73841165D01*
X145038492Y-73838838D01*
X144980749Y-73804236D01*
X144921459Y-73756601D01*
X144869744Y-73704075D01*
X144834729Y-73654797D01*
X144830112Y-73645896D01*
X144823555Y-73627571D01*
X144829267Y-73613554D01*
X144851558Y-73598171D01*
X144894734Y-73575745D01*
X144974968Y-73535174D01*
X145018400Y-73591620D01*
X145034028Y-73610777D01*
X145092647Y-73662662D01*
X145160822Y-73691374D01*
X145245057Y-73700024D01*
X145334001Y-73689795D01*
X145413000Y-73660307D01*
X145473910Y-73613808D01*
X145484958Y-73600564D01*
X145516605Y-73548632D01*
X145539714Y-73490659D01*
X145548666Y-73439731D01*
X145548666Y-73404000D01*
X144783127Y-73404000D01*
X144789318Y-73286056D01*
X144793104Y-73248778D01*
X144986497Y-73248778D01*
X145551726Y-73248778D01*
X145542282Y-73209973D01*
X145532299Y-73178255D01*
X145491230Y-73108783D01*
X145430410Y-73055343D01*
X145354072Y-73021017D01*
X145266444Y-73008889D01*
X145250396Y-73009213D01*
X145162087Y-73024523D01*
X145089721Y-73061704D01*
X145035361Y-73119302D01*
X145001072Y-73195862D01*
X144986497Y-73248778D01*
X144793104Y-73248778D01*
X144796529Y-73215049D01*
X144823681Y-73112984D01*
X144871770Y-73025286D01*
X144943019Y-72947053D01*
X144992251Y-72907781D01*
X145072990Y-72864405D01*
X145164574Y-72840579D01*
X145273500Y-72834082D01*
X145298403Y-72834761D01*
X145414857Y-72850387D01*
X145513763Y-72887096D01*
X145597236Y-72945927D01*
X145667388Y-73027921D01*
X145717347Y-73123428D01*
X145748498Y-73233898D01*
X145749903Y-73248778D01*
X145759545Y-73350953D01*
G37*
X150620546Y-72415919D02*
X150700550Y-72433173D01*
X150808370Y-72476464D01*
X150897052Y-72538919D01*
X150965201Y-72619148D01*
X151011418Y-72715762D01*
X151034306Y-72827372D01*
X151041808Y-72910112D01*
X150842062Y-72910112D01*
X150832310Y-72843084D01*
X150828799Y-72822352D01*
X150800915Y-72737703D01*
X150753970Y-72673550D01*
X150687656Y-72629675D01*
X150601667Y-72605855D01*
X150495694Y-72601872D01*
X150483192Y-72602565D01*
X150423388Y-72608951D01*
X150379831Y-72621187D01*
X150342401Y-72641918D01*
X150283850Y-72696792D01*
X150246304Y-72768287D01*
X150233555Y-72852514D01*
X150238050Y-72913367D01*
X150258356Y-72980709D01*
X150297240Y-73037862D01*
X150357110Y-73087271D01*
X150440378Y-73131378D01*
X150549455Y-73172626D01*
X150651993Y-73208634D01*
X150763839Y-73254867D01*
X150850647Y-73300423D01*
X150914179Y-73346143D01*
X150920545Y-73351909D01*
X150977246Y-73423658D01*
X151018342Y-73517733D01*
X151043382Y-73632759D01*
X151051918Y-73767362D01*
X151052000Y-73855556D01*
X150036000Y-73855556D01*
X150036000Y-73672551D01*
X150434639Y-73668803D01*
X150833278Y-73665056D01*
X150829806Y-73608612D01*
X150822942Y-73565096D01*
X150802104Y-73518984D01*
X150764852Y-73478479D01*
X150708291Y-73441288D01*
X150629525Y-73405117D01*
X150525658Y-73367672D01*
X150519729Y-73365705D01*
X150395103Y-73321209D01*
X150294823Y-73278027D01*
X150215399Y-73233920D01*
X150153341Y-73186649D01*
X150105160Y-73133975D01*
X150067364Y-73073660D01*
X150059286Y-73057673D01*
X150043989Y-73021009D01*
X150035023Y-72983133D01*
X150030734Y-72935054D01*
X150029465Y-72867778D01*
X150030181Y-72806921D01*
X150034415Y-72751658D01*
X150043557Y-72708581D01*
X150058898Y-72668961D01*
X150111468Y-72585548D01*
X150186555Y-72514150D01*
X150278835Y-72459763D01*
X150384479Y-72424112D01*
X150499659Y-72408923D01*
X150620546Y-72415919D01*
G36*
X150620546Y-72415919D02*
G01*
X150700550Y-72433173D01*
X150808370Y-72476464D01*
X150897052Y-72538919D01*
X150965201Y-72619148D01*
X151011418Y-72715762D01*
X151034306Y-72827372D01*
X151041808Y-72910112D01*
X150842062Y-72910112D01*
X150832310Y-72843084D01*
X150828799Y-72822352D01*
X150800915Y-72737703D01*
X150753970Y-72673550D01*
X150687656Y-72629675D01*
X150601667Y-72605855D01*
X150495694Y-72601872D01*
X150483192Y-72602565D01*
X150423388Y-72608951D01*
X150379831Y-72621187D01*
X150342401Y-72641918D01*
X150283850Y-72696792D01*
X150246304Y-72768287D01*
X150233555Y-72852514D01*
X150238050Y-72913367D01*
X150258356Y-72980709D01*
X150297240Y-73037862D01*
X150357110Y-73087271D01*
X150440378Y-73131378D01*
X150549455Y-73172626D01*
X150651993Y-73208634D01*
X150763839Y-73254867D01*
X150850647Y-73300423D01*
X150914179Y-73346143D01*
X150920545Y-73351909D01*
X150977246Y-73423658D01*
X151018342Y-73517733D01*
X151043382Y-73632759D01*
X151051918Y-73767362D01*
X151052000Y-73855556D01*
X150036000Y-73855556D01*
X150036000Y-73672551D01*
X150434639Y-73668803D01*
X150833278Y-73665056D01*
X150829806Y-73608612D01*
X150822942Y-73565096D01*
X150802104Y-73518984D01*
X150764852Y-73478479D01*
X150708291Y-73441288D01*
X150629525Y-73405117D01*
X150525658Y-73367672D01*
X150519729Y-73365705D01*
X150395103Y-73321209D01*
X150294823Y-73278027D01*
X150215399Y-73233920D01*
X150153341Y-73186649D01*
X150105160Y-73133975D01*
X150067364Y-73073660D01*
X150059286Y-73057673D01*
X150043989Y-73021009D01*
X150035023Y-72983133D01*
X150030734Y-72935054D01*
X150029465Y-72867778D01*
X150030181Y-72806921D01*
X150034415Y-72751658D01*
X150043557Y-72708581D01*
X150058898Y-72668961D01*
X150111468Y-72585548D01*
X150186555Y-72514150D01*
X150278835Y-72459763D01*
X150384479Y-72424112D01*
X150499659Y-72408923D01*
X150620546Y-72415919D01*
G37*
X152258500Y-72620834D02*
X151879929Y-72624594D01*
X151800493Y-72625500D01*
X151699079Y-72627205D01*
X151621899Y-72629395D01*
X151566530Y-72632208D01*
X151530549Y-72635781D01*
X151511533Y-72640253D01*
X151507057Y-72645761D01*
X151507598Y-72646743D01*
X151524367Y-72660774D01*
X151561276Y-72685982D01*
X151614514Y-72719928D01*
X151680270Y-72760173D01*
X151754733Y-72804278D01*
X151996710Y-72945389D01*
X151997444Y-73190147D01*
X151810472Y-73194768D01*
X151762768Y-73196338D01*
X151673954Y-73202700D01*
X151606458Y-73214142D01*
X151555620Y-73232072D01*
X151516780Y-73257897D01*
X151485275Y-73293027D01*
X151482720Y-73296641D01*
X151456729Y-73357276D01*
X151450046Y-73428386D01*
X151461461Y-73501734D01*
X151489759Y-73569085D01*
X151533730Y-73622200D01*
X151555438Y-73637240D01*
X151603530Y-73661733D01*
X151656188Y-73681193D01*
X151709375Y-73692071D01*
X151801571Y-73693238D01*
X151891448Y-73675024D01*
X151968755Y-73638818D01*
X151990404Y-73622008D01*
X152037389Y-73565604D01*
X152069940Y-73497168D01*
X152082111Y-73427767D01*
X152082111Y-73375778D01*
X152297697Y-73375778D01*
X152290273Y-73457659D01*
X152285613Y-73494719D01*
X152255086Y-73602035D01*
X152201393Y-73694023D01*
X152125683Y-73769443D01*
X152029102Y-73827055D01*
X151912798Y-73865618D01*
X151893512Y-73869484D01*
X151804185Y-73877981D01*
X151705484Y-73875659D01*
X151609499Y-73863273D01*
X151528320Y-73841579D01*
X151472024Y-73815355D01*
X151391360Y-73759025D01*
X151324108Y-73689169D01*
X151277672Y-73612555D01*
X151276837Y-73610611D01*
X151258072Y-73556585D01*
X151248352Y-73498770D01*
X151245625Y-73425167D01*
X151245629Y-73423152D01*
X151250374Y-73336522D01*
X151266000Y-73268783D01*
X151295385Y-73211908D01*
X151341404Y-73157870D01*
X151356861Y-73143221D01*
X151432440Y-73091000D01*
X151523476Y-73057419D01*
X151634083Y-73040834D01*
X151636591Y-73040653D01*
X151692967Y-73034603D01*
X151730053Y-73026552D01*
X151743384Y-73017456D01*
X151743222Y-73016785D01*
X151729066Y-73003579D01*
X151694658Y-72978910D01*
X151643709Y-72945238D01*
X151579928Y-72905022D01*
X151507023Y-72860723D01*
X151270722Y-72719612D01*
X151270722Y-72437389D01*
X152258500Y-72437389D01*
X152258500Y-72620834D01*
G36*
X152258500Y-72620834D02*
G01*
X151879929Y-72624594D01*
X151800493Y-72625500D01*
X151699079Y-72627205D01*
X151621899Y-72629395D01*
X151566530Y-72632208D01*
X151530549Y-72635781D01*
X151511533Y-72640253D01*
X151507057Y-72645761D01*
X151507598Y-72646743D01*
X151524367Y-72660774D01*
X151561276Y-72685982D01*
X151614514Y-72719928D01*
X151680270Y-72760173D01*
X151754733Y-72804278D01*
X151996710Y-72945389D01*
X151997444Y-73190147D01*
X151810472Y-73194768D01*
X151762768Y-73196338D01*
X151673954Y-73202700D01*
X151606458Y-73214142D01*
X151555620Y-73232072D01*
X151516780Y-73257897D01*
X151485275Y-73293027D01*
X151482720Y-73296641D01*
X151456729Y-73357276D01*
X151450046Y-73428386D01*
X151461461Y-73501734D01*
X151489759Y-73569085D01*
X151533730Y-73622200D01*
X151555438Y-73637240D01*
X151603530Y-73661733D01*
X151656188Y-73681193D01*
X151709375Y-73692071D01*
X151801571Y-73693238D01*
X151891448Y-73675024D01*
X151968755Y-73638818D01*
X151990404Y-73622008D01*
X152037389Y-73565604D01*
X152069940Y-73497168D01*
X152082111Y-73427767D01*
X152082111Y-73375778D01*
X152297697Y-73375778D01*
X152290273Y-73457659D01*
X152285613Y-73494719D01*
X152255086Y-73602035D01*
X152201393Y-73694023D01*
X152125683Y-73769443D01*
X152029102Y-73827055D01*
X151912798Y-73865618D01*
X151893512Y-73869484D01*
X151804185Y-73877981D01*
X151705484Y-73875659D01*
X151609499Y-73863273D01*
X151528320Y-73841579D01*
X151472024Y-73815355D01*
X151391360Y-73759025D01*
X151324108Y-73689169D01*
X151277672Y-73612555D01*
X151276837Y-73610611D01*
X151258072Y-73556585D01*
X151248352Y-73498770D01*
X151245625Y-73425167D01*
X151245629Y-73423152D01*
X151250374Y-73336522D01*
X151266000Y-73268783D01*
X151295385Y-73211908D01*
X151341404Y-73157870D01*
X151356861Y-73143221D01*
X151432440Y-73091000D01*
X151523476Y-73057419D01*
X151634083Y-73040834D01*
X151636591Y-73040653D01*
X151692967Y-73034603D01*
X151730053Y-73026552D01*
X151743384Y-73017456D01*
X151743222Y-73016785D01*
X151729066Y-73003579D01*
X151694658Y-72978910D01*
X151643709Y-72945238D01*
X151579928Y-72905022D01*
X151507023Y-72860723D01*
X151270722Y-72719612D01*
X151270722Y-72437389D01*
X152258500Y-72437389D01*
X152258500Y-72620834D01*
G37*
X154348574Y-72417232D02*
X154456554Y-72446217D01*
X154551018Y-72493561D01*
X154626918Y-72557813D01*
X154665346Y-72608644D01*
X154705675Y-72695385D01*
X154722906Y-72787542D01*
X154716949Y-72879838D01*
X154687715Y-72966994D01*
X154635115Y-73043733D01*
X154590754Y-73084258D01*
X154532726Y-73121575D01*
X154458607Y-73155793D01*
X154364388Y-73188753D01*
X154246060Y-73222294D01*
X154163479Y-73245025D01*
X154071836Y-73274930D01*
X154003273Y-73305058D01*
X153954923Y-73337465D01*
X153923921Y-73374210D01*
X153907401Y-73417349D01*
X153902497Y-73468941D01*
X153902970Y-73482962D01*
X153920678Y-73550869D01*
X153961792Y-73607712D01*
X154023341Y-73651256D01*
X154102357Y-73679269D01*
X154195871Y-73689519D01*
X154258646Y-73686995D01*
X154356538Y-73667840D01*
X154434085Y-73630415D01*
X154490535Y-73575327D01*
X154525136Y-73503181D01*
X154537134Y-73414584D01*
X154537444Y-73347556D01*
X154749111Y-73347556D01*
X154749111Y-73422606D01*
X154742623Y-73502672D01*
X154712104Y-73605523D01*
X154657914Y-73694940D01*
X154581533Y-73769204D01*
X154484439Y-73826598D01*
X154368111Y-73865401D01*
X154325126Y-73872531D01*
X154249863Y-73877727D01*
X154168188Y-73876720D01*
X154146228Y-73875263D01*
X154021068Y-73854904D01*
X153914026Y-73815739D01*
X153826452Y-73758861D01*
X153759698Y-73685363D01*
X153715113Y-73596339D01*
X153694048Y-73492882D01*
X153691969Y-73447631D01*
X153699160Y-73362925D01*
X153723481Y-73290089D01*
X153766775Y-73227365D01*
X153830885Y-73172996D01*
X153917656Y-73125225D01*
X154028930Y-73082294D01*
X154166552Y-73042444D01*
X154172945Y-73040797D01*
X154282986Y-73010085D01*
X154367777Y-72980442D01*
X154429966Y-72949782D01*
X154472200Y-72916019D01*
X154497126Y-72877066D01*
X154507392Y-72830839D01*
X154505644Y-72775249D01*
X154503907Y-72762302D01*
X154485825Y-72704988D01*
X154449224Y-72661685D01*
X154389278Y-72626206D01*
X154375763Y-72620776D01*
X154314295Y-72606443D01*
X154240321Y-72600123D01*
X154165332Y-72602321D01*
X154100822Y-72613542D01*
X154089121Y-72617276D01*
X154024273Y-72654183D01*
X153974332Y-72711747D01*
X153942191Y-72785584D01*
X153930745Y-72871306D01*
X153930666Y-72924223D01*
X153714907Y-72924223D01*
X153723360Y-72823385D01*
X153735995Y-72741083D01*
X153772061Y-72640655D01*
X153829698Y-72558186D01*
X153909138Y-72493448D01*
X154010609Y-72446214D01*
X154134341Y-72416256D01*
X154232126Y-72408056D01*
X154348574Y-72417232D01*
G36*
X154348574Y-72417232D02*
G01*
X154456554Y-72446217D01*
X154551018Y-72493561D01*
X154626918Y-72557813D01*
X154665346Y-72608644D01*
X154705675Y-72695385D01*
X154722906Y-72787542D01*
X154716949Y-72879838D01*
X154687715Y-72966994D01*
X154635115Y-73043733D01*
X154590754Y-73084258D01*
X154532726Y-73121575D01*
X154458607Y-73155793D01*
X154364388Y-73188753D01*
X154246060Y-73222294D01*
X154163479Y-73245025D01*
X154071836Y-73274930D01*
X154003273Y-73305058D01*
X153954923Y-73337465D01*
X153923921Y-73374210D01*
X153907401Y-73417349D01*
X153902497Y-73468941D01*
X153902970Y-73482962D01*
X153920678Y-73550869D01*
X153961792Y-73607712D01*
X154023341Y-73651256D01*
X154102357Y-73679269D01*
X154195871Y-73689519D01*
X154258646Y-73686995D01*
X154356538Y-73667840D01*
X154434085Y-73630415D01*
X154490535Y-73575327D01*
X154525136Y-73503181D01*
X154537134Y-73414584D01*
X154537444Y-73347556D01*
X154749111Y-73347556D01*
X154749111Y-73422606D01*
X154742623Y-73502672D01*
X154712104Y-73605523D01*
X154657914Y-73694940D01*
X154581533Y-73769204D01*
X154484439Y-73826598D01*
X154368111Y-73865401D01*
X154325126Y-73872531D01*
X154249863Y-73877727D01*
X154168188Y-73876720D01*
X154146228Y-73875263D01*
X154021068Y-73854904D01*
X153914026Y-73815739D01*
X153826452Y-73758861D01*
X153759698Y-73685363D01*
X153715113Y-73596339D01*
X153694048Y-73492882D01*
X153691969Y-73447631D01*
X153699160Y-73362925D01*
X153723481Y-73290089D01*
X153766775Y-73227365D01*
X153830885Y-73172996D01*
X153917656Y-73125225D01*
X154028930Y-73082294D01*
X154166552Y-73042444D01*
X154172945Y-73040797D01*
X154282986Y-73010085D01*
X154367777Y-72980442D01*
X154429966Y-72949782D01*
X154472200Y-72916019D01*
X154497126Y-72877066D01*
X154507392Y-72830839D01*
X154505644Y-72775249D01*
X154503907Y-72762302D01*
X154485825Y-72704988D01*
X154449224Y-72661685D01*
X154389278Y-72626206D01*
X154375763Y-72620776D01*
X154314295Y-72606443D01*
X154240321Y-72600123D01*
X154165332Y-72602321D01*
X154100822Y-72613542D01*
X154089121Y-72617276D01*
X154024273Y-72654183D01*
X153974332Y-72711747D01*
X153942191Y-72785584D01*
X153930745Y-72871306D01*
X153930666Y-72924223D01*
X153714907Y-72924223D01*
X153723360Y-72823385D01*
X153735995Y-72741083D01*
X153772061Y-72640655D01*
X153829698Y-72558186D01*
X153909138Y-72493448D01*
X154010609Y-72446214D01*
X154134341Y-72416256D01*
X154232126Y-72408056D01*
X154348574Y-72417232D01*
G37*
X148047257Y-72430484D02*
X148109833Y-72431495D01*
X148151720Y-72433923D01*
X148177390Y-72438300D01*
X148191316Y-72445158D01*
X148197972Y-72455028D01*
X148201252Y-72466198D01*
X148210950Y-72503092D01*
X148226037Y-72562384D01*
X148245791Y-72641182D01*
X148269492Y-72736592D01*
X148296418Y-72845720D01*
X148325850Y-72965673D01*
X148357065Y-73093556D01*
X148391373Y-73233626D01*
X148424896Y-73368186D01*
X148452998Y-73477990D01*
X148476088Y-73564515D01*
X148494573Y-73629240D01*
X148508862Y-73673642D01*
X148519362Y-73699199D01*
X148526482Y-73707389D01*
X148532594Y-73701038D01*
X148542661Y-73677621D01*
X148556457Y-73635549D01*
X148574391Y-73573343D01*
X148596871Y-73489521D01*
X148624305Y-73382603D01*
X148657101Y-73251108D01*
X148695667Y-73093556D01*
X148718812Y-72998519D01*
X148748729Y-72876205D01*
X148776328Y-72763959D01*
X148800891Y-72664674D01*
X148821698Y-72581244D01*
X148838029Y-72516564D01*
X148849166Y-72473527D01*
X148854389Y-72455028D01*
X148858334Y-72447915D01*
X148869430Y-72440167D01*
X148890864Y-72435067D01*
X148927105Y-72432083D01*
X148982624Y-72430682D01*
X149061890Y-72430334D01*
X149259889Y-72430334D01*
X149259889Y-73855556D01*
X149062333Y-73855556D01*
X149062333Y-73219521D01*
X149062314Y-73132124D01*
X149062147Y-72995718D01*
X149061737Y-72883849D01*
X149060998Y-72794148D01*
X149059843Y-72724247D01*
X149058187Y-72671780D01*
X149055944Y-72634376D01*
X149053027Y-72609670D01*
X149049350Y-72595291D01*
X149044828Y-72588874D01*
X149039374Y-72588049D01*
X149034931Y-72592148D01*
X149026278Y-72609902D01*
X149014537Y-72642787D01*
X148999387Y-72692039D01*
X148980503Y-72758897D01*
X148957563Y-72844598D01*
X148930243Y-72950379D01*
X148898220Y-73077478D01*
X148861171Y-73227133D01*
X148818773Y-73400581D01*
X148770702Y-73599059D01*
X148716635Y-73823806D01*
X148716477Y-73824462D01*
X148712106Y-73837267D01*
X148703173Y-73845966D01*
X148684945Y-73851351D01*
X148652692Y-73854216D01*
X148601681Y-73855353D01*
X148527180Y-73855556D01*
X148345342Y-73855556D01*
X148208568Y-73294639D01*
X148198483Y-73253278D01*
X148168568Y-73130585D01*
X148140422Y-73015128D01*
X148114863Y-72910273D01*
X148092711Y-72819382D01*
X148074787Y-72745819D01*
X148061910Y-72692947D01*
X148054899Y-72664131D01*
X148047863Y-72639283D01*
X148033844Y-72604820D01*
X148021002Y-72588871D01*
X148018529Y-72590013D01*
X148014712Y-72602626D01*
X148011567Y-72630374D01*
X148009045Y-72675126D01*
X148007094Y-72738752D01*
X148005665Y-72823121D01*
X148004706Y-72930103D01*
X148004168Y-73061566D01*
X148004000Y-73219380D01*
X148004000Y-73855556D01*
X147792333Y-73855556D01*
X147792333Y-72430334D01*
X147990332Y-72430334D01*
X148047257Y-72430484D01*
G36*
X148047257Y-72430484D02*
G01*
X148109833Y-72431495D01*
X148151720Y-72433923D01*
X148177390Y-72438300D01*
X148191316Y-72445158D01*
X148197972Y-72455028D01*
X148201252Y-72466198D01*
X148210950Y-72503092D01*
X148226037Y-72562384D01*
X148245791Y-72641182D01*
X148269492Y-72736592D01*
X148296418Y-72845720D01*
X148325850Y-72965673D01*
X148357065Y-73093556D01*
X148391373Y-73233626D01*
X148424896Y-73368186D01*
X148452998Y-73477990D01*
X148476088Y-73564515D01*
X148494573Y-73629240D01*
X148508862Y-73673642D01*
X148519362Y-73699199D01*
X148526482Y-73707389D01*
X148532594Y-73701038D01*
X148542661Y-73677621D01*
X148556457Y-73635549D01*
X148574391Y-73573343D01*
X148596871Y-73489521D01*
X148624305Y-73382603D01*
X148657101Y-73251108D01*
X148695667Y-73093556D01*
X148718812Y-72998519D01*
X148748729Y-72876205D01*
X148776328Y-72763959D01*
X148800891Y-72664674D01*
X148821698Y-72581244D01*
X148838029Y-72516564D01*
X148849166Y-72473527D01*
X148854389Y-72455028D01*
X148858334Y-72447915D01*
X148869430Y-72440167D01*
X148890864Y-72435067D01*
X148927105Y-72432083D01*
X148982624Y-72430682D01*
X149061890Y-72430334D01*
X149259889Y-72430334D01*
X149259889Y-73855556D01*
X149062333Y-73855556D01*
X149062333Y-73219521D01*
X149062314Y-73132124D01*
X149062147Y-72995718D01*
X149061737Y-72883849D01*
X149060998Y-72794148D01*
X149059843Y-72724247D01*
X149058187Y-72671780D01*
X149055944Y-72634376D01*
X149053027Y-72609670D01*
X149049350Y-72595291D01*
X149044828Y-72588874D01*
X149039374Y-72588049D01*
X149034931Y-72592148D01*
X149026278Y-72609902D01*
X149014537Y-72642787D01*
X148999387Y-72692039D01*
X148980503Y-72758897D01*
X148957563Y-72844598D01*
X148930243Y-72950379D01*
X148898220Y-73077478D01*
X148861171Y-73227133D01*
X148818773Y-73400581D01*
X148770702Y-73599059D01*
X148716635Y-73823806D01*
X148716477Y-73824462D01*
X148712106Y-73837267D01*
X148703173Y-73845966D01*
X148684945Y-73851351D01*
X148652692Y-73854216D01*
X148601681Y-73855353D01*
X148527180Y-73855556D01*
X148345342Y-73855556D01*
X148208568Y-73294639D01*
X148198483Y-73253278D01*
X148168568Y-73130585D01*
X148140422Y-73015128D01*
X148114863Y-72910273D01*
X148092711Y-72819382D01*
X148074787Y-72745819D01*
X148061910Y-72692947D01*
X148054899Y-72664131D01*
X148047863Y-72639283D01*
X148033844Y-72604820D01*
X148021002Y-72588871D01*
X148018529Y-72590013D01*
X148014712Y-72602626D01*
X148011567Y-72630374D01*
X148009045Y-72675126D01*
X148007094Y-72738752D01*
X148005665Y-72823121D01*
X148004706Y-72930103D01*
X148004168Y-73061566D01*
X148004000Y-73219380D01*
X148004000Y-73855556D01*
X147792333Y-73855556D01*
X147792333Y-72430334D01*
X147990332Y-72430334D01*
X148047257Y-72430484D01*
G37*
X140733586Y-73192334D02*
X140732663Y-73239179D01*
X140729615Y-73348736D01*
X140724988Y-73435799D01*
X140717791Y-73504551D01*
X140707033Y-73559178D01*
X140691722Y-73603866D01*
X140670869Y-73642799D01*
X140643480Y-73680162D01*
X140608564Y-73720142D01*
X140547676Y-73776324D01*
X140451274Y-73833535D01*
X140336815Y-73870013D01*
X140302749Y-73875391D01*
X140220543Y-73878953D01*
X140129540Y-73873661D01*
X140041409Y-73860453D01*
X139967823Y-73840271D01*
X139940793Y-73829060D01*
X139848332Y-73772078D01*
X139770640Y-73693634D01*
X139712022Y-73597807D01*
X139709798Y-73592988D01*
X139697181Y-73564700D01*
X139687610Y-73538983D01*
X139680593Y-73511437D01*
X139675634Y-73477664D01*
X139672243Y-73433266D01*
X139669923Y-73373844D01*
X139668183Y-73294999D01*
X139666528Y-73192334D01*
X139665724Y-73129255D01*
X139867890Y-73129255D01*
X139868506Y-73221032D01*
X139870859Y-73307948D01*
X139874947Y-73384210D01*
X139880771Y-73444029D01*
X139888330Y-73481612D01*
X139913228Y-73538246D01*
X139965403Y-73609087D01*
X140031866Y-73658329D01*
X140036301Y-73660542D01*
X140116772Y-73687172D01*
X140204500Y-73695120D01*
X140291751Y-73685218D01*
X140370793Y-73658294D01*
X140433892Y-73615179D01*
X140448409Y-73600460D01*
X140475523Y-73566974D01*
X140496228Y-73529151D01*
X140511338Y-73483017D01*
X140521668Y-73424597D01*
X140528031Y-73349919D01*
X140531243Y-73255008D01*
X140532119Y-73135889D01*
X140532117Y-73130457D01*
X140531859Y-73032620D01*
X140530901Y-72958311D01*
X140528867Y-72903057D01*
X140525380Y-72862385D01*
X140520065Y-72831819D01*
X140512544Y-72806886D01*
X140502442Y-72783112D01*
X140468027Y-72723765D01*
X140410934Y-72660368D01*
X140345648Y-72618858D01*
X140298947Y-72607047D01*
X140235432Y-72601068D01*
X140166325Y-72601009D01*
X140102658Y-72606876D01*
X140055463Y-72618677D01*
X140010340Y-72646635D01*
X139960400Y-72693926D01*
X139916979Y-72750100D01*
X139888286Y-72805962D01*
X139882792Y-72829363D01*
X139876461Y-72882671D01*
X139871866Y-72954283D01*
X139869010Y-73038409D01*
X139867890Y-73129255D01*
X139665724Y-73129255D01*
X139665647Y-73123246D01*
X139665462Y-73011654D01*
X139667652Y-72921813D01*
X139672726Y-72849514D01*
X139681195Y-72790552D01*
X139693567Y-72740719D01*
X139710354Y-72695808D01*
X139732065Y-72651612D01*
X139771876Y-72591358D01*
X139847479Y-72517594D01*
X139940911Y-72461678D01*
X140048722Y-72425061D01*
X140167459Y-72409192D01*
X140293674Y-72415524D01*
X140332921Y-72422068D01*
X140450199Y-72457227D01*
X140548370Y-72512830D01*
X140626864Y-72588369D01*
X140685111Y-72683336D01*
X140722539Y-72797223D01*
X140724934Y-72810023D01*
X140730824Y-72866628D01*
X140734213Y-72948604D01*
X140735125Y-73056868D01*
X140734227Y-73135889D01*
X140733586Y-73192334D01*
G36*
X140733586Y-73192334D02*
G01*
X140732663Y-73239179D01*
X140729615Y-73348736D01*
X140724988Y-73435799D01*
X140717791Y-73504551D01*
X140707033Y-73559178D01*
X140691722Y-73603866D01*
X140670869Y-73642799D01*
X140643480Y-73680162D01*
X140608564Y-73720142D01*
X140547676Y-73776324D01*
X140451274Y-73833535D01*
X140336815Y-73870013D01*
X140302749Y-73875391D01*
X140220543Y-73878953D01*
X140129540Y-73873661D01*
X140041409Y-73860453D01*
X139967823Y-73840271D01*
X139940793Y-73829060D01*
X139848332Y-73772078D01*
X139770640Y-73693634D01*
X139712022Y-73597807D01*
X139709798Y-73592988D01*
X139697181Y-73564700D01*
X139687610Y-73538983D01*
X139680593Y-73511437D01*
X139675634Y-73477664D01*
X139672243Y-73433266D01*
X139669923Y-73373844D01*
X139668183Y-73294999D01*
X139666528Y-73192334D01*
X139665724Y-73129255D01*
X139867890Y-73129255D01*
X139868506Y-73221032D01*
X139870859Y-73307948D01*
X139874947Y-73384210D01*
X139880771Y-73444029D01*
X139888330Y-73481612D01*
X139913228Y-73538246D01*
X139965403Y-73609087D01*
X140031866Y-73658329D01*
X140036301Y-73660542D01*
X140116772Y-73687172D01*
X140204500Y-73695120D01*
X140291751Y-73685218D01*
X140370793Y-73658294D01*
X140433892Y-73615179D01*
X140448409Y-73600460D01*
X140475523Y-73566974D01*
X140496228Y-73529151D01*
X140511338Y-73483017D01*
X140521668Y-73424597D01*
X140528031Y-73349919D01*
X140531243Y-73255008D01*
X140532119Y-73135889D01*
X140532117Y-73130457D01*
X140531859Y-73032620D01*
X140530901Y-72958311D01*
X140528867Y-72903057D01*
X140525380Y-72862385D01*
X140520065Y-72831819D01*
X140512544Y-72806886D01*
X140502442Y-72783112D01*
X140468027Y-72723765D01*
X140410934Y-72660368D01*
X140345648Y-72618858D01*
X140298947Y-72607047D01*
X140235432Y-72601068D01*
X140166325Y-72601009D01*
X140102658Y-72606876D01*
X140055463Y-72618677D01*
X140010340Y-72646635D01*
X139960400Y-72693926D01*
X139916979Y-72750100D01*
X139888286Y-72805962D01*
X139882792Y-72829363D01*
X139876461Y-72882671D01*
X139871866Y-72954283D01*
X139869010Y-73038409D01*
X139867890Y-73129255D01*
X139665724Y-73129255D01*
X139665647Y-73123246D01*
X139665462Y-73011654D01*
X139667652Y-72921813D01*
X139672726Y-72849514D01*
X139681195Y-72790552D01*
X139693567Y-72740719D01*
X139710354Y-72695808D01*
X139732065Y-72651612D01*
X139771876Y-72591358D01*
X139847479Y-72517594D01*
X139940911Y-72461678D01*
X140048722Y-72425061D01*
X140167459Y-72409192D01*
X140293674Y-72415524D01*
X140332921Y-72422068D01*
X140450199Y-72457227D01*
X140548370Y-72512830D01*
X140626864Y-72588369D01*
X140685111Y-72683336D01*
X140722539Y-72797223D01*
X140724934Y-72810023D01*
X140730824Y-72866628D01*
X140734213Y-72948604D01*
X140735125Y-73056868D01*
X140734227Y-73135889D01*
X140733586Y-73192334D01*
G37*
X127808000Y-84123947D02*
X126747176Y-84123947D01*
X126747176Y-83899829D01*
X127808000Y-83899829D01*
X127808000Y-84123947D01*
G36*
X127808000Y-84123947D02*
G01*
X126747176Y-84123947D01*
X126747176Y-83899829D01*
X127808000Y-83899829D01*
X127808000Y-84123947D01*
G37*
X128129020Y-83864893D02*
X128188933Y-83886890D01*
X128228996Y-83928853D01*
X128246564Y-83987145D01*
X128238996Y-84058128D01*
X128238481Y-84059946D01*
X128210056Y-84111786D01*
X128164942Y-84144293D01*
X128110302Y-84155900D01*
X128053296Y-84145043D01*
X128001086Y-84110155D01*
X127979266Y-84083045D01*
X127957269Y-84023812D01*
X127961910Y-83961738D01*
X127993471Y-83904398D01*
X128016015Y-83881991D01*
X128048742Y-83866417D01*
X128096855Y-83862476D01*
X128129020Y-83864893D01*
G36*
X128129020Y-83864893D02*
G01*
X128188933Y-83886890D01*
X128228996Y-83928853D01*
X128246564Y-83987145D01*
X128238996Y-84058128D01*
X128238481Y-84059946D01*
X128210056Y-84111786D01*
X128164942Y-84144293D01*
X128110302Y-84155900D01*
X128053296Y-84145043D01*
X128001086Y-84110155D01*
X127979266Y-84083045D01*
X127957269Y-84023812D01*
X127961910Y-83961738D01*
X127993471Y-83904398D01*
X128016015Y-83881991D01*
X128048742Y-83866417D01*
X128096855Y-83862476D01*
X128129020Y-83864893D01*
G37*
X126967248Y-85508320D02*
X127015467Y-85545594D01*
X127048556Y-85600903D01*
X127060885Y-85672079D01*
X127055831Y-85714606D01*
X127029973Y-85769245D01*
X126987408Y-85808141D01*
X126934045Y-85830256D01*
X126875793Y-85834551D01*
X126818559Y-85819986D01*
X126768254Y-85785523D01*
X126730784Y-85730124D01*
X126724133Y-85706289D01*
X126723289Y-85652121D01*
X126735035Y-85596717D01*
X126757116Y-85555078D01*
X126788128Y-85526405D01*
X126847947Y-85496557D01*
X126909531Y-85491252D01*
X126967248Y-85508320D01*
G36*
X126967248Y-85508320D02*
G01*
X127015467Y-85545594D01*
X127048556Y-85600903D01*
X127060885Y-85672079D01*
X127055831Y-85714606D01*
X127029973Y-85769245D01*
X126987408Y-85808141D01*
X126934045Y-85830256D01*
X126875793Y-85834551D01*
X126818559Y-85819986D01*
X126768254Y-85785523D01*
X126730784Y-85730124D01*
X126724133Y-85706289D01*
X126723289Y-85652121D01*
X126735035Y-85596717D01*
X126757116Y-85555078D01*
X126788128Y-85526405D01*
X126847947Y-85496557D01*
X126909531Y-85491252D01*
X126967248Y-85508320D01*
G37*
X127808000Y-85969662D02*
X127807034Y-86007027D01*
X127794412Y-86090615D01*
X127765896Y-86153430D01*
X127719868Y-86199692D01*
X127693162Y-86222012D01*
X127683251Y-86243503D01*
X127701882Y-86256299D01*
X127749117Y-86260535D01*
X127808000Y-86260535D01*
X127808000Y-86469712D01*
X126747176Y-86469712D01*
X126747176Y-86262490D01*
X127102029Y-86257778D01*
X127169645Y-86256826D01*
X127268034Y-86255046D01*
X127342882Y-86252845D01*
X127398239Y-86249881D01*
X127438156Y-86245809D01*
X127466681Y-86240285D01*
X127487865Y-86232966D01*
X127505758Y-86223509D01*
X127526445Y-86208948D01*
X127574442Y-86151084D01*
X127603805Y-86071481D01*
X127613765Y-85971936D01*
X127613765Y-85872065D01*
X127808000Y-85872065D01*
X127808000Y-85969662D01*
G36*
X127808000Y-85969662D02*
G01*
X127807034Y-86007027D01*
X127794412Y-86090615D01*
X127765896Y-86153430D01*
X127719868Y-86199692D01*
X127693162Y-86222012D01*
X127683251Y-86243503D01*
X127701882Y-86256299D01*
X127749117Y-86260535D01*
X127808000Y-86260535D01*
X127808000Y-86469712D01*
X126747176Y-86469712D01*
X126747176Y-86262490D01*
X127102029Y-86257778D01*
X127169645Y-86256826D01*
X127268034Y-86255046D01*
X127342882Y-86252845D01*
X127398239Y-86249881D01*
X127438156Y-86245809D01*
X127466681Y-86240285D01*
X127487865Y-86232966D01*
X127505758Y-86223509D01*
X127526445Y-86208948D01*
X127574442Y-86151084D01*
X127603805Y-86071481D01*
X127613765Y-85971936D01*
X127613765Y-85872065D01*
X127808000Y-85872065D01*
X127808000Y-85969662D01*
G37*
X127019573Y-88152876D02*
X127291970Y-88428840D01*
X127549236Y-88162717D01*
X127806501Y-87896594D01*
X127807250Y-88038735D01*
X127808000Y-88180877D01*
X127598823Y-88389653D01*
X127589363Y-88399114D01*
X127526083Y-88463438D01*
X127471240Y-88520936D01*
X127428065Y-88568092D01*
X127399790Y-88601387D01*
X127389647Y-88617306D01*
X127389648Y-88617392D01*
X127396003Y-88623062D01*
X127416502Y-88627547D01*
X127453767Y-88630961D01*
X127510422Y-88633416D01*
X127589087Y-88635029D01*
X127692386Y-88635913D01*
X127822941Y-88636182D01*
X128256235Y-88636182D01*
X128256235Y-88845359D01*
X126747176Y-88845359D01*
X126747176Y-88636182D01*
X126971294Y-88636182D01*
X126996407Y-88636154D01*
X127078423Y-88635383D01*
X127135441Y-88633295D01*
X127171351Y-88629530D01*
X127190045Y-88623730D01*
X127195412Y-88615538D01*
X127194536Y-88612862D01*
X127178627Y-88591414D01*
X127145163Y-88553732D01*
X127097328Y-88503205D01*
X127038310Y-88443220D01*
X126971294Y-88377166D01*
X126747176Y-88159440D01*
X126747176Y-87876911D01*
X127019573Y-88152876D01*
G36*
X127019573Y-88152876D02*
G01*
X127291970Y-88428840D01*
X127549236Y-88162717D01*
X127806501Y-87896594D01*
X127807250Y-88038735D01*
X127808000Y-88180877D01*
X127598823Y-88389653D01*
X127589363Y-88399114D01*
X127526083Y-88463438D01*
X127471240Y-88520936D01*
X127428065Y-88568092D01*
X127399790Y-88601387D01*
X127389647Y-88617306D01*
X127389648Y-88617392D01*
X127396003Y-88623062D01*
X127416502Y-88627547D01*
X127453767Y-88630961D01*
X127510422Y-88633416D01*
X127589087Y-88635029D01*
X127692386Y-88635913D01*
X127822941Y-88636182D01*
X128256235Y-88636182D01*
X128256235Y-88845359D01*
X126747176Y-88845359D01*
X126747176Y-88636182D01*
X126971294Y-88636182D01*
X126996407Y-88636154D01*
X127078423Y-88635383D01*
X127135441Y-88633295D01*
X127171351Y-88629530D01*
X127190045Y-88623730D01*
X127195412Y-88615538D01*
X127194536Y-88612862D01*
X127178627Y-88591414D01*
X127145163Y-88553732D01*
X127097328Y-88503205D01*
X127038310Y-88443220D01*
X126971294Y-88377166D01*
X126747176Y-88159440D01*
X126747176Y-87876911D01*
X127019573Y-88152876D01*
G37*
X127808000Y-84566884D02*
X127359212Y-84706825D01*
X127227264Y-84748332D01*
X127121521Y-84782473D01*
X127040143Y-84809937D01*
X126980952Y-84831518D01*
X126941768Y-84848011D01*
X126920415Y-84860210D01*
X126914712Y-84868910D01*
X126923293Y-84878488D01*
X126958985Y-84897199D01*
X127020467Y-84921077D01*
X127105765Y-84949292D01*
X127145410Y-84961679D01*
X127237009Y-84990405D01*
X127341722Y-85023349D01*
X127449492Y-85057346D01*
X127550265Y-85089229D01*
X127808000Y-85170928D01*
X127808000Y-85283533D01*
X127807872Y-85304896D01*
X127805453Y-85357485D01*
X127799481Y-85385070D01*
X127789323Y-85391304D01*
X127772632Y-85386020D01*
X127730611Y-85372228D01*
X127666737Y-85351071D01*
X127584320Y-85323650D01*
X127486671Y-85291066D01*
X127377098Y-85254420D01*
X127258912Y-85214814D01*
X126747176Y-85043159D01*
X126747176Y-84694198D01*
X127116970Y-84571287D01*
X127187106Y-84547912D01*
X127298627Y-84510509D01*
X127406631Y-84474025D01*
X127504901Y-84440572D01*
X127587223Y-84412258D01*
X127647382Y-84391195D01*
X127808000Y-84334013D01*
X127808000Y-84566884D01*
G36*
X127808000Y-84566884D02*
G01*
X127359212Y-84706825D01*
X127227264Y-84748332D01*
X127121521Y-84782473D01*
X127040143Y-84809937D01*
X126980952Y-84831518D01*
X126941768Y-84848011D01*
X126920415Y-84860210D01*
X126914712Y-84868910D01*
X126923293Y-84878488D01*
X126958985Y-84897199D01*
X127020467Y-84921077D01*
X127105765Y-84949292D01*
X127145410Y-84961679D01*
X127237009Y-84990405D01*
X127341722Y-85023349D01*
X127449492Y-85057346D01*
X127550265Y-85089229D01*
X127808000Y-85170928D01*
X127808000Y-85283533D01*
X127807872Y-85304896D01*
X127805453Y-85357485D01*
X127799481Y-85385070D01*
X127789323Y-85391304D01*
X127772632Y-85386020D01*
X127730611Y-85372228D01*
X127666737Y-85351071D01*
X127584320Y-85323650D01*
X127486671Y-85291066D01*
X127377098Y-85254420D01*
X127258912Y-85214814D01*
X126747176Y-85043159D01*
X126747176Y-84694198D01*
X127116970Y-84571287D01*
X127187106Y-84547912D01*
X127298627Y-84510509D01*
X127406631Y-84474025D01*
X127504901Y-84440572D01*
X127587223Y-84412258D01*
X127647382Y-84391195D01*
X127808000Y-84334013D01*
X127808000Y-84566884D01*
G37*
X127225267Y-82570402D02*
X127337020Y-82572121D01*
X127426116Y-82576013D01*
X127496470Y-82582861D01*
X127551996Y-82593450D01*
X127596610Y-82608563D01*
X127634226Y-82628984D01*
X127668759Y-82655496D01*
X127704123Y-82688883D01*
X127711773Y-82696709D01*
X127774705Y-82781646D01*
X127811172Y-82877744D01*
X127821553Y-82986571D01*
X127806230Y-83109693D01*
X127804695Y-83116611D01*
X127788401Y-83167072D01*
X127761339Y-83211169D01*
X127716582Y-83260552D01*
X127715114Y-83262022D01*
X127679055Y-83299050D01*
X127653410Y-83327116D01*
X127643647Y-83340247D01*
X127650960Y-83343026D01*
X127680808Y-83345894D01*
X127725823Y-83347006D01*
X127808000Y-83347006D01*
X127808000Y-83571124D01*
X126747176Y-83571124D01*
X126747176Y-83347006D01*
X127399230Y-83347006D01*
X127480350Y-83305918D01*
X127535881Y-83271371D01*
X127592553Y-83210865D01*
X127625083Y-83134361D01*
X127634931Y-83039338D01*
X127633501Y-83002429D01*
X127623081Y-82943002D01*
X127600059Y-82893299D01*
X127583980Y-82868434D01*
X127563446Y-82842786D01*
X127539354Y-82823085D01*
X127507944Y-82808480D01*
X127465456Y-82798116D01*
X127408128Y-82791141D01*
X127332200Y-82786701D01*
X127233911Y-82783943D01*
X127109500Y-82782015D01*
X126747176Y-82777317D01*
X126747176Y-82570065D01*
X127110523Y-82570065D01*
X127225267Y-82570402D01*
G36*
X127225267Y-82570402D02*
G01*
X127337020Y-82572121D01*
X127426116Y-82576013D01*
X127496470Y-82582861D01*
X127551996Y-82593450D01*
X127596610Y-82608563D01*
X127634226Y-82628984D01*
X127668759Y-82655496D01*
X127704123Y-82688883D01*
X127711773Y-82696709D01*
X127774705Y-82781646D01*
X127811172Y-82877744D01*
X127821553Y-82986571D01*
X127806230Y-83109693D01*
X127804695Y-83116611D01*
X127788401Y-83167072D01*
X127761339Y-83211169D01*
X127716582Y-83260552D01*
X127715114Y-83262022D01*
X127679055Y-83299050D01*
X127653410Y-83327116D01*
X127643647Y-83340247D01*
X127650960Y-83343026D01*
X127680808Y-83345894D01*
X127725823Y-83347006D01*
X127808000Y-83347006D01*
X127808000Y-83571124D01*
X126747176Y-83571124D01*
X126747176Y-83347006D01*
X127399230Y-83347006D01*
X127480350Y-83305918D01*
X127535881Y-83271371D01*
X127592553Y-83210865D01*
X127625083Y-83134361D01*
X127634931Y-83039338D01*
X127633501Y-83002429D01*
X127623081Y-82943002D01*
X127600059Y-82893299D01*
X127583980Y-82868434D01*
X127563446Y-82842786D01*
X127539354Y-82823085D01*
X127507944Y-82808480D01*
X127465456Y-82798116D01*
X127408128Y-82791141D01*
X127332200Y-82786701D01*
X127233911Y-82783943D01*
X127109500Y-82782015D01*
X126747176Y-82777317D01*
X126747176Y-82570065D01*
X127110523Y-82570065D01*
X127225267Y-82570402D01*
G37*
X127421983Y-81215141D02*
X127513084Y-81239276D01*
X127610630Y-81291513D01*
X127695207Y-81367423D01*
X127761815Y-81461819D01*
X127808157Y-81570543D01*
X127831937Y-81689440D01*
X127830859Y-81814352D01*
X127812898Y-81910878D01*
X127768130Y-82026705D01*
X127701151Y-82123487D01*
X127613319Y-82199803D01*
X127505990Y-82254233D01*
X127380524Y-82285357D01*
X127305843Y-82291381D01*
X127277588Y-82290475D01*
X127202567Y-82288073D01*
X127103370Y-82273359D01*
X127020474Y-82248491D01*
X126935831Y-82201203D01*
X126851986Y-82124226D01*
X126785776Y-82026699D01*
X126740258Y-81912291D01*
X126725492Y-81826008D01*
X126724390Y-81733043D01*
X126912634Y-81733043D01*
X126921361Y-81830095D01*
X126955531Y-81916503D01*
X127014197Y-81988393D01*
X127023706Y-81996668D01*
X127094733Y-82042913D01*
X127176963Y-82068886D01*
X127277588Y-82077006D01*
X127309357Y-82076342D01*
X127403601Y-82063390D01*
X127480588Y-82032120D01*
X127546831Y-81980190D01*
X127579846Y-81941809D01*
X127624267Y-81858942D01*
X127643363Y-81769135D01*
X127637113Y-81678054D01*
X127605497Y-81591368D01*
X127548495Y-81514746D01*
X127510743Y-81481453D01*
X127447836Y-81445359D01*
X127372714Y-81425705D01*
X127277588Y-81419761D01*
X127239863Y-81420961D01*
X127177756Y-81426972D01*
X127128226Y-81436339D01*
X127125124Y-81437238D01*
X127064676Y-81467390D01*
X127005647Y-81516688D01*
X126957144Y-81576024D01*
X126928274Y-81636291D01*
X126912634Y-81733043D01*
X126724390Y-81733043D01*
X126724242Y-81720588D01*
X126737240Y-81613130D01*
X126763772Y-81515720D01*
X126793892Y-81452773D01*
X126859635Y-81364838D01*
X126943631Y-81291614D01*
X127038992Y-81240004D01*
X127101868Y-81221225D01*
X127204992Y-81206133D01*
X127315492Y-81204099D01*
X127421983Y-81215141D01*
G36*
X127421983Y-81215141D02*
G01*
X127513084Y-81239276D01*
X127610630Y-81291513D01*
X127695207Y-81367423D01*
X127761815Y-81461819D01*
X127808157Y-81570543D01*
X127831937Y-81689440D01*
X127830859Y-81814352D01*
X127812898Y-81910878D01*
X127768130Y-82026705D01*
X127701151Y-82123487D01*
X127613319Y-82199803D01*
X127505990Y-82254233D01*
X127380524Y-82285357D01*
X127305843Y-82291381D01*
X127277588Y-82290475D01*
X127202567Y-82288073D01*
X127103370Y-82273359D01*
X127020474Y-82248491D01*
X126935831Y-82201203D01*
X126851986Y-82124226D01*
X126785776Y-82026699D01*
X126740258Y-81912291D01*
X126725492Y-81826008D01*
X126724390Y-81733043D01*
X126912634Y-81733043D01*
X126921361Y-81830095D01*
X126955531Y-81916503D01*
X127014197Y-81988393D01*
X127023706Y-81996668D01*
X127094733Y-82042913D01*
X127176963Y-82068886D01*
X127277588Y-82077006D01*
X127309357Y-82076342D01*
X127403601Y-82063390D01*
X127480588Y-82032120D01*
X127546831Y-81980190D01*
X127579846Y-81941809D01*
X127624267Y-81858942D01*
X127643363Y-81769135D01*
X127637113Y-81678054D01*
X127605497Y-81591368D01*
X127548495Y-81514746D01*
X127510743Y-81481453D01*
X127447836Y-81445359D01*
X127372714Y-81425705D01*
X127277588Y-81419761D01*
X127239863Y-81420961D01*
X127177756Y-81426972D01*
X127128226Y-81436339D01*
X127125124Y-81437238D01*
X127064676Y-81467390D01*
X127005647Y-81516688D01*
X126957144Y-81576024D01*
X126928274Y-81636291D01*
X126912634Y-81733043D01*
X126724390Y-81733043D01*
X126724242Y-81720588D01*
X126737240Y-81613130D01*
X126763772Y-81515720D01*
X126793892Y-81452773D01*
X126859635Y-81364838D01*
X126943631Y-81291614D01*
X127038992Y-81240004D01*
X127101868Y-81221225D01*
X127204992Y-81206133D01*
X127315492Y-81204099D01*
X127421983Y-81215141D01*
G37*
X127497970Y-79869309D02*
X128248765Y-79873182D01*
X128253154Y-79981506D01*
X128257544Y-80089829D01*
X127958066Y-80089829D01*
X127889265Y-80090077D01*
X127789488Y-80091694D01*
X127717274Y-80094784D01*
X127673387Y-80099308D01*
X127658588Y-80105227D01*
X127660754Y-80111549D01*
X127679038Y-80135466D01*
X127709867Y-80165648D01*
X127751690Y-80208489D01*
X127796553Y-80281413D01*
X127822073Y-80369626D01*
X127830244Y-80478300D01*
X127828901Y-80546110D01*
X127823061Y-80597214D01*
X127810470Y-80641298D01*
X127788878Y-80689875D01*
X127762036Y-80737858D01*
X127687990Y-80827873D01*
X127594229Y-80896353D01*
X127482058Y-80942677D01*
X127352784Y-80966222D01*
X127275559Y-80966300D01*
X127207716Y-80966367D01*
X127158555Y-80960856D01*
X127034819Y-80929460D01*
X126928249Y-80875321D01*
X126840727Y-80799921D01*
X126774136Y-80704737D01*
X126730358Y-80591250D01*
X126725448Y-80565336D01*
X126722134Y-80494098D01*
X126728043Y-80413652D01*
X126731054Y-80396916D01*
X126911388Y-80396916D01*
X126919995Y-80492790D01*
X126953131Y-80584404D01*
X126983624Y-80634897D01*
X127020728Y-80672772D01*
X127074366Y-80705640D01*
X127116987Y-80725981D01*
X127159437Y-80739344D01*
X127208419Y-80745526D01*
X127275559Y-80746913D01*
X127354654Y-80741625D01*
X127455412Y-80715806D01*
X127535920Y-80669490D01*
X127594948Y-80603775D01*
X127631267Y-80519758D01*
X127643647Y-80418535D01*
X127638052Y-80349044D01*
X127609436Y-80259165D01*
X127557741Y-80187169D01*
X127484308Y-80134257D01*
X127390477Y-80101629D01*
X127277588Y-80090486D01*
X127234975Y-80091735D01*
X127130513Y-80108784D01*
X127046663Y-80146484D01*
X126981908Y-80205706D01*
X126934734Y-80287320D01*
X126927851Y-80305561D01*
X126911388Y-80396916D01*
X126731054Y-80396916D01*
X126741883Y-80336737D01*
X126762360Y-80276093D01*
X126770354Y-80261002D01*
X126805890Y-80208713D01*
X126845309Y-80165648D01*
X126860029Y-80152074D01*
X126886217Y-80123591D01*
X126896588Y-80105227D01*
X126891683Y-80099719D01*
X126864720Y-80092604D01*
X126821882Y-80089829D01*
X126747176Y-80089829D01*
X126747176Y-79865435D01*
X127497970Y-79869309D01*
G36*
X127497970Y-79869309D02*
G01*
X128248765Y-79873182D01*
X128253154Y-79981506D01*
X128257544Y-80089829D01*
X127958066Y-80089829D01*
X127889265Y-80090077D01*
X127789488Y-80091694D01*
X127717274Y-80094784D01*
X127673387Y-80099308D01*
X127658588Y-80105227D01*
X127660754Y-80111549D01*
X127679038Y-80135466D01*
X127709867Y-80165648D01*
X127751690Y-80208489D01*
X127796553Y-80281413D01*
X127822073Y-80369626D01*
X127830244Y-80478300D01*
X127828901Y-80546110D01*
X127823061Y-80597214D01*
X127810470Y-80641298D01*
X127788878Y-80689875D01*
X127762036Y-80737858D01*
X127687990Y-80827873D01*
X127594229Y-80896353D01*
X127482058Y-80942677D01*
X127352784Y-80966222D01*
X127275559Y-80966300D01*
X127207716Y-80966367D01*
X127158555Y-80960856D01*
X127034819Y-80929460D01*
X126928249Y-80875321D01*
X126840727Y-80799921D01*
X126774136Y-80704737D01*
X126730358Y-80591250D01*
X126725448Y-80565336D01*
X126722134Y-80494098D01*
X126728043Y-80413652D01*
X126731054Y-80396916D01*
X126911388Y-80396916D01*
X126919995Y-80492790D01*
X126953131Y-80584404D01*
X126983624Y-80634897D01*
X127020728Y-80672772D01*
X127074366Y-80705640D01*
X127116987Y-80725981D01*
X127159437Y-80739344D01*
X127208419Y-80745526D01*
X127275559Y-80746913D01*
X127354654Y-80741625D01*
X127455412Y-80715806D01*
X127535920Y-80669490D01*
X127594948Y-80603775D01*
X127631267Y-80519758D01*
X127643647Y-80418535D01*
X127638052Y-80349044D01*
X127609436Y-80259165D01*
X127557741Y-80187169D01*
X127484308Y-80134257D01*
X127390477Y-80101629D01*
X127277588Y-80090486D01*
X127234975Y-80091735D01*
X127130513Y-80108784D01*
X127046663Y-80146484D01*
X126981908Y-80205706D01*
X126934734Y-80287320D01*
X126927851Y-80305561D01*
X126911388Y-80396916D01*
X126731054Y-80396916D01*
X126741883Y-80336737D01*
X126762360Y-80276093D01*
X126770354Y-80261002D01*
X126805890Y-80208713D01*
X126845309Y-80165648D01*
X126860029Y-80152074D01*
X126886217Y-80123591D01*
X126896588Y-80105227D01*
X126891683Y-80099719D01*
X126864720Y-80092604D01*
X126821882Y-80089829D01*
X126747176Y-80089829D01*
X126747176Y-79865435D01*
X127497970Y-79869309D01*
G37*
X127332901Y-86745395D02*
X127391595Y-86753099D01*
X127457334Y-86765438D01*
X127508460Y-86778904D01*
X127536623Y-86789423D01*
X127633646Y-86843963D01*
X127712801Y-86917907D01*
X127773175Y-87007000D01*
X127813850Y-87106986D01*
X127833911Y-87213608D01*
X127832442Y-87322611D01*
X127808529Y-87429738D01*
X127761254Y-87530733D01*
X127689703Y-87621340D01*
X127642906Y-87662870D01*
X127537442Y-87727489D01*
X127418183Y-87767484D01*
X127389647Y-87770664D01*
X127288442Y-87781938D01*
X127151529Y-87769940D01*
X127136916Y-87767086D01*
X127017106Y-87728711D01*
X126914312Y-87668077D01*
X126831016Y-87587521D01*
X126769702Y-87489379D01*
X126732854Y-87375988D01*
X126720854Y-87272882D01*
X126727707Y-87151100D01*
X126756714Y-87038106D01*
X126806726Y-86940672D01*
X126813172Y-86931711D01*
X126848418Y-86890701D01*
X126890531Y-86850337D01*
X126932887Y-86816091D01*
X126968861Y-86793432D01*
X126991827Y-86787831D01*
X127003312Y-86798886D01*
X127025325Y-86829862D01*
X127051391Y-86872928D01*
X127053923Y-86877430D01*
X127077211Y-86922977D01*
X127084395Y-86949032D01*
X127076756Y-86959989D01*
X127064263Y-86965650D01*
X127025102Y-86994518D01*
X126983157Y-87036431D01*
X126947114Y-87082070D01*
X126925657Y-87122117D01*
X126918853Y-87153506D01*
X126913817Y-87210066D01*
X126914307Y-87270235D01*
X126920006Y-87315893D01*
X126950596Y-87404692D01*
X127004205Y-87475899D01*
X127078595Y-87527031D01*
X127171527Y-87555602D01*
X127225294Y-87564328D01*
X127225294Y-87562431D01*
X127389647Y-87562431D01*
X127423265Y-87552061D01*
X127446764Y-87543971D01*
X127530485Y-87497514D01*
X127592320Y-87431578D01*
X127630516Y-87348563D01*
X127643319Y-87250868D01*
X127641515Y-87221242D01*
X127625473Y-87148828D01*
X127596551Y-87082610D01*
X127559298Y-87034311D01*
X127557212Y-87032519D01*
X127523697Y-87010395D01*
X127479128Y-86987666D01*
X127435565Y-86969927D01*
X127405068Y-86962771D01*
X127401541Y-86967516D01*
X127396392Y-86998880D01*
X127392669Y-87058987D01*
X127390409Y-87147130D01*
X127389647Y-87262601D01*
X127389647Y-87562431D01*
X127225294Y-87562431D01*
X127225294Y-86734792D01*
X127332901Y-86745395D01*
G36*
X127332901Y-86745395D02*
G01*
X127391595Y-86753099D01*
X127457334Y-86765438D01*
X127508460Y-86778904D01*
X127536623Y-86789423D01*
X127633646Y-86843963D01*
X127712801Y-86917907D01*
X127773175Y-87007000D01*
X127813850Y-87106986D01*
X127833911Y-87213608D01*
X127832442Y-87322611D01*
X127808529Y-87429738D01*
X127761254Y-87530733D01*
X127689703Y-87621340D01*
X127642906Y-87662870D01*
X127537442Y-87727489D01*
X127418183Y-87767484D01*
X127389647Y-87770664D01*
X127288442Y-87781938D01*
X127151529Y-87769940D01*
X127136916Y-87767086D01*
X127017106Y-87728711D01*
X126914312Y-87668077D01*
X126831016Y-87587521D01*
X126769702Y-87489379D01*
X126732854Y-87375988D01*
X126720854Y-87272882D01*
X126727707Y-87151100D01*
X126756714Y-87038106D01*
X126806726Y-86940672D01*
X126813172Y-86931711D01*
X126848418Y-86890701D01*
X126890531Y-86850337D01*
X126932887Y-86816091D01*
X126968861Y-86793432D01*
X126991827Y-86787831D01*
X127003312Y-86798886D01*
X127025325Y-86829862D01*
X127051391Y-86872928D01*
X127053923Y-86877430D01*
X127077211Y-86922977D01*
X127084395Y-86949032D01*
X127076756Y-86959989D01*
X127064263Y-86965650D01*
X127025102Y-86994518D01*
X126983157Y-87036431D01*
X126947114Y-87082070D01*
X126925657Y-87122117D01*
X126918853Y-87153506D01*
X126913817Y-87210066D01*
X126914307Y-87270235D01*
X126920006Y-87315893D01*
X126950596Y-87404692D01*
X127004205Y-87475899D01*
X127078595Y-87527031D01*
X127171527Y-87555602D01*
X127225294Y-87564328D01*
X127225294Y-87562431D01*
X127389647Y-87562431D01*
X127423265Y-87552061D01*
X127446764Y-87543971D01*
X127530485Y-87497514D01*
X127592320Y-87431578D01*
X127630516Y-87348563D01*
X127643319Y-87250868D01*
X127641515Y-87221242D01*
X127625473Y-87148828D01*
X127596551Y-87082610D01*
X127559298Y-87034311D01*
X127557212Y-87032519D01*
X127523697Y-87010395D01*
X127479128Y-86987666D01*
X127435565Y-86969927D01*
X127405068Y-86962771D01*
X127401541Y-86967516D01*
X127396392Y-86998880D01*
X127392669Y-87058987D01*
X127390409Y-87147130D01*
X127389647Y-87262601D01*
X127389647Y-87562431D01*
X127225294Y-87562431D01*
X127225294Y-86734792D01*
X127332901Y-86745395D01*
G37*
X127154323Y-90417033D02*
X127226428Y-90418043D01*
X127336216Y-90420009D01*
X127421943Y-90422360D01*
X127487362Y-90425354D01*
X127536227Y-90429247D01*
X127572291Y-90434294D01*
X127599308Y-90440752D01*
X127621031Y-90448876D01*
X127684363Y-90484971D01*
X127752001Y-90551560D01*
X127796932Y-90637353D01*
X127818789Y-90741807D01*
X127821185Y-90804869D01*
X127808807Y-90889606D01*
X127774277Y-90962469D01*
X127714922Y-91030889D01*
X127712191Y-91033478D01*
X127676298Y-91068882D01*
X127652304Y-91095127D01*
X127645275Y-91106698D01*
X127647046Y-91107995D01*
X127666544Y-91121697D01*
X127698391Y-91143770D01*
X127718458Y-91161187D01*
X127753973Y-91204127D01*
X127784302Y-91253924D01*
X127800849Y-91292262D01*
X127822078Y-91387612D01*
X127817141Y-91481811D01*
X127786791Y-91569267D01*
X127731780Y-91644389D01*
X127708974Y-91669055D01*
X127687121Y-91698731D01*
X127682008Y-91715696D01*
X127684697Y-91718260D01*
X127709628Y-91725922D01*
X127749117Y-91729006D01*
X127808000Y-91729006D01*
X127808000Y-91938182D01*
X126747176Y-91938182D01*
X126747176Y-91731340D01*
X127109500Y-91726438D01*
X127190614Y-91725264D01*
X127287314Y-91723436D01*
X127360888Y-91721181D01*
X127415356Y-91718161D01*
X127454737Y-91714036D01*
X127483051Y-91708469D01*
X127504317Y-91701121D01*
X127522556Y-91691653D01*
X127534481Y-91684354D01*
X127593143Y-91634709D01*
X127625959Y-91574624D01*
X127636176Y-91498584D01*
X127636165Y-91495250D01*
X127626270Y-91414441D01*
X127597007Y-91354642D01*
X127547058Y-91313114D01*
X127545415Y-91312232D01*
X127526414Y-91304488D01*
X127499919Y-91298395D01*
X127462199Y-91293692D01*
X127409523Y-91290120D01*
X127338158Y-91287417D01*
X127244375Y-91285321D01*
X127124441Y-91283574D01*
X126747176Y-91278906D01*
X126747176Y-91071594D01*
X127101047Y-91071594D01*
X127182505Y-91071519D01*
X127277441Y-91070998D01*
X127349671Y-91069710D01*
X127403431Y-91067340D01*
X127442958Y-91063579D01*
X127472488Y-91058112D01*
X127496258Y-91050628D01*
X127518502Y-91040814D01*
X127562366Y-91012124D01*
X127607375Y-90958030D01*
X127633156Y-90893382D01*
X127639389Y-90824577D01*
X127625757Y-90758013D01*
X127591939Y-90700087D01*
X127537618Y-90657197D01*
X127527784Y-90653655D01*
X127494090Y-90648019D01*
X127439034Y-90643783D01*
X127360492Y-90640852D01*
X127256336Y-90639130D01*
X127124441Y-90638520D01*
X126747176Y-90638300D01*
X126747176Y-90411687D01*
X127154323Y-90417033D01*
G36*
X127154323Y-90417033D02*
G01*
X127226428Y-90418043D01*
X127336216Y-90420009D01*
X127421943Y-90422360D01*
X127487362Y-90425354D01*
X127536227Y-90429247D01*
X127572291Y-90434294D01*
X127599308Y-90440752D01*
X127621031Y-90448876D01*
X127684363Y-90484971D01*
X127752001Y-90551560D01*
X127796932Y-90637353D01*
X127818789Y-90741807D01*
X127821185Y-90804869D01*
X127808807Y-90889606D01*
X127774277Y-90962469D01*
X127714922Y-91030889D01*
X127712191Y-91033478D01*
X127676298Y-91068882D01*
X127652304Y-91095127D01*
X127645275Y-91106698D01*
X127647046Y-91107995D01*
X127666544Y-91121697D01*
X127698391Y-91143770D01*
X127718458Y-91161187D01*
X127753973Y-91204127D01*
X127784302Y-91253924D01*
X127800849Y-91292262D01*
X127822078Y-91387612D01*
X127817141Y-91481811D01*
X127786791Y-91569267D01*
X127731780Y-91644389D01*
X127708974Y-91669055D01*
X127687121Y-91698731D01*
X127682008Y-91715696D01*
X127684697Y-91718260D01*
X127709628Y-91725922D01*
X127749117Y-91729006D01*
X127808000Y-91729006D01*
X127808000Y-91938182D01*
X126747176Y-91938182D01*
X126747176Y-91731340D01*
X127109500Y-91726438D01*
X127190614Y-91725264D01*
X127287314Y-91723436D01*
X127360888Y-91721181D01*
X127415356Y-91718161D01*
X127454737Y-91714036D01*
X127483051Y-91708469D01*
X127504317Y-91701121D01*
X127522556Y-91691653D01*
X127534481Y-91684354D01*
X127593143Y-91634709D01*
X127625959Y-91574624D01*
X127636176Y-91498584D01*
X127636165Y-91495250D01*
X127626270Y-91414441D01*
X127597007Y-91354642D01*
X127547058Y-91313114D01*
X127545415Y-91312232D01*
X127526414Y-91304488D01*
X127499919Y-91298395D01*
X127462199Y-91293692D01*
X127409523Y-91290120D01*
X127338158Y-91287417D01*
X127244375Y-91285321D01*
X127124441Y-91283574D01*
X126747176Y-91278906D01*
X126747176Y-91071594D01*
X127101047Y-91071594D01*
X127182505Y-91071519D01*
X127277441Y-91070998D01*
X127349671Y-91069710D01*
X127403431Y-91067340D01*
X127442958Y-91063579D01*
X127472488Y-91058112D01*
X127496258Y-91050628D01*
X127518502Y-91040814D01*
X127562366Y-91012124D01*
X127607375Y-90958030D01*
X127633156Y-90893382D01*
X127639389Y-90824577D01*
X127625757Y-90758013D01*
X127591939Y-90700087D01*
X127537618Y-90657197D01*
X127527784Y-90653655D01*
X127494090Y-90648019D01*
X127439034Y-90643783D01*
X127360492Y-90640852D01*
X127256336Y-90639130D01*
X127124441Y-90638520D01*
X126747176Y-90638300D01*
X126747176Y-90411687D01*
X127154323Y-90417033D01*
G37*
X126926470Y-89127412D02*
X126926718Y-89137015D01*
X126933014Y-89176715D01*
X126945147Y-89200607D01*
X126964247Y-89205645D01*
X127009334Y-89210749D01*
X127075766Y-89215368D01*
X127159170Y-89219203D01*
X127255176Y-89221953D01*
X127305557Y-89223105D01*
X127410630Y-89226713D01*
X127492360Y-89232266D01*
X127555398Y-89240821D01*
X127604395Y-89253435D01*
X127643998Y-89271164D01*
X127678858Y-89295068D01*
X127713624Y-89326202D01*
X127760577Y-89381232D01*
X127800031Y-89458355D01*
X127822330Y-89551982D01*
X127829170Y-89667124D01*
X127823690Y-89768811D01*
X127804122Y-89861438D01*
X127768241Y-89939116D01*
X127713852Y-90008345D01*
X127706376Y-90015818D01*
X127664538Y-90050709D01*
X127616785Y-90082778D01*
X127572447Y-90106252D01*
X127540855Y-90115359D01*
X127532757Y-90108504D01*
X127517272Y-90080013D01*
X127500730Y-90036918D01*
X127490246Y-90005181D01*
X127476681Y-89964620D01*
X127468868Y-89941935D01*
X127468511Y-89940414D01*
X127479180Y-89923661D01*
X127508466Y-89906477D01*
X127532983Y-89894387D01*
X127591314Y-89845539D01*
X127631957Y-89780455D01*
X127653579Y-89705843D01*
X127654843Y-89628412D01*
X127634417Y-89554868D01*
X127590963Y-89491922D01*
X127574232Y-89475868D01*
X127544229Y-89454490D01*
X127509840Y-89445097D01*
X127458376Y-89443006D01*
X127374706Y-89443006D01*
X127374706Y-89649471D01*
X127374609Y-89676088D01*
X127371090Y-89790328D01*
X127361775Y-89880775D01*
X127345663Y-89952195D01*
X127321753Y-90009352D01*
X127289044Y-90057012D01*
X127282580Y-90064392D01*
X127214782Y-90117746D01*
X127130987Y-90149956D01*
X127063888Y-90156795D01*
X127037183Y-90159516D01*
X126939361Y-90144921D01*
X126925084Y-90140260D01*
X126861068Y-90102016D01*
X126804055Y-90040461D01*
X126758153Y-89960948D01*
X126727471Y-89868829D01*
X126721574Y-89830836D01*
X126720899Y-89743974D01*
X126726521Y-89703915D01*
X126898570Y-89703915D01*
X126902054Y-89778636D01*
X126921267Y-89846937D01*
X126954434Y-89901619D01*
X126999781Y-89935487D01*
X127001603Y-89936228D01*
X127063888Y-89946356D01*
X127122930Y-89929038D01*
X127171479Y-89886347D01*
X127177494Y-89877815D01*
X127188800Y-89856067D01*
X127196617Y-89827560D01*
X127201808Y-89786513D01*
X127205239Y-89727146D01*
X127207775Y-89643676D01*
X127212668Y-89443006D01*
X127151004Y-89443006D01*
X127102968Y-89447592D01*
X127027881Y-89476911D01*
X126966019Y-89531883D01*
X126919713Y-89610818D01*
X126912590Y-89629970D01*
X126898570Y-89703915D01*
X126726521Y-89703915D01*
X126734063Y-89650167D01*
X126736257Y-89640399D01*
X126752481Y-89591227D01*
X126779282Y-89548668D01*
X126823710Y-89500990D01*
X126860368Y-89463246D01*
X126886586Y-89432348D01*
X126896588Y-89415086D01*
X126886150Y-89403775D01*
X126856977Y-89395440D01*
X126815536Y-89380785D01*
X126781444Y-89342005D01*
X126759643Y-89278217D01*
X126749395Y-89187997D01*
X126744012Y-89069476D01*
X126926470Y-89069476D01*
X126926470Y-89127412D01*
G36*
X126926470Y-89127412D02*
G01*
X126926718Y-89137015D01*
X126933014Y-89176715D01*
X126945147Y-89200607D01*
X126964247Y-89205645D01*
X127009334Y-89210749D01*
X127075766Y-89215368D01*
X127159170Y-89219203D01*
X127255176Y-89221953D01*
X127305557Y-89223105D01*
X127410630Y-89226713D01*
X127492360Y-89232266D01*
X127555398Y-89240821D01*
X127604395Y-89253435D01*
X127643998Y-89271164D01*
X127678858Y-89295068D01*
X127713624Y-89326202D01*
X127760577Y-89381232D01*
X127800031Y-89458355D01*
X127822330Y-89551982D01*
X127829170Y-89667124D01*
X127823690Y-89768811D01*
X127804122Y-89861438D01*
X127768241Y-89939116D01*
X127713852Y-90008345D01*
X127706376Y-90015818D01*
X127664538Y-90050709D01*
X127616785Y-90082778D01*
X127572447Y-90106252D01*
X127540855Y-90115359D01*
X127532757Y-90108504D01*
X127517272Y-90080013D01*
X127500730Y-90036918D01*
X127490246Y-90005181D01*
X127476681Y-89964620D01*
X127468868Y-89941935D01*
X127468511Y-89940414D01*
X127479180Y-89923661D01*
X127508466Y-89906477D01*
X127532983Y-89894387D01*
X127591314Y-89845539D01*
X127631957Y-89780455D01*
X127653579Y-89705843D01*
X127654843Y-89628412D01*
X127634417Y-89554868D01*
X127590963Y-89491922D01*
X127574232Y-89475868D01*
X127544229Y-89454490D01*
X127509840Y-89445097D01*
X127458376Y-89443006D01*
X127374706Y-89443006D01*
X127374706Y-89649471D01*
X127374609Y-89676088D01*
X127371090Y-89790328D01*
X127361775Y-89880775D01*
X127345663Y-89952195D01*
X127321753Y-90009352D01*
X127289044Y-90057012D01*
X127282580Y-90064392D01*
X127214782Y-90117746D01*
X127130987Y-90149956D01*
X127063888Y-90156795D01*
X127037183Y-90159516D01*
X126939361Y-90144921D01*
X126925084Y-90140260D01*
X126861068Y-90102016D01*
X126804055Y-90040461D01*
X126758153Y-89960948D01*
X126727471Y-89868829D01*
X126721574Y-89830836D01*
X126720899Y-89743974D01*
X126726521Y-89703915D01*
X126898570Y-89703915D01*
X126902054Y-89778636D01*
X126921267Y-89846937D01*
X126954434Y-89901619D01*
X126999781Y-89935487D01*
X127001603Y-89936228D01*
X127063888Y-89946356D01*
X127122930Y-89929038D01*
X127171479Y-89886347D01*
X127177494Y-89877815D01*
X127188800Y-89856067D01*
X127196617Y-89827560D01*
X127201808Y-89786513D01*
X127205239Y-89727146D01*
X127207775Y-89643676D01*
X127212668Y-89443006D01*
X127151004Y-89443006D01*
X127102968Y-89447592D01*
X127027881Y-89476911D01*
X126966019Y-89531883D01*
X126919713Y-89610818D01*
X126912590Y-89629970D01*
X126898570Y-89703915D01*
X126726521Y-89703915D01*
X126734063Y-89650167D01*
X126736257Y-89640399D01*
X126752481Y-89591227D01*
X126779282Y-89548668D01*
X126823710Y-89500990D01*
X126860368Y-89463246D01*
X126886586Y-89432348D01*
X126896588Y-89415086D01*
X126886150Y-89403775D01*
X126856977Y-89395440D01*
X126815536Y-89380785D01*
X126781444Y-89342005D01*
X126759643Y-89278217D01*
X126749395Y-89187997D01*
X126744012Y-89069476D01*
X126926470Y-89069476D01*
X126926470Y-89127412D01*
G37*
X127461111Y-92257572D02*
X127536682Y-92265432D01*
X127572134Y-92271524D01*
X127731281Y-92314874D01*
X127871463Y-92381290D01*
X127992356Y-92470492D01*
X128093637Y-92582199D01*
X128174982Y-92716130D01*
X128236068Y-92872006D01*
X128248586Y-92929251D01*
X128258479Y-93015716D01*
X128263520Y-93116175D01*
X128263719Y-93222334D01*
X128259084Y-93325898D01*
X128249627Y-93418573D01*
X128235356Y-93492065D01*
X128193553Y-93613499D01*
X128119236Y-93753634D01*
X128023186Y-93874364D01*
X127906919Y-93974178D01*
X127771952Y-94051567D01*
X127619801Y-94105020D01*
X127547816Y-94118869D01*
X127443998Y-94129713D01*
X127328590Y-94134565D01*
X127211175Y-94133313D01*
X127101333Y-94125847D01*
X127008647Y-94112058D01*
X127002865Y-94110824D01*
X126852920Y-94063841D01*
X126718418Y-93992200D01*
X126600855Y-93897636D01*
X126501728Y-93781882D01*
X126422530Y-93646673D01*
X126364757Y-93493745D01*
X126329906Y-93324830D01*
X126327209Y-93298261D01*
X126323164Y-93236054D01*
X126319710Y-93156106D01*
X126317148Y-93065885D01*
X126315777Y-92972859D01*
X126313882Y-92715124D01*
X126504074Y-92715124D01*
X126512196Y-93017682D01*
X126513425Y-93059911D01*
X126518534Y-93184176D01*
X126525282Y-93281980D01*
X126533888Y-93355940D01*
X126544567Y-93408671D01*
X126552117Y-93434627D01*
X126608100Y-93570433D01*
X126685805Y-93685960D01*
X126784449Y-93780429D01*
X126903248Y-93853059D01*
X127041417Y-93903072D01*
X127095162Y-93913271D01*
X127182019Y-93921543D01*
X127280778Y-93924631D01*
X127381647Y-93922538D01*
X127474836Y-93915271D01*
X127550551Y-93902833D01*
X127611843Y-93885927D01*
X127741566Y-93830463D01*
X127850867Y-93753475D01*
X127939177Y-93655680D01*
X128005927Y-93537796D01*
X128050549Y-93400540D01*
X128072473Y-93244629D01*
X128074249Y-93124087D01*
X128056833Y-92972689D01*
X128016706Y-92839488D01*
X127954251Y-92725137D01*
X127869848Y-92630287D01*
X127763881Y-92555588D01*
X127636731Y-92501691D01*
X127629029Y-92499298D01*
X127581124Y-92486220D01*
X127533230Y-92477407D01*
X127477880Y-92472100D01*
X127407606Y-92469540D01*
X127314941Y-92468967D01*
X127250846Y-92469407D01*
X127172723Y-92471609D01*
X127115668Y-92476091D01*
X127074348Y-92483342D01*
X127043427Y-92493851D01*
X126985365Y-92531738D01*
X126951470Y-92584305D01*
X126944177Y-92650481D01*
X126948882Y-92707653D01*
X127378441Y-92711617D01*
X127808000Y-92715582D01*
X127808000Y-92924300D01*
X127741646Y-92924300D01*
X127723272Y-92924850D01*
X127685491Y-92930020D01*
X127666289Y-92938868D01*
X127669750Y-92952979D01*
X127690308Y-92981737D01*
X127723711Y-93017310D01*
X127777281Y-93084829D01*
X127812464Y-93170226D01*
X127822860Y-93262423D01*
X127808631Y-93356484D01*
X127769936Y-93447470D01*
X127706939Y-93530445D01*
X127635384Y-93588275D01*
X127535145Y-93638093D01*
X127419596Y-93670126D01*
X127294331Y-93682885D01*
X127278390Y-93681898D01*
X127164945Y-93674878D01*
X127075067Y-93656318D01*
X126961598Y-93612662D01*
X126869928Y-93550230D01*
X126801113Y-93470042D01*
X126756207Y-93373118D01*
X126736264Y-93260476D01*
X126735311Y-93239888D01*
X126921352Y-93239888D01*
X126944392Y-93314922D01*
X126993536Y-93378214D01*
X127067790Y-93426814D01*
X127104499Y-93442105D01*
X127149892Y-93454266D01*
X127204417Y-93460334D01*
X127278390Y-93462036D01*
X127288536Y-93462032D01*
X127356398Y-93460431D01*
X127405913Y-93454748D01*
X127447289Y-93443142D01*
X127490734Y-93423776D01*
X127510679Y-93413247D01*
X127571034Y-93369183D01*
X127609375Y-93314521D01*
X127628437Y-93243959D01*
X127630959Y-93152196D01*
X127630080Y-93143352D01*
X127610242Y-93091737D01*
X127569670Y-93039105D01*
X127514831Y-92992457D01*
X127452197Y-92958791D01*
X127401781Y-92944777D01*
X127324652Y-92934611D01*
X127242030Y-92932604D01*
X127165279Y-92938922D01*
X127105765Y-92953730D01*
X127065148Y-92972383D01*
X126994368Y-93021281D01*
X126951027Y-93079837D01*
X126925409Y-93156063D01*
X126921352Y-93239888D01*
X126735311Y-93239888D01*
X126734671Y-93226046D01*
X126736137Y-93173645D01*
X126745482Y-93132001D01*
X126764773Y-93088653D01*
X126772833Y-93074420D01*
X126811680Y-93023667D01*
X126855500Y-92985297D01*
X126888798Y-92960239D01*
X126908868Y-92933886D01*
X126903995Y-92915969D01*
X126873497Y-92909359D01*
X126853259Y-92906447D01*
X126809914Y-92881740D01*
X126774398Y-92837864D01*
X126753622Y-92782152D01*
X126749526Y-92739881D01*
X126748695Y-92680016D01*
X126751450Y-92616533D01*
X126758402Y-92558749D01*
X126785613Y-92465579D01*
X126833371Y-92391783D01*
X126904338Y-92333861D01*
X127001176Y-92288315D01*
X127028834Y-92280321D01*
X127096279Y-92268621D01*
X127181109Y-92260159D01*
X127275445Y-92255273D01*
X127371405Y-92254298D01*
X127461111Y-92257572D01*
G36*
X127461111Y-92257572D02*
G01*
X127536682Y-92265432D01*
X127572134Y-92271524D01*
X127731281Y-92314874D01*
X127871463Y-92381290D01*
X127992356Y-92470492D01*
X128093637Y-92582199D01*
X128174982Y-92716130D01*
X128236068Y-92872006D01*
X128248586Y-92929251D01*
X128258479Y-93015716D01*
X128263520Y-93116175D01*
X128263719Y-93222334D01*
X128259084Y-93325898D01*
X128249627Y-93418573D01*
X128235356Y-93492065D01*
X128193553Y-93613499D01*
X128119236Y-93753634D01*
X128023186Y-93874364D01*
X127906919Y-93974178D01*
X127771952Y-94051567D01*
X127619801Y-94105020D01*
X127547816Y-94118869D01*
X127443998Y-94129713D01*
X127328590Y-94134565D01*
X127211175Y-94133313D01*
X127101333Y-94125847D01*
X127008647Y-94112058D01*
X127002865Y-94110824D01*
X126852920Y-94063841D01*
X126718418Y-93992200D01*
X126600855Y-93897636D01*
X126501728Y-93781882D01*
X126422530Y-93646673D01*
X126364757Y-93493745D01*
X126329906Y-93324830D01*
X126327209Y-93298261D01*
X126323164Y-93236054D01*
X126319710Y-93156106D01*
X126317148Y-93065885D01*
X126315777Y-92972859D01*
X126313882Y-92715124D01*
X126504074Y-92715124D01*
X126512196Y-93017682D01*
X126513425Y-93059911D01*
X126518534Y-93184176D01*
X126525282Y-93281980D01*
X126533888Y-93355940D01*
X126544567Y-93408671D01*
X126552117Y-93434627D01*
X126608100Y-93570433D01*
X126685805Y-93685960D01*
X126784449Y-93780429D01*
X126903248Y-93853059D01*
X127041417Y-93903072D01*
X127095162Y-93913271D01*
X127182019Y-93921543D01*
X127280778Y-93924631D01*
X127381647Y-93922538D01*
X127474836Y-93915271D01*
X127550551Y-93902833D01*
X127611843Y-93885927D01*
X127741566Y-93830463D01*
X127850867Y-93753475D01*
X127939177Y-93655680D01*
X128005927Y-93537796D01*
X128050549Y-93400540D01*
X128072473Y-93244629D01*
X128074249Y-93124087D01*
X128056833Y-92972689D01*
X128016706Y-92839488D01*
X127954251Y-92725137D01*
X127869848Y-92630287D01*
X127763881Y-92555588D01*
X127636731Y-92501691D01*
X127629029Y-92499298D01*
X127581124Y-92486220D01*
X127533230Y-92477407D01*
X127477880Y-92472100D01*
X127407606Y-92469540D01*
X127314941Y-92468967D01*
X127250846Y-92469407D01*
X127172723Y-92471609D01*
X127115668Y-92476091D01*
X127074348Y-92483342D01*
X127043427Y-92493851D01*
X126985365Y-92531738D01*
X126951470Y-92584305D01*
X126944177Y-92650481D01*
X126948882Y-92707653D01*
X127378441Y-92711617D01*
X127808000Y-92715582D01*
X127808000Y-92924300D01*
X127741646Y-92924300D01*
X127723272Y-92924850D01*
X127685491Y-92930020D01*
X127666289Y-92938868D01*
X127669750Y-92952979D01*
X127690308Y-92981737D01*
X127723711Y-93017310D01*
X127777281Y-93084829D01*
X127812464Y-93170226D01*
X127822860Y-93262423D01*
X127808631Y-93356484D01*
X127769936Y-93447470D01*
X127706939Y-93530445D01*
X127635384Y-93588275D01*
X127535145Y-93638093D01*
X127419596Y-93670126D01*
X127294331Y-93682885D01*
X127278390Y-93681898D01*
X127164945Y-93674878D01*
X127075067Y-93656318D01*
X126961598Y-93612662D01*
X126869928Y-93550230D01*
X126801113Y-93470042D01*
X126756207Y-93373118D01*
X126736264Y-93260476D01*
X126735311Y-93239888D01*
X126921352Y-93239888D01*
X126944392Y-93314922D01*
X126993536Y-93378214D01*
X127067790Y-93426814D01*
X127104499Y-93442105D01*
X127149892Y-93454266D01*
X127204417Y-93460334D01*
X127278390Y-93462036D01*
X127288536Y-93462032D01*
X127356398Y-93460431D01*
X127405913Y-93454748D01*
X127447289Y-93443142D01*
X127490734Y-93423776D01*
X127510679Y-93413247D01*
X127571034Y-93369183D01*
X127609375Y-93314521D01*
X127628437Y-93243959D01*
X127630959Y-93152196D01*
X127630080Y-93143352D01*
X127610242Y-93091737D01*
X127569670Y-93039105D01*
X127514831Y-92992457D01*
X127452197Y-92958791D01*
X127401781Y-92944777D01*
X127324652Y-92934611D01*
X127242030Y-92932604D01*
X127165279Y-92938922D01*
X127105765Y-92953730D01*
X127065148Y-92972383D01*
X126994368Y-93021281D01*
X126951027Y-93079837D01*
X126925409Y-93156063D01*
X126921352Y-93239888D01*
X126735311Y-93239888D01*
X126734671Y-93226046D01*
X126736137Y-93173645D01*
X126745482Y-93132001D01*
X126764773Y-93088653D01*
X126772833Y-93074420D01*
X126811680Y-93023667D01*
X126855500Y-92985297D01*
X126888798Y-92960239D01*
X126908868Y-92933886D01*
X126903995Y-92915969D01*
X126873497Y-92909359D01*
X126853259Y-92906447D01*
X126809914Y-92881740D01*
X126774398Y-92837864D01*
X126753622Y-92782152D01*
X126749526Y-92739881D01*
X126748695Y-92680016D01*
X126751450Y-92616533D01*
X126758402Y-92558749D01*
X126785613Y-92465579D01*
X126833371Y-92391783D01*
X126904338Y-92333861D01*
X127001176Y-92288315D01*
X127028834Y-92280321D01*
X127096279Y-92268621D01*
X127181109Y-92260159D01*
X127275445Y-92255273D01*
X127371405Y-92254298D01*
X127461111Y-92257572D01*
G37*
X130260118Y-90418674D02*
X130336056Y-90497619D01*
X130408461Y-90573441D01*
X130469989Y-90638452D01*
X130517651Y-90689473D01*
X130548459Y-90723331D01*
X130559427Y-90736848D01*
X130546626Y-90744391D01*
X130508539Y-90763544D01*
X130449836Y-90792038D01*
X130375221Y-90827673D01*
X130289400Y-90868250D01*
X130197078Y-90911569D01*
X130102960Y-90955431D01*
X130011751Y-90997634D01*
X129928156Y-91035980D01*
X129856881Y-91068269D01*
X129802631Y-91092301D01*
X129770111Y-91105877D01*
X129756241Y-91109122D01*
X129750401Y-91100591D01*
X129753604Y-91073296D01*
X129765500Y-91020772D01*
X129771796Y-90993533D01*
X129785592Y-90931566D01*
X129804013Y-90847239D01*
X129825826Y-90746243D01*
X129849797Y-90634265D01*
X129874694Y-90516997D01*
X129960995Y-90108749D01*
X130260118Y-90418674D01*
G36*
X130260118Y-90418674D02*
G01*
X130336056Y-90497619D01*
X130408461Y-90573441D01*
X130469989Y-90638452D01*
X130517651Y-90689473D01*
X130548459Y-90723331D01*
X130559427Y-90736848D01*
X130546626Y-90744391D01*
X130508539Y-90763544D01*
X130449836Y-90792038D01*
X130375221Y-90827673D01*
X130289400Y-90868250D01*
X130197078Y-90911569D01*
X130102960Y-90955431D01*
X130011751Y-90997634D01*
X129928156Y-91035980D01*
X129856881Y-91068269D01*
X129802631Y-91092301D01*
X129770111Y-91105877D01*
X129756241Y-91109122D01*
X129750401Y-91100591D01*
X129753604Y-91073296D01*
X129765500Y-91020772D01*
X129771796Y-90993533D01*
X129785592Y-90931566D01*
X129804013Y-90847239D01*
X129825826Y-90746243D01*
X129849797Y-90634265D01*
X129874694Y-90516997D01*
X129960995Y-90108749D01*
X130260118Y-90418674D01*
G37*
X129755500Y-82891323D02*
X129785951Y-82903693D01*
X129838667Y-82926490D01*
X129908960Y-82957579D01*
X129992139Y-82994823D01*
X130083514Y-83036088D01*
X130178394Y-83079237D01*
X130272089Y-83122134D01*
X130359911Y-83162644D01*
X130437167Y-83198630D01*
X130499169Y-83227957D01*
X130541226Y-83248489D01*
X130558647Y-83258089D01*
X130549875Y-83270627D01*
X130520789Y-83303279D01*
X130474282Y-83352923D01*
X130413289Y-83416470D01*
X130340744Y-83490831D01*
X130259583Y-83572916D01*
X130179319Y-83653435D01*
X130105946Y-83726749D01*
X130043658Y-83788684D01*
X129995453Y-83836267D01*
X129964330Y-83866527D01*
X129953290Y-83876490D01*
X129952334Y-83870537D01*
X129945884Y-83837548D01*
X129934271Y-83780400D01*
X129918571Y-83704231D01*
X129899862Y-83614178D01*
X129879220Y-83515381D01*
X129857724Y-83412976D01*
X129836449Y-83312102D01*
X129816474Y-83217895D01*
X129798875Y-83135495D01*
X129784730Y-83070039D01*
X129775116Y-83026664D01*
X129770561Y-83006393D01*
X129758485Y-82948785D01*
X129751106Y-82907285D01*
X129749878Y-82889779D01*
X129755500Y-82891323D01*
G36*
X129755500Y-82891323D02*
G01*
X129785951Y-82903693D01*
X129838667Y-82926490D01*
X129908960Y-82957579D01*
X129992139Y-82994823D01*
X130083514Y-83036088D01*
X130178394Y-83079237D01*
X130272089Y-83122134D01*
X130359911Y-83162644D01*
X130437167Y-83198630D01*
X130499169Y-83227957D01*
X130541226Y-83248489D01*
X130558647Y-83258089D01*
X130549875Y-83270627D01*
X130520789Y-83303279D01*
X130474282Y-83352923D01*
X130413289Y-83416470D01*
X130340744Y-83490831D01*
X130259583Y-83572916D01*
X130179319Y-83653435D01*
X130105946Y-83726749D01*
X130043658Y-83788684D01*
X129995453Y-83836267D01*
X129964330Y-83866527D01*
X129953290Y-83876490D01*
X129952334Y-83870537D01*
X129945884Y-83837548D01*
X129934271Y-83780400D01*
X129918571Y-83704231D01*
X129899862Y-83614178D01*
X129879220Y-83515381D01*
X129857724Y-83412976D01*
X129836449Y-83312102D01*
X129816474Y-83217895D01*
X129798875Y-83135495D01*
X129784730Y-83070039D01*
X129775116Y-83026664D01*
X129770561Y-83006393D01*
X129758485Y-82948785D01*
X129751106Y-82907285D01*
X129749878Y-82889779D01*
X129755500Y-82891323D01*
G37*
X130255942Y-88189385D02*
X130278835Y-88210838D01*
X130321816Y-88252882D01*
X130383012Y-88313614D01*
X130460553Y-88391130D01*
X130552565Y-88483527D01*
X130657177Y-88588901D01*
X130772517Y-88705348D01*
X130896714Y-88830964D01*
X131027895Y-88963846D01*
X131164188Y-89102090D01*
X131303722Y-89243792D01*
X131444625Y-89387050D01*
X131585025Y-89529958D01*
X131723049Y-89670613D01*
X131856827Y-89807112D01*
X131984486Y-89937551D01*
X132104154Y-90060026D01*
X132213960Y-90172633D01*
X132312032Y-90273470D01*
X132396497Y-90360631D01*
X132465484Y-90432214D01*
X132517121Y-90486315D01*
X132549536Y-90521030D01*
X132560857Y-90534455D01*
X132553998Y-90539556D01*
X132521727Y-90556994D01*
X132466880Y-90584553D01*
X132393746Y-90620229D01*
X132306618Y-90662020D01*
X132209787Y-90707921D01*
X132107544Y-90755929D01*
X132004180Y-90804040D01*
X131903986Y-90850252D01*
X131811254Y-90892561D01*
X131730275Y-90928963D01*
X131665340Y-90957455D01*
X131620740Y-90976033D01*
X131600767Y-90982694D01*
X131598245Y-90981222D01*
X131576359Y-90961992D01*
X131534163Y-90922025D01*
X131473620Y-90863264D01*
X131396692Y-90787650D01*
X131305342Y-90697128D01*
X131201534Y-90593638D01*
X131087229Y-90479123D01*
X130964391Y-90355527D01*
X130834981Y-90224791D01*
X130788179Y-90177385D01*
X130661293Y-90048551D01*
X130542119Y-89927100D01*
X130432579Y-89815017D01*
X130334595Y-89714287D01*
X130250089Y-89626895D01*
X130180982Y-89554826D01*
X130129196Y-89500064D01*
X130096653Y-89464596D01*
X130085275Y-89450406D01*
X130086507Y-89436391D01*
X130091902Y-89393964D01*
X130100853Y-89329231D01*
X130112575Y-89247840D01*
X130126284Y-89155438D01*
X130138953Y-89068110D01*
X130156452Y-88940367D01*
X130174631Y-88801205D01*
X130191972Y-88662308D01*
X130206953Y-88535357D01*
X130210655Y-88502997D01*
X130222339Y-88403985D01*
X130233017Y-88317986D01*
X130242050Y-88249890D01*
X130248795Y-88204590D01*
X130252612Y-88186976D01*
X130255942Y-88189385D01*
G36*
X130255942Y-88189385D02*
G01*
X130278835Y-88210838D01*
X130321816Y-88252882D01*
X130383012Y-88313614D01*
X130460553Y-88391130D01*
X130552565Y-88483527D01*
X130657177Y-88588901D01*
X130772517Y-88705348D01*
X130896714Y-88830964D01*
X131027895Y-88963846D01*
X131164188Y-89102090D01*
X131303722Y-89243792D01*
X131444625Y-89387050D01*
X131585025Y-89529958D01*
X131723049Y-89670613D01*
X131856827Y-89807112D01*
X131984486Y-89937551D01*
X132104154Y-90060026D01*
X132213960Y-90172633D01*
X132312032Y-90273470D01*
X132396497Y-90360631D01*
X132465484Y-90432214D01*
X132517121Y-90486315D01*
X132549536Y-90521030D01*
X132560857Y-90534455D01*
X132553998Y-90539556D01*
X132521727Y-90556994D01*
X132466880Y-90584553D01*
X132393746Y-90620229D01*
X132306618Y-90662020D01*
X132209787Y-90707921D01*
X132107544Y-90755929D01*
X132004180Y-90804040D01*
X131903986Y-90850252D01*
X131811254Y-90892561D01*
X131730275Y-90928963D01*
X131665340Y-90957455D01*
X131620740Y-90976033D01*
X131600767Y-90982694D01*
X131598245Y-90981222D01*
X131576359Y-90961992D01*
X131534163Y-90922025D01*
X131473620Y-90863264D01*
X131396692Y-90787650D01*
X131305342Y-90697128D01*
X131201534Y-90593638D01*
X131087229Y-90479123D01*
X130964391Y-90355527D01*
X130834981Y-90224791D01*
X130788179Y-90177385D01*
X130661293Y-90048551D01*
X130542119Y-89927100D01*
X130432579Y-89815017D01*
X130334595Y-89714287D01*
X130250089Y-89626895D01*
X130180982Y-89554826D01*
X130129196Y-89500064D01*
X130096653Y-89464596D01*
X130085275Y-89450406D01*
X130086507Y-89436391D01*
X130091902Y-89393964D01*
X130100853Y-89329231D01*
X130112575Y-89247840D01*
X130126284Y-89155438D01*
X130138953Y-89068110D01*
X130156452Y-88940367D01*
X130174631Y-88801205D01*
X130191972Y-88662308D01*
X130206953Y-88535357D01*
X130210655Y-88502997D01*
X130222339Y-88403985D01*
X130233017Y-88317986D01*
X130242050Y-88249890D01*
X130248795Y-88204590D01*
X130252612Y-88186976D01*
X130255942Y-88189385D01*
G37*
X131610998Y-83021776D02*
X131647632Y-83036903D01*
X131706221Y-83062479D01*
X131782444Y-83096509D01*
X131871983Y-83137000D01*
X131970517Y-83181959D01*
X132073729Y-83229391D01*
X132177299Y-83277304D01*
X132276908Y-83323704D01*
X132368236Y-83366597D01*
X132446965Y-83403991D01*
X132508774Y-83433891D01*
X132549346Y-83454304D01*
X132564360Y-83463236D01*
X132561341Y-83467781D01*
X132538989Y-83492971D01*
X132496463Y-83538367D01*
X132435637Y-83602073D01*
X132358384Y-83682191D01*
X132266578Y-83776823D01*
X132162091Y-83884072D01*
X132046798Y-84002040D01*
X131922570Y-84128831D01*
X131791282Y-84262546D01*
X131654807Y-84401288D01*
X131515019Y-84543159D01*
X131373789Y-84686263D01*
X131232992Y-84828701D01*
X131094501Y-84968577D01*
X130960190Y-85103992D01*
X130831931Y-85233050D01*
X130711597Y-85353852D01*
X130601063Y-85464502D01*
X130502201Y-85563102D01*
X130416884Y-85647755D01*
X130346987Y-85716563D01*
X130294382Y-85767628D01*
X130260942Y-85799053D01*
X130248541Y-85808941D01*
X130247328Y-85806075D01*
X130241531Y-85777343D01*
X130233271Y-85722575D01*
X130223220Y-85646761D01*
X130212051Y-85554891D01*
X130200436Y-85451954D01*
X130187794Y-85340422D01*
X130171993Y-85210049D01*
X130155465Y-85081347D01*
X130139539Y-84964630D01*
X130125542Y-84870212D01*
X130120557Y-84838300D01*
X130107559Y-84752014D01*
X130096839Y-84676423D01*
X130089395Y-84618745D01*
X130086227Y-84586197D01*
X130087815Y-84575750D01*
X130095134Y-84559784D01*
X130109825Y-84537633D01*
X130133466Y-84507596D01*
X130167633Y-84467970D01*
X130213905Y-84417053D01*
X130273859Y-84353144D01*
X130349070Y-84274540D01*
X130441117Y-84179539D01*
X130551577Y-84066439D01*
X130682027Y-83933537D01*
X130834044Y-83779132D01*
X130882339Y-83730164D01*
X131009559Y-83601520D01*
X131129497Y-83480734D01*
X131240197Y-83369749D01*
X131339699Y-83270509D01*
X131426045Y-83184956D01*
X131497279Y-83115033D01*
X131551440Y-83062682D01*
X131586571Y-83029847D01*
X131600714Y-83018470D01*
X131610998Y-83021776D01*
G36*
X131610998Y-83021776D02*
G01*
X131647632Y-83036903D01*
X131706221Y-83062479D01*
X131782444Y-83096509D01*
X131871983Y-83137000D01*
X131970517Y-83181959D01*
X132073729Y-83229391D01*
X132177299Y-83277304D01*
X132276908Y-83323704D01*
X132368236Y-83366597D01*
X132446965Y-83403991D01*
X132508774Y-83433891D01*
X132549346Y-83454304D01*
X132564360Y-83463236D01*
X132561341Y-83467781D01*
X132538989Y-83492971D01*
X132496463Y-83538367D01*
X132435637Y-83602073D01*
X132358384Y-83682191D01*
X132266578Y-83776823D01*
X132162091Y-83884072D01*
X132046798Y-84002040D01*
X131922570Y-84128831D01*
X131791282Y-84262546D01*
X131654807Y-84401288D01*
X131515019Y-84543159D01*
X131373789Y-84686263D01*
X131232992Y-84828701D01*
X131094501Y-84968577D01*
X130960190Y-85103992D01*
X130831931Y-85233050D01*
X130711597Y-85353852D01*
X130601063Y-85464502D01*
X130502201Y-85563102D01*
X130416884Y-85647755D01*
X130346987Y-85716563D01*
X130294382Y-85767628D01*
X130260942Y-85799053D01*
X130248541Y-85808941D01*
X130247328Y-85806075D01*
X130241531Y-85777343D01*
X130233271Y-85722575D01*
X130223220Y-85646761D01*
X130212051Y-85554891D01*
X130200436Y-85451954D01*
X130187794Y-85340422D01*
X130171993Y-85210049D01*
X130155465Y-85081347D01*
X130139539Y-84964630D01*
X130125542Y-84870212D01*
X130120557Y-84838300D01*
X130107559Y-84752014D01*
X130096839Y-84676423D01*
X130089395Y-84618745D01*
X130086227Y-84586197D01*
X130087815Y-84575750D01*
X130095134Y-84559784D01*
X130109825Y-84537633D01*
X130133466Y-84507596D01*
X130167633Y-84467970D01*
X130213905Y-84417053D01*
X130273859Y-84353144D01*
X130349070Y-84274540D01*
X130441117Y-84179539D01*
X130551577Y-84066439D01*
X130682027Y-83933537D01*
X130834044Y-83779132D01*
X130882339Y-83730164D01*
X131009559Y-83601520D01*
X131129497Y-83480734D01*
X131240197Y-83369749D01*
X131339699Y-83270509D01*
X131426045Y-83184956D01*
X131497279Y-83115033D01*
X131551440Y-83062682D01*
X131586571Y-83029847D01*
X131600714Y-83018470D01*
X131610998Y-83021776D01*
G37*
X134114093Y-83476549D02*
X134203109Y-83521350D01*
X134312834Y-83577388D01*
X134409870Y-83627873D01*
X134490875Y-83671018D01*
X134552508Y-83705037D01*
X134591424Y-83728143D01*
X134604284Y-83738551D01*
X134598984Y-83744633D01*
X134572701Y-83772381D01*
X134525599Y-83821254D01*
X134458991Y-83889908D01*
X134374194Y-83976998D01*
X134272523Y-84081180D01*
X134155292Y-84201111D01*
X134023816Y-84335445D01*
X133879412Y-84482838D01*
X133723394Y-84641947D01*
X133557077Y-84811427D01*
X133381776Y-84989933D01*
X133198806Y-85176122D01*
X133009483Y-85368649D01*
X132884395Y-85495837D01*
X132699140Y-85684295D01*
X132521116Y-85865505D01*
X132351637Y-86038125D01*
X132192017Y-86200814D01*
X132043569Y-86352229D01*
X131907608Y-86491029D01*
X131785446Y-86615870D01*
X131678398Y-86725412D01*
X131587778Y-86818312D01*
X131514899Y-86893228D01*
X131461075Y-86948817D01*
X131427620Y-86983739D01*
X131415847Y-86996651D01*
X131421675Y-87004087D01*
X131448511Y-87033600D01*
X131495960Y-87084263D01*
X131562732Y-87154736D01*
X131647539Y-87243677D01*
X131749089Y-87349745D01*
X131866093Y-87471598D01*
X131997262Y-87607895D01*
X132141305Y-87757295D01*
X132296932Y-87918457D01*
X132462855Y-88090038D01*
X132637782Y-88270699D01*
X132820424Y-88459097D01*
X133009492Y-88653891D01*
X133150107Y-88798722D01*
X133334607Y-88988879D01*
X133511771Y-89171618D01*
X133680306Y-89345600D01*
X133838919Y-89509483D01*
X133986317Y-89661930D01*
X134121207Y-89801599D01*
X134242297Y-89927152D01*
X134348294Y-90037248D01*
X134437904Y-90130547D01*
X134509836Y-90205711D01*
X134562796Y-90261399D01*
X134595492Y-90296271D01*
X134606630Y-90308988D01*
X134600494Y-90313361D01*
X134568693Y-90330362D01*
X134512868Y-90358301D01*
X134436509Y-90395484D01*
X134343105Y-90440218D01*
X134236143Y-90490810D01*
X134119114Y-90545567D01*
X133632193Y-90772212D01*
X131759967Y-88894690D01*
X131600108Y-88734318D01*
X131398574Y-88531962D01*
X131204350Y-88336751D01*
X131018655Y-88149917D01*
X130842709Y-87972696D01*
X130677730Y-87806319D01*
X130524940Y-87652023D01*
X130385557Y-87511040D01*
X130260802Y-87384604D01*
X130151893Y-87273950D01*
X130060051Y-87180310D01*
X129986495Y-87104921D01*
X129932445Y-87049014D01*
X129899121Y-87013824D01*
X129887742Y-87000585D01*
X129888923Y-86998689D01*
X129907558Y-86977792D01*
X129948116Y-86934938D01*
X130009667Y-86871067D01*
X130091280Y-86787120D01*
X130192027Y-86684037D01*
X130310977Y-86562761D01*
X130447202Y-86424230D01*
X130599771Y-86269388D01*
X130767755Y-86099174D01*
X130950224Y-85914529D01*
X131146248Y-85716394D01*
X131354899Y-85505711D01*
X131575246Y-85283419D01*
X131806359Y-85050461D01*
X132047309Y-84807776D01*
X132297167Y-84556307D01*
X132555003Y-84296993D01*
X132819886Y-84030775D01*
X133090888Y-83758596D01*
X133618650Y-83228721D01*
X134114093Y-83476549D01*
G36*
X134114093Y-83476549D02*
G01*
X134203109Y-83521350D01*
X134312834Y-83577388D01*
X134409870Y-83627873D01*
X134490875Y-83671018D01*
X134552508Y-83705037D01*
X134591424Y-83728143D01*
X134604284Y-83738551D01*
X134598984Y-83744633D01*
X134572701Y-83772381D01*
X134525599Y-83821254D01*
X134458991Y-83889908D01*
X134374194Y-83976998D01*
X134272523Y-84081180D01*
X134155292Y-84201111D01*
X134023816Y-84335445D01*
X133879412Y-84482838D01*
X133723394Y-84641947D01*
X133557077Y-84811427D01*
X133381776Y-84989933D01*
X133198806Y-85176122D01*
X133009483Y-85368649D01*
X132884395Y-85495837D01*
X132699140Y-85684295D01*
X132521116Y-85865505D01*
X132351637Y-86038125D01*
X132192017Y-86200814D01*
X132043569Y-86352229D01*
X131907608Y-86491029D01*
X131785446Y-86615870D01*
X131678398Y-86725412D01*
X131587778Y-86818312D01*
X131514899Y-86893228D01*
X131461075Y-86948817D01*
X131427620Y-86983739D01*
X131415847Y-86996651D01*
X131421675Y-87004087D01*
X131448511Y-87033600D01*
X131495960Y-87084263D01*
X131562732Y-87154736D01*
X131647539Y-87243677D01*
X131749089Y-87349745D01*
X131866093Y-87471598D01*
X131997262Y-87607895D01*
X132141305Y-87757295D01*
X132296932Y-87918457D01*
X132462855Y-88090038D01*
X132637782Y-88270699D01*
X132820424Y-88459097D01*
X133009492Y-88653891D01*
X133150107Y-88798722D01*
X133334607Y-88988879D01*
X133511771Y-89171618D01*
X133680306Y-89345600D01*
X133838919Y-89509483D01*
X133986317Y-89661930D01*
X134121207Y-89801599D01*
X134242297Y-89927152D01*
X134348294Y-90037248D01*
X134437904Y-90130547D01*
X134509836Y-90205711D01*
X134562796Y-90261399D01*
X134595492Y-90296271D01*
X134606630Y-90308988D01*
X134600494Y-90313361D01*
X134568693Y-90330362D01*
X134512868Y-90358301D01*
X134436509Y-90395484D01*
X134343105Y-90440218D01*
X134236143Y-90490810D01*
X134119114Y-90545567D01*
X133632193Y-90772212D01*
X131759967Y-88894690D01*
X131600108Y-88734318D01*
X131398574Y-88531962D01*
X131204350Y-88336751D01*
X131018655Y-88149917D01*
X130842709Y-87972696D01*
X130677730Y-87806319D01*
X130524940Y-87652023D01*
X130385557Y-87511040D01*
X130260802Y-87384604D01*
X130151893Y-87273950D01*
X130060051Y-87180310D01*
X129986495Y-87104921D01*
X129932445Y-87049014D01*
X129899121Y-87013824D01*
X129887742Y-87000585D01*
X129888923Y-86998689D01*
X129907558Y-86977792D01*
X129948116Y-86934938D01*
X130009667Y-86871067D01*
X130091280Y-86787120D01*
X130192027Y-86684037D01*
X130310977Y-86562761D01*
X130447202Y-86424230D01*
X130599771Y-86269388D01*
X130767755Y-86099174D01*
X130950224Y-85914529D01*
X131146248Y-85716394D01*
X131354899Y-85505711D01*
X131575246Y-85283419D01*
X131806359Y-85050461D01*
X132047309Y-84807776D01*
X132297167Y-84556307D01*
X132555003Y-84296993D01*
X132819886Y-84030775D01*
X133090888Y-83758596D01*
X133618650Y-83228721D01*
X134114093Y-83476549D01*
G37*
G04 #@! TD*
M02*
