M48
; DRILL file {KiCad 7.0.6} date Sun Nov 12 09:36:57 2023
; FORMAT={-:-/ absolute / metric / decimal}
; #@! TF.CreationDate,2023-11-12T09:36:57+05:30
; #@! TF.GenerationSoftware,Kicad,Pcbnew,7.0.6
; #@! TF.FileFunction,MixedPlating,1,2
FMAT,2
METRIC
; #@! TA.AperFunction,Plated,PTH,ViaDrill
T1C0.400
; #@! TA.AperFunction,Plated,PTH,ComponentDrill
T2C1.000
%
G90
G05
T1
X126.7Y-77.5
X127.25Y-97.5
X127.9Y-99.4
X131.3Y-98.0
X131.5Y-96.2
X131.75Y-101.5
X134.5Y-94.2
X134.75Y-99.25
X134.9Y-73.6
X137.2Y-87.0
X138.5Y-96.4
X138.574Y-91.558
X139.5Y-79.0
X139.5Y-81.0
X141.5Y-79.0
X141.5Y-81.0
X142.1Y-92.8
X142.1Y-95.0
X142.1Y-97.4
X142.7Y-83.5
X146.9Y-83.5
X148.25Y-76.0
X148.25Y-77.25
X148.5Y-90.25
X148.5Y-95.0
X150.0Y-90.25
X151.75Y-101.5
X152.75Y-82.0
X152.75Y-83.5
X154.0Y-96.0
X156.0Y-76.5
T2
X136.425Y-101.0
X138.965Y-101.0
X141.505Y-101.0
X144.045Y-101.0
X146.585Y-101.0
X155.5Y-81.0
X155.5Y-83.54
X155.5Y-86.08
X155.5Y-88.62
X155.5Y-91.16
X155.5Y-93.7
T0
M30
